<svg xmlns="http://www.w3.org/2000/svg" viewBox="0 -0.5 1024 1024" shape-rendering="crispEdges">
<metadata>Made with Pixels to Svg https://codepen.io/shshaw/pen/XbxvNj</metadata>
<path stroke="rgba(191,223,223,0.03137254901960784)" d="M480 0h1M543 0h1M243 75h1M780 75h1M75 243h1M948 243h1M0 480h1M1023 480h1M0 543h1M1023 543h1M75 780h1M948 780h1M243 948h1M780 948h1M480 1023h1M543 1023h1" />
<path stroke="rgba(191,223,234,0.09411764705882353)" d="M481 0h1M542 0h1M457 2h1M566 2h1M226 86h1M797 86h1M86 226h1M937 226h1M2 457h1M1021 457h1M0 481h1M1023 481h1M0 542h1M1023 542h1M2 566h1M1021 566h1M86 797h1M937 797h1M226 937h1M797 937h1M457 1021h1M566 1021h1M481 1023h1M542 1023h1" />
<path stroke="rgba(188,215,242,0.14901960784313725)" d="M482 0h1M468 1h1M555 1h1M428 6h1M357 23h1M666 23h1M342 28h1M681 28h1M275 57h1M748 57h1M240 77h1M783 77h1M181 120h1M842 120h1M120 181h1M903 181h1M77 240h1M946 240h1M57 275h1M966 275h1M28 342h1M995 342h1M23 357h1M1000 357h1M1017 428h1M1 468h1M1022 468h1M1023 482h1M0 541h1M1 555h1M1022 555h1M6 595h1M23 666h1M1000 666h1M28 681h1M995 681h1M57 748h1M966 748h1M77 783h1M946 783h1M120 842h1M903 842h1M181 903h1M842 903h1M240 946h1M783 946h1M275 966h1M748 966h1M342 995h1M681 995h1M357 1000h1M666 1000h1M595 1017h1M468 1022h1M555 1022h1M541 1023h1" />
<path stroke="rgba(188,217,241,0.20784313725490197)" d="M483 0h1M540 0h1M417 8h1M606 8h1M351 25h1M672 25h1M348 26h1M675 26h1M285 52h1M971 285h1M26 348h1M997 348h1M25 351h1M998 351h1M8 417h1M1015 417h1M0 483h1M1023 483h1M0 540h1M1023 540h1M8 606h1M1015 606h1M25 672h1M998 672h1M26 675h1M997 675h1M52 738h1M738 971h1M348 997h1M675 997h1M351 998h1M672 998h1M417 1015h1M606 1015h1M483 1023h1M540 1023h1" />
<path stroke="rgba(190,217,240,0.2627450980392157)" d="M484 0h1M539 0h1M442 4h1M581 4h1M334 31h1M689 31h1M31 334h1M992 334h1M4 442h1M1019 442h1M0 484h1M1023 484h1M0 539h1M1023 539h1M4 581h1M1019 581h1M31 689h1M992 689h1M334 992h1M689 992h1M442 1019h1M581 1019h1M484 1023h1M539 1023h1" />
<path stroke="rgba(188,217,239,0.3137254901960784)" d="M485 0h1M538 0h1M429 6h1M594 6h1M234 81h1M942 234h1M6 429h1M1017 429h1M0 485h1M1023 485h1M0 538h1M1023 538h1M6 594h1M1017 594h1M81 789h1M789 942h1M429 1017h1M594 1017h1M485 1023h1M538 1023h1" />
<path stroke="rgba(189,219,239,0.36470588235294116)" d="M486 0h1M537 0h1M225 87h1M798 87h1M87 225h1M936 225h1M0 486h1M1023 486h1M0 537h1M1023 537h1M87 798h1M936 798h1M225 936h1M798 936h1M486 1023h1M537 1023h1" />
<path stroke="rgba(190,219,238,0.41568627450980394)" d="M487 0h1M536 0h1M451 3h1M572 3h1M158 141h1M865 141h1M141 158h1M882 158h1M3 451h1M1020 451h1M0 487h1M1023 487h1M0 536h1M1023 536h1M3 572h1M1020 572h1M141 865h1M882 865h1M158 882h1M865 882h1M451 1020h1M572 1020h1M487 1023h1M536 1023h1" />
<path stroke="rgba(188,218,240,0.4627450980392157)" d="M488 0h1M535 0h1M0 488h1M1023 488h1M0 535h1M1023 535h1M488 1023h1M535 1023h1" />
<path stroke="rgba(190,217,239,0.5058823529411764)" d="M489 0h1M534 0h1M332 32h1M294 48h1M729 48h1M48 294h1M975 294h1M0 489h1M1023 489h1M0 534h1M1023 534h1M48 729h1M975 729h1M294 975h1M729 975h1M489 1023h1M534 1023h1" />
<path stroke="rgba(189,219,239,0.5490196078431373)" d="M490 0h1M533 0h1M437 5h1M236 80h1M787 80h1M151 148h1M872 148h1M148 151h1M875 151h1M80 236h1M943 236h1M1018 437h1M0 490h1M1023 490h1M0 533h1M1023 533h1M5 586h1M80 787h1M943 787h1M148 872h1M875 872h1M151 875h1M872 875h1M236 943h1M787 943h1M586 1018h1M490 1023h1M533 1023h1" />
<path stroke="rgba(189,218,240,0.5882352941176471)" d="M491 0h1M365 21h1M658 21h1M221 90h1M802 90h1M207 100h1M816 100h1M100 207h1M923 207h1M90 221h1M933 221h1M21 365h1M1002 365h1M1023 491h1M0 532h1M21 658h1M1002 658h1M90 802h1M933 802h1M100 816h1M923 816h1M207 923h1M816 923h1M221 933h1M802 933h1M365 1002h1M658 1002h1M532 1023h1" />
<path stroke="rgba(190,218,239,0.6274509803921569)" d="M492 0h1M531 0h1M636 15h1M288 51h1M189 114h1M834 114h1M855 132h1M132 168h1M114 189h1M909 189h1M972 288h1M15 387h1M0 492h1M1023 492h1M0 531h1M1023 531h1M1008 636h1M51 735h1M114 834h1M909 834h1M891 855h1M168 891h1M189 909h1M834 909h1M735 972h1M387 1008h1M492 1023h1M531 1023h1" />
<path stroke="rgba(189,218,239,0.6666666666666666)" d="M493 0h1M530 0h1M310 41h1M713 41h1M256 68h1M767 68h1M68 256h1M955 256h1M41 310h1M982 310h1M0 493h1M1023 493h1M0 530h1M1023 530h1M41 713h1M982 713h1M68 767h1M955 767h1M256 955h1M767 955h1M310 982h1M713 982h1M493 1023h1M530 1023h1" />
<path stroke="rgba(189,218,239,0.7019607843137254)" d="M494 0h1M529 0h1M463 2h1M560 2h1M1021 463h1M0 494h1M1023 494h1M0 529h1M1023 529h1M494 1023h1M529 1023h1" />
<path stroke="rgba(190,218,239,0.7333333333333333)" d="M495 0h1M528 0h1M647 18h1M330 33h1M693 33h1M33 330h1M990 330h1M18 376h1M0 495h1M1023 495h1M0 528h1M1023 528h1M1005 647h1M33 693h1M990 693h1M330 990h1M693 990h1M495 1023h1M528 1023h1" />
<path stroke="rgba(190,218,239,0.7647058823529411)" d="M496 0h1M527 0h1M359 23h1M664 23h1M217 93h1M806 93h1M166 134h1M889 166h1M93 217h1M930 217h1M23 359h1M1000 359h1M0 496h1M1023 496h1M0 527h1M1023 527h1M23 664h1M1000 664h1M93 806h1M930 806h1M134 857h1M857 889h1M217 930h1M806 930h1M359 1000h1M664 1000h1M496 1023h1M527 1023h1" />
<path stroke="rgba(188,219,239,0.796078431372549)" d="M497 0h1M526 0h1M464 2h1M559 2h1M396 13h1M308 42h1M715 42h1M258 67h1M765 67h1M206 101h1M817 101h1M830 111h1M175 126h1M848 126h1M126 175h1M897 175h1M111 193h1M101 206h1M922 206h1M67 258h1M956 258h1M42 308h1M981 308h1M1010 396h1M2 464h1M1021 464h1M0 497h1M1023 497h1M0 526h1M1023 526h1M2 559h1M1021 559h1M13 627h1M42 715h1M981 715h1M67 765h1M956 765h1M101 817h1M922 817h1M912 830h1M126 848h1M897 848h1M175 897h1M848 897h1M193 912h1M206 922h1M817 922h1M258 956h1M765 956h1M308 981h1M715 981h1M627 1010h1M464 1021h1M559 1021h1M497 1023h1M526 1023h1" />
<path stroke="rgba(189,219,239,0.8235294117647058)" d="M498 0h1M525 0h1M165 135h1M858 135h1M135 165h1M888 165h1M0 498h1M1023 498h1M0 525h1M1023 525h1M135 858h1M888 858h1M165 888h1M858 888h1M498 1023h1M525 1023h1" />
<path stroke="rgba(189,218,238,0.8470588235294118)" d="M499 0h1M524 0h1M631 14h1M14 392h1M0 499h1M1023 499h1M0 524h1M1023 524h1M1009 631h1M392 1009h1M499 1023h1M524 1023h1" />
<path stroke="rgba(190,218,239,0.8705882352941177)" d="M500 0h1M523 0h1M388 15h1M635 15h1M15 388h1M1008 388h1M0 500h1M1023 500h1M0 523h1M1023 523h1M15 635h1M1008 635h1M388 1008h1M635 1008h1M500 1023h1M523 1023h1" />
<path stroke="rgba(189,218,239,0.8941176470588236)" d="M501 0h1M522 0h1M465 2h1M558 2h1M650 19h1M810 96h1M96 213h1M19 373h1M2 465h1M1021 465h1M0 501h1M1023 501h1M0 522h1M1023 522h1M2 558h1M1021 558h1M1004 650h1M927 810h1M213 927h1M373 1004h1M465 1021h1M558 1021h1M501 1023h1M522 1023h1" />
<path stroke="#bddaef" d="M502 0h20M480 1h64M467 2h90M456 3h112M448 4h128M441 5h142M434 6h156M428 7h168M421 8h182M416 9h192M411 10h202M406 11h212M401 12h222M397 13h230M393 14h238M389 15h246M385 16h254M381 17h262M377 18h270M374 19h276M370 20h284M367 21h290M364 22h296M360 23h304M357 24h310M354 25h316M351 26h322M348 27h328M345 28h334M342 29h340M339 30h346M337 31h350M334 32h356M331 33h362M329 34h366M326 35h372M323 36h378M321 37h382M319 38h386M316 39h392M314 40h396M311 41h402M309 42h406M306 43h412M304 44h416M302 45h420M300 46h424M298 47h428M296 48h432M294 49h436M291 50h442M289 51h446M287 52h450M285 53h454M283 54h458M281 55h462M279 56h466M277 57h470M275 58h474M273 59h478M272 60h480M270 61h484M268 62h488M266 63h492M264 64h496M262 65h500M261 66h502M259 67h506M257 68h510M255 69h514M254 70h516M252 71h520M250 72h524M249 73h526M247 74h530M245 75h534M244 76h536M242 77h540M240 78h543M239 79h546M237 80h550M236 81h552M234 82h556M233 83h558M231 84h562M230 85h564M228 86h568M227 87h570M225 88h574M224 89h576M222 90h580M221 91h582M219 92h586M218 93h588M216 94h592M215 95h594M214 96h596M212 97h600M211 98h602M210 99h604M208 100h608M207 101h610M205 102h614M204 103h616M203 104h618M202 105h620M200 106h624M199 107h626M198 108h628M196 109h632M195 110h634M194 111h636M193 112h638M191 113h642M190 114h644M189 115h646M188 116h648M186 117h652M185 118h654M184 119h656M183 120h658M182 121h660M180 122h664M179 123h666M178 124h668M177 125h670M176 126h672M175 127h674M174 128h676M172 129h680M171 130h682M170 131h684M169 132h686M168 133h688M167 134h690M166 135h692M165 136h694M164 137h696M163 138h698M161 139h702M160 140h704M159 141h706M158 142h708M157 143h710M156 144h712M155 145h714M154 146h716M153 147h718M152 148h720M151 149h722M150 150h724M149 151h726M148 152h728M147 153h730M146 154h732M145 155h734M144 156h736M143 157h738M142 158h740M141 159h742M140 160h744M139 161h746M139 162h746M138 163h748M137 164h750M136 165h752M135 166h754M134 167h756M133 168h758M132 169h760M131 170h762M130 171h764M129 172h766M129 173h766M128 174h768M127 175h770M126 176h772M125 177h774M124 178h776M123 179h778M122 180h780M122 181h780M121 182h782M120 183h784M119 184h786M118 185h788M117 186h790M117 187h790M116 188h792M115 189h794M114 190h796M113 191h798M113 192h798M112 193h800M111 194h802M110 195h804M109 196h806M109 197h806M108 198h808M107 199h810M106 200h812M106 201h812M105 202h814M104 203h816M103 204h818M102 205h820M102 206h820M101 207h822M100 208h824M100 209h824M99 210h826M98 211h828M97 212h830M97 213h830M96 214h832M95 215h834M94 216h836M94 217h836M93 218h838M92 219h840M92 220h840M91 221h842M90 222h844M90 223h844M89 224h846M88 225h848M88 226h848M87 227h850M86 228h852M86 229h852M85 230h854M84 231h856M84 232h856M83 233h858M82 234h860M82 235h860M81 236h862M80 237h864M80 238h864M79 239h866M79 240h867M78 241h868M77 242h870M77 243h870M76 244h872M75 245h874M75 246h874M74 247h876M74 248h876M73 249h878M72 250h880M72 251h880M71 252h882M71 253h882M70 254h884M69 255h886M69 256h251M363 256h42M448 256h43M533 256h107M683 256h42M768 256h187M68 257h252M363 257h42M448 257h43M533 257h107M683 257h42M768 257h188M68 258h252M363 258h42M448 258h43M533 258h107M683 258h42M768 258h188M67 259h253M363 259h42M448 259h43M533 259h107M683 259h42M768 259h189M67 260h253M363 260h42M448 260h43M533 260h107M683 260h42M768 260h189M66 261h254M363 261h42M448 261h43M533 261h107M683 261h42M768 261h190M65 262h255M363 262h42M448 262h43M533 262h107M683 262h42M768 262h191M65 263h255M363 263h42M448 263h43M533 263h107M683 263h42M768 263h191M64 264h256M363 264h42M448 264h43M533 264h107M683 264h42M768 264h192M64 265h256M363 265h42M448 265h43M533 265h107M683 265h42M768 265h192M63 266h257M363 266h42M448 266h43M533 266h107M683 266h42M768 266h193M63 267h257M363 267h42M448 267h43M533 267h107M683 267h42M768 267h193M62 268h258M363 268h42M448 268h43M533 268h107M683 268h42M768 268h194M62 269h258M363 269h42M448 269h43M533 269h107M683 269h42M768 269h194M61 270h259M363 270h42M448 270h43M533 270h107M683 270h42M768 270h195M61 271h259M363 271h42M448 271h43M533 271h107M683 271h42M768 271h195M60 272h260M363 272h42M448 272h43M533 272h107M683 272h42M768 272h196M59 273h261M363 273h42M448 273h43M533 273h107M683 273h42M768 273h197M59 274h261M363 274h42M448 274h43M533 274h107M683 274h42M768 274h197M58 275h262M363 275h42M448 275h43M533 275h107M683 275h42M768 275h198M58 276h262M363 276h42M448 276h43M533 276h107M683 276h42M768 276h198M57 277h263M363 277h42M448 277h43M533 277h107M683 277h42M768 277h199M57 278h263M363 278h42M448 278h43M533 278h107M683 278h42M768 278h199M56 279h264M363 279h42M448 279h43M533 279h107M683 279h42M768 279h200M56 280h264M363 280h42M448 280h43M533 280h107M683 280h42M768 280h200M55 281h265M363 281h42M448 281h43M533 281h107M683 281h42M768 281h201M55 282h265M363 282h42M448 282h43M533 282h107M683 282h42M768 282h201M54 283h266M363 283h42M448 283h43M533 283h107M683 283h42M768 283h202M54 284h266M363 284h42M448 284h43M533 284h107M683 284h42M768 284h202M53 285h267M363 285h42M448 285h43M533 285h107M683 285h42M768 285h203M53 286h267M363 286h42M448 286h43M533 286h107M683 286h42M768 286h203M52 287h268M363 287h42M448 287h43M533 287h107M683 287h42M768 287h204M52 288h268M363 288h42M448 288h43M533 288h107M683 288h42M768 288h204M51 289h269M363 289h42M448 289h43M533 289h107M683 289h42M768 289h205M51 290h269M363 290h42M448 290h43M533 290h107M683 290h42M768 290h205M50 291h270M363 291h42M448 291h43M533 291h107M683 291h42M768 291h206M50 292h270M363 292h42M448 292h43M533 292h107M683 292h42M768 292h206M50 293h270M363 293h42M448 293h43M533 293h107M683 293h42M768 293h206M49 294h271M363 294h42M448 294h43M533 294h107M683 294h42M768 294h207M49 295h271M363 295h42M448 295h43M533 295h107M683 295h42M768 295h207M48 296h272M363 296h42M448 296h43M533 296h107M683 296h42M768 296h208M48 297h272M363 297h42M448 297h43M533 297h107M683 297h42M768 297h208M47 298h273M363 298h42M448 298h43M533 298h107M683 298h42M768 298h209M47 299h230M768 299h209M46 300h231M768 300h210M46 301h231M768 301h210M45 302h232M768 302h211M45 303h232M768 303h211M44 304h233M768 304h212M44 305h233M768 305h212M43 306h234M768 306h213M43 307h234M768 307h213M43 308h234M768 308h213M42 309h235M768 309h214M42 310h235M768 310h214M41 311h236M768 311h215M41 312h236M768 312h215M41 313h236M768 313h215M40 314h237M768 314h216M40 315h237M768 315h216M39 316h238M768 316h217M39 317h238M768 317h217M39 318h238M768 318h217M38 319h239M768 319h218M38 320h239M768 320h218M37 321h240M768 321h219M37 322h240M768 322h219M36 323h241M768 323h220M36 324h241M768 324h220M36 325h241M768 325h220M35 326h242M768 326h221M35 327h242M768 327h221M35 328h242M768 328h221M34 329h243M768 329h222M34 330h243M768 330h222M33 331h244M768 331h223M33 332h244M768 332h223M33 333h244M768 333h223M32 334h245M768 334h224M32 335h245M768 335h224M32 336h245M768 336h224M31 337h246M768 337h225M31 338h246M768 338h225M30 339h247M768 339h226M30 340h247M768 340h226M30 341h205M768 341h226M29 342h206M768 342h227M29 343h206M768 343h227M29 344h206M768 344h227M28 345h207M768 345h228M28 346h207M768 346h228M28 347h207M768 347h228M27 348h208M768 348h229M27 349h208M768 349h229M27 350h208M768 350h229M26 351h209M768 351h230M26 352h209M768 352h230M26 353h209M768 353h230M25 354h210M768 354h231M25 355h210M768 355h231M25 356h210M768 356h231M24 357h211M768 357h232M24 358h211M768 358h232M24 359h211M768 359h232M23 360h212M768 360h233M23 361h212M768 361h233M23 362h212M768 362h233M23 363h212M768 363h233M22 364h213M768 364h234M22 365h213M768 365h234M22 366h213M768 366h234M21 367h214M768 367h235M21 368h214M768 368h235M21 369h214M768 369h235M20 370h215M768 370h236M20 371h215M768 371h236M20 372h215M768 372h236M20 373h215M768 373h236M19 374h216M768 374h237M19 375h216M768 375h237M19 376h216M768 376h237M18 377h217M768 377h238M18 378h217M768 378h238M18 379h217M768 379h238M18 380h217M768 380h238M17 381h218M768 381h239M17 382h218M768 382h239M17 383h218M768 383h239M17 384h218M768 384h239M16 385h219M768 385h240M16 386h219M768 386h240M16 387h219M768 387h240M16 388h219M768 388h240M15 389h220M768 389h241M15 390h220M768 390h241M15 391h220M768 391h241M15 392h220M768 392h241M14 393h221M768 393h242M14 394h221M768 394h242M14 395h221M768 395h242M14 396h221M768 396h242M13 397h222M768 397h243M13 398h222M768 398h243M13 399h222M768 399h243M13 400h222M768 400h243M12 401h223M768 401h244M12 402h223M768 402h244M12 403h223M768 403h244M12 404h223M768 404h244M12 405h223M768 405h244M11 406h224M768 406h245M11 407h224M768 407h245M11 408h224M768 408h245M11 409h224M768 409h245M11 410h224M768 410h245M10 411h225M768 411h246M10 412h225M768 412h246M10 413h225M768 413h246M10 414h225M768 414h246M10 415h225M768 415h246M9 416h226M768 416h247M9 417h226M768 417h247M9 418h226M768 418h247M9 419h226M768 419h247M9 420h226M768 420h247M8 421h227M768 421h248M8 422h227M768 422h248M8 423h227M768 423h248M8 424h227M768 424h248M8 425h227M768 425h248M8 426h227M768 426h248M8 427h227M768 427h248M7 428h228M768 428h249M7 429h228M768 429h249M7 430h228M768 430h249M7 431h228M768 431h249M7 432h228M768 432h249M7 433h228M768 433h249M6 434h229M768 434h250M6 435h229M768 435h250M6 436h229M768 436h250M6 437h229M768 437h250M6 438h229M768 438h250M6 439h229M768 439h250M6 440h229M768 440h250M5 441h230M768 441h251M5 442h230M768 442h251M5 443h230M768 443h251M5 444h230M768 444h251M5 445h230M768 445h251M5 446h230M768 446h251M5 447h230M768 447h251M4 448h231M768 448h252M4 449h231M768 449h252M4 450h231M768 450h252M4 451h231M768 451h252M4 452h231M768 452h252M4 453h231M768 453h252M4 454h231M768 454h252M4 455h231M768 455h252M3 456h232M768 456h253M3 457h232M768 457h253M3 458h232M768 458h253M3 459h232M768 459h253M3 460h232M768 460h253M3 461h232M768 461h253M3 462h232M768 462h253M3 463h232M768 463h253M3 464h232M768 464h253M3 465h232M768 465h253M3 466h232M768 466h253M2 467h233M768 467h254M2 468h233M768 468h254M2 469h233M768 469h254M2 470h233M768 470h254M2 471h233M768 471h254M2 472h233M768 472h254M2 473h233M768 473h254M2 474h233M768 474h254M2 475h233M768 475h254M2 476h233M768 476h254M2 477h233M768 477h254M2 478h233M768 478h254M2 479h233M768 479h254M1 480h234M768 480h255M1 481h234M768 481h255M1 482h234M768 482h255M1 483h234M768 483h255M1 484h234M768 484h255M1 485h234M768 485h255M1 486h234M768 486h255M1 487h234M768 487h255M1 488h234M768 488h255M1 489h234M768 489h255M1 490h234M768 490h255M1 491h234M768 491h255M1 492h234M768 492h255M1 493h234M768 493h255M1 494h234M768 494h255M1 495h234M768 495h255M1 496h234M768 496h255M1 497h234M768 497h255M1 498h234M768 498h255M1 499h234M768 499h255M1 500h234M768 500h255M1 501h234M768 501h255M0 502h235M768 502h256M0 503h235M768 503h256M0 504h235M768 504h256M0 505h235M768 505h256M0 506h235M768 506h256M0 507h235M768 507h256M0 508h235M768 508h256M0 509h235M768 509h256M0 510h235M768 510h256M0 511h235M768 511h256M0 512h235M768 512h256M0 513h235M768 513h256M0 514h235M768 514h256M0 515h235M768 515h256M0 516h235M768 516h256M0 517h235M768 517h256M0 518h235M768 518h256M0 519h235M768 519h256M0 520h235M768 520h256M0 521h235M768 521h256M1 522h234M768 522h255M1 523h234M768 523h255M1 524h234M768 524h255M1 525h234M768 525h255M1 526h234M768 526h255M1 527h234M768 527h255M1 528h234M768 528h255M1 529h234M768 529h255M1 530h234M768 530h255M1 531h234M768 531h255M1 532h234M768 532h255M1 533h234M768 533h255M1 534h234M768 534h255M1 535h234M768 535h255M1 536h234M768 536h255M1 537h234M768 537h255M1 538h234M768 538h255M1 539h234M768 539h255M1 540h234M768 540h255M1 541h234M768 541h255M1 542h234M768 542h255M1 543h234M768 543h255M2 544h233M768 544h254M2 545h233M768 545h254M2 546h233M768 546h254M2 547h233M768 547h254M2 548h233M768 548h254M2 549h233M768 549h254M2 550h233M768 550h254M2 551h233M768 551h254M2 552h233M768 552h254M2 553h233M768 553h254M2 554h233M768 554h254M2 555h233M768 555h254M2 556h233M768 556h254M3 557h232M768 557h253M3 558h232M768 558h253M3 559h232M768 559h253M3 560h232M768 560h253M3 561h232M768 561h253M3 562h232M768 562h253M3 563h232M768 563h253M3 564h232M768 564h253M3 565h232M768 565h253M3 566h232M768 566h253M3 567h232M768 567h253M4 568h231M768 568h252M4 569h231M768 569h252M4 570h231M768 570h252M4 571h231M768 571h252M4 572h231M768 572h252M4 573h231M768 573h252M4 574h231M768 574h252M4 575h231M768 575h252M5 576h230M768 576h251M5 577h230M768 577h251M5 578h230M768 578h251M5 579h230M768 579h251M5 580h230M768 580h251M5 581h230M768 581h251M5 582h230M768 582h251M6 583h229M768 583h250M6 584h229M768 584h250M6 585h229M768 585h250M6 586h229M768 586h250M6 587h229M768 587h250M6 588h229M768 588h250M6 589h229M768 589h250M7 590h228M768 590h249M7 591h228M768 591h249M7 592h228M768 592h249M7 593h228M768 593h249M7 594h228M768 594h249M7 595h228M768 595h249M8 596h227M768 596h248M8 597h227M768 597h248M8 598h227M768 598h248M8 599h227M768 599h248M8 600h227M768 600h248M8 601h227M768 601h248M8 602h227M768 602h248M9 603h226M768 603h247M9 604h226M768 604h247M9 605h226M768 605h247M9 606h226M768 606h247M9 607h226M768 607h247M10 608h225M768 608h246M10 609h225M768 609h246M10 610h225M768 610h246M10 611h225M768 611h246M10 612h225M768 612h246M11 613h224M768 613h245M11 614h224M768 614h245M11 615h224M768 615h245M11 616h224M768 616h245M11 617h224M768 617h245M12 618h223M768 618h244M12 619h223M768 619h244M12 620h223M768 620h244M12 621h223M768 621h244M12 622h223M768 622h244M13 623h222M768 623h243M13 624h222M768 624h243M13 625h222M768 625h243M13 626h222M768 626h243M14 627h221M768 627h242M14 628h221M768 628h242M14 629h221M768 629h242M14 630h221M768 630h242M15 631h220M768 631h241M15 632h220M768 632h241M15 633h220M768 633h241M15 634h220M768 634h241M16 635h219M768 635h240M16 636h219M768 636h240M16 637h219M768 637h240M16 638h219M768 638h240M17 639h218M768 639h239M17 640h218M768 640h239M17 641h218M768 641h239M17 642h218M768 642h239M18 643h217M768 643h238M18 644h217M768 644h238M18 645h217M768 645h238M18 646h217M768 646h238M19 647h216M768 647h237M19 648h216M768 648h237M19 649h216M768 649h237M20 650h215M768 650h236M20 651h215M768 651h236M20 652h215M768 652h236M20 653h215M768 653h236M21 654h214M768 654h235M21 655h214M768 655h235M21 656h214M768 656h235M22 657h213M768 657h234M22 658h213M768 658h234M22 659h213M768 659h234M23 660h212M768 660h233M23 661h212M725 661h276M23 662h212M725 662h276M23 663h212M725 663h276M24 664h211M725 664h275M24 665h211M725 665h275M24 666h211M725 666h275M25 667h210M725 667h274M25 668h210M725 668h274M25 669h210M725 669h274M26 670h209M725 670h273M26 671h209M725 671h273M26 672h209M725 672h273M27 673h208M725 673h272M27 674h208M725 674h272M27 675h208M725 675h272M28 676h207M725 676h271M28 677h207M725 677h271M28 678h207M725 678h271M29 679h206M725 679h270M29 680h206M725 680h270M29 681h206M725 681h270M30 682h205M725 682h269M30 683h205M725 683h22M768 683h226M30 684h205M725 684h22M768 684h226M31 685h204M725 685h22M768 685h225M31 686h204M725 686h22M768 686h225M32 687h203M725 687h22M768 687h224M32 688h203M725 688h22M768 688h224M32 689h203M725 689h22M768 689h224M33 690h202M725 690h22M768 690h223M33 691h202M725 691h22M768 691h223M33 692h202M725 692h22M768 692h223M34 693h201M725 693h22M768 693h222M34 694h201M725 694h22M768 694h222M35 695h200M725 695h22M768 695h221M35 696h200M725 696h22M768 696h221M35 697h200M725 697h22M768 697h221M36 698h199M725 698h22M768 698h220M36 699h199M725 699h22M768 699h220M36 700h199M725 700h22M768 700h220M37 701h198M725 701h22M768 701h219M37 702h198M725 702h22M768 702h219M38 703h197M725 703h22M768 703h218M38 704h948M39 705h946M39 706h946M39 707h946M40 708h944M40 709h944M41 710h942M41 711h942M41 712h942M42 713h940M42 714h940M43 715h938M43 716h938M43 717h938M44 718h936M44 719h936M45 720h934M45 721h934M46 722h932M46 723h932M47 724h930M47 725h930M48 726h928M48 727h928M49 728h926M49 729h926M50 730h924M50 731h924M50 732h924M51 733h922M51 734h922M52 735h920M52 736h920M53 737h918M53 738h918M54 739h916M54 740h916M55 741h914M55 742h914M56 743h912M56 744h912M57 745h910M57 746h910M58 747h908M58 748h908M59 749h906M59 750h906M60 751h904M61 752h902M61 753h902M62 754h900M62 755h900M63 756h898M63 757h898M64 758h896M64 759h896M65 760h894M65 761h894M66 762h892M67 763h890M67 764h890M68 765h888M68 766h888M69 767h886M69 768h886M70 769h884M71 770h882M71 771h882M72 772h880M72 773h880M73 774h878M74 775h876M74 776h876M75 777h874M75 778h874M76 779h872M77 780h870M77 781h870M78 782h868M78 783h867M79 784h866M80 785h864M80 786h864M81 787h862M82 788h860M82 789h860M83 790h858M84 791h856M84 792h856M85 793h854M86 794h852M86 795h852M87 796h850M88 797h848M88 798h848M89 799h846M90 800h844M90 801h844M91 802h842M92 803h840M92 804h840M93 805h838M94 806h836M94 807h836M95 808h834M96 809h832M97 810h830M97 811h830M98 812h828M99 813h826M100 814h824M100 815h824M101 816h822M102 817h820M102 818h820M103 819h818M104 820h816M105 821h814M106 822h812M106 823h812M107 824h810M108 825h808M109 826h806M109 827h806M110 828h804M111 829h802M112 830h800M113 831h798M113 832h798M114 833h796M115 834h794M116 835h792M117 836h790M117 837h790M118 838h788M119 839h786M120 840h784M121 841h782M122 842h780M122 843h780M123 844h778M124 845h776M125 846h774M126 847h772M127 848h770M128 849h768M129 850h766M129 851h766M130 852h764M131 853h762M132 854h760M133 855h758M134 856h756M135 857h754M136 858h752M137 859h750M138 860h748M139 861h746M139 862h746M140 863h744M141 864h742M142 865h740M143 866h738M144 867h736M145 868h734M146 869h732M147 870h730M148 871h728M149 872h726M150 873h724M151 874h722M152 875h720M153 876h718M154 877h716M155 878h714M156 879h712M157 880h710M158 881h708M159 882h706M160 883h704M161 884h702M163 885h698M164 886h696M165 887h694M166 888h692M167 889h690M168 890h688M169 891h686M170 892h684M171 893h682M172 894h680M174 895h676M175 896h674M176 897h672M177 898h670M178 899h668M179 900h666M180 901h664M182 902h660M183 903h658M184 904h656M185 905h654M186 906h652M188 907h648M189 908h646M190 909h644M191 910h642M193 911h638M194 912h636M195 913h634M196 914h632M198 915h628M199 916h626M200 917h624M202 918h620M203 919h618M204 920h616M205 921h614M207 922h610M208 923h608M210 924h604M211 925h602M212 926h600M214 927h596M215 928h594M216 929h592M218 930h588M219 931h586M221 932h582M222 933h580M224 934h576M225 935h574M227 936h570M228 937h568M230 938h564M231 939h562M233 940h558M234 941h556M236 942h552M237 943h550M239 944h546M241 945h543M242 946h540M244 947h536M245 948h534M247 949h530M249 950h526M250 951h524M252 952h520M254 953h516M255 954h514M257 955h510M259 956h506M261 957h502M262 958h500M264 959h496M266 960h492M268 961h488M270 962h484M272 963h480M273 964h478M275 965h474M277 966h470M279 967h466M281 968h462M283 969h458M285 970h454M287 971h450M289 972h446M291 973h442M294 974h436M296 975h432M298 976h428M300 977h424M302 978h420M304 979h416M306 980h412M309 981h406M311 982h402M314 983h396M316 984h392M319 985h386M321 986h382M323 987h378M326 988h372M329 989h366M331 990h362M334 991h356M337 992h350M339 993h346M342 994h340M345 995h334M348 996h328M351 997h322M354 998h316M357 999h310M360 1000h304M364 1001h296M367 1002h290M370 1003h284M374 1004h276M377 1005h270M381 1006h262M385 1007h254M389 1008h246M393 1009h238M397 1010h230M401 1011h222M406 1012h212M411 1013h202M416 1014h192M421 1015h182M428 1016h168M434 1017h156M441 1018h142M448 1019h128M456 1020h112M467 1021h90M480 1022h64M502 1023h20" />
<path stroke="rgba(189,218,240,0.592156862745098)" d="M532 0h1M0 491h1M1023 532h1M491 1023h1" />
<path stroke="rgba(190,216,242,0.15294117647058825)" d="M541 0h1M595 6h1M331 32h1M692 32h1M32 331h1M991 331h1M6 428h1M0 482h1M1023 541h1M1017 595h1M32 692h1M991 692h1M331 991h1M692 991h1M428 1017h1M482 1023h1" />
<path stroke="rgba(195,225,240,0.06666666666666667)" d="M467 1h1M556 1h1M1 467h1M1022 467h1M1 556h1M1022 556h1M467 1022h1M556 1022h1" />
<path stroke="rgba(187,217,238,0.23529411764705882)" d="M469 1h1M554 1h1M326 34h1M697 34h1M34 326h1M989 326h1M1 469h1M1022 469h1M1 554h1M1022 554h1M34 697h1M989 697h1M326 989h1M697 989h1M469 1022h1M554 1022h1" />
<path stroke="rgba(189,217,239,0.3176470588235294)" d="M470 1h1M553 1h1M172 128h1M851 128h1M128 172h1M895 172h1M1 470h1M1022 470h1M1 553h1M1022 553h1M128 851h1M895 851h1M172 895h1M851 895h1M470 1022h1M553 1022h1" />
<path stroke="rgba(189,217,240,0.396078431372549)" d="M471 1h1M552 1h1M307 42h1M716 42h1M42 307h1M981 307h1M1 471h1M1022 471h1M1 552h1M1022 552h1M42 716h1M981 716h1M307 981h1M716 981h1M471 1022h1M552 1022h1" />
<path stroke="rgba(190,217,238,0.4745098039215686)" d="M472 1h1M551 1h1M593 6h1M156 143h1M867 143h1M143 156h1M880 156h1M6 430h1M1 472h1M1022 472h1M1 551h1M1022 551h1M1017 593h1M143 867h1M880 867h1M156 880h1M867 880h1M430 1017h1M472 1022h1M551 1022h1" />
<path stroke="rgba(190,219,239,0.5529411764705883)" d="M473 1h1M550 1h1M586 5h1M244 75h1M779 75h1M75 244h1M948 244h1M5 437h1M1 473h1M1022 473h1M1 550h1M1022 550h1M1018 586h1M75 779h1M948 779h1M244 948h1M779 948h1M437 1018h1M473 1022h1M550 1022h1" />
<path stroke="rgba(189,218,239,0.6235294117647059)" d="M474 1h1M549 1h1M372 19h1M651 19h1M19 372h1M1004 372h1M1 474h1M1022 474h1M1 549h1M1022 549h1M19 651h1M1004 651h1M372 1004h1M651 1004h1M474 1022h1M549 1022h1" />
<path stroke="rgba(189,218,239,0.6980392156862745)" d="M475 1h1M548 1h1M585 5h1M176 125h1M847 125h1M167 133h1M856 133h1M133 167h1M890 167h1M125 176h1M898 176h1M5 438h1M2 463h1M1 475h1M1022 475h1M1 548h1M1022 548h1M2 560h1M1021 560h1M1018 585h1M125 847h1M898 847h1M133 856h1M890 856h1M167 890h1M856 890h1M176 898h1M847 898h1M438 1018h1M463 1021h1M560 1021h1M475 1022h1M548 1022h1" />
<path stroke="rgba(189,219,239,0.7686274509803922)" d="M476 1h1M547 1h1M315 39h1M708 39h1M39 315h1M984 315h1M1 476h1M1022 476h1M1 547h1M1022 547h1M39 708h1M984 708h1M315 984h1M708 984h1M476 1022h1M547 1022h1" />
<path stroke="rgba(189,218,239,0.8352941176470589)" d="M477 1h1M546 1h1M347 27h1M676 27h1M320 37h1M703 37h1M182 120h1M841 120h1M120 182h1M903 182h1M37 320h1M986 320h1M27 347h1M996 347h1M1 477h1M1022 477h1M1 546h1M1022 546h1M27 676h1M996 676h1M37 703h1M986 703h1M120 841h1M903 841h1M182 903h1M841 903h1M320 986h1M703 986h1M347 996h1M676 996h1M477 1022h1M546 1022h1" />
<path stroke="rgba(188,218,239,0.9019607843137255)" d="M478 1h1M545 1h1M1 478h1M1022 478h1M1 545h1M1022 545h1M478 1022h1M545 1022h1" />
<path stroke="rgba(189,218,238,0.9686274509803922)" d="M479 1h1M544 1h1M363 22h1M660 22h1M209 99h1M924 209h1M22 363h1M1001 363h1M1 479h1M1022 479h1M1 544h1M1022 544h1M22 660h1M1001 660h1M99 814h1M814 924h1M363 1001h1M660 1001h1M479 1022h1M544 1022h1" />
<path stroke="rgba(190,220,240,0.2)" d="M458 2h1M565 2h1M367 20h1M656 20h1M205 101h1M818 101h1M163 136h1M860 136h1M136 163h1M887 163h1M101 205h1M922 205h1M20 367h1M1003 367h1M2 458h1M1021 458h1M2 565h1M1021 565h1M20 656h1M1003 656h1M101 818h1M922 818h1M136 860h1M887 860h1M163 887h1M860 887h1M205 922h1M818 922h1M367 1003h1M656 1003h1M458 1021h1M565 1021h1" />
<path stroke="rgba(189,219,238,0.30196078431372547)" d="M459 2h1M564 2h1M364 21h1M659 21h1M21 364h1M1002 364h1M2 459h1M1021 459h1M2 564h1M1021 564h1M21 659h1M1002 659h1M364 1002h1M659 1002h1M459 1021h1M564 1021h1" />
<path stroke="rgba(188,218,240,0.403921568627451)" d="M460 2h1M563 2h1M436 5h1M587 5h1M268 61h1M755 61h1M247 73h1M776 73h1M73 247h1M950 247h1M61 268h1M962 268h1M5 436h1M1018 436h1M2 460h1M1021 460h1M2 563h1M1021 563h1M5 587h1M1018 587h1M61 755h1M962 755h1M73 776h1M950 776h1M247 950h1M776 950h1M268 962h1M755 962h1M436 1018h1M587 1018h1M460 1021h1M563 1021h1" />
<path stroke="rgba(189,217,239,0.5019607843137255)" d="M461 2h1M562 2h1M691 32h1M32 332h1M991 332h1M2 461h1M1021 461h1M2 562h1M1021 562h1M32 691h1M991 691h1M332 991h1M691 991h1M461 1021h1M562 1021h1" />
<path stroke="rgba(189,219,238,0.6039215686274509)" d="M462 2h1M561 2h1M1021 462h1" />
<path stroke="rgba(189,218,239,0.9921568627450981)" d="M466 2h1M557 2h1M192 112h1M831 112h1M112 192h1M911 192h1M2 466h1M1021 466h1M2 557h1M1021 557h1M112 831h1M911 831h1M192 911h1M831 911h1M466 1021h1M557 1021h1" />
<path stroke="rgba(196,216,235,0.050980392156862744)" d="M448 3h1M575 3h1M3 448h1M1020 448h1M3 575h1M1020 575h1M448 1020h1M575 1020h1" />
<path stroke="rgba(191,220,238,0.17254901960784313)" d="M449 3h1M192 111h1M831 111h1M111 192h1M912 192h1M1020 449h1M3 574h1M1020 574h1M111 831h1M912 831h1M192 912h1M831 912h1M574 1020h1" />
<path stroke="rgba(190,218,238,0.29411764705882354)" d="M450 3h1M573 3h1M645 17h1M300 45h1M723 45h1M45 300h1M978 300h1M17 378h1M3 450h1M1020 450h1M3 573h1M1020 573h1M1006 645h1M45 723h1M978 723h1M300 978h1M723 978h1M378 1006h1M450 1020h1M573 1020h1" />
<path stroke="rgba(189,217,240,0.5294117647058824)" d="M452 3h1M444 4h1M312 40h1M261 65h1M762 65h1M254 69h1M769 69h1M870 146h1M146 153h1M69 254h1M954 254h1M65 261h1M958 261h1M983 312h1M1019 444h1M1020 452h1M3 571h1M4 579h1M40 711h1M65 762h1M958 762h1M69 769h1M954 769h1M877 870h1M153 877h1M254 954h1M261 958h1M762 958h1M711 983h1M579 1019h1M571 1020h1" />
<path stroke="rgba(189,218,240,0.6470588235294118)" d="M453 3h1M570 3h1M3 453h1M1020 453h1M3 570h1M1020 570h1M453 1020h1M570 1020h1" />
<path stroke="rgba(189,218,239,0.7607843137254902)" d="M454 3h1M569 3h1M369 20h1M341 29h1M682 29h1M857 134h1M134 166h1M29 341h1M994 341h1M1003 369h1M3 454h1M1020 454h1M3 569h1M1020 569h1M20 654h1M29 682h1M994 682h1M889 857h1M166 889h1M341 994h1M682 994h1M369 1003h1M654 1003h1M454 1020h1M569 1020h1" />
<path stroke="rgba(189,218,239,0.9098039215686274)" d="M455 3h1M568 3h1M763 66h1M197 108h1M915 197h1M66 260h1M3 455h1M1020 455h1M3 568h1M1020 568h1M957 763h1M108 826h1M826 915h1M260 957h1M455 1020h1M568 1020h1" />
<path stroke="rgba(189,218,238,0.5333333333333333)" d="M571 3h1M579 4h1M711 40h1M211 97h1M812 97h1M153 146h1M877 153h1M97 211h1M926 211h1M40 312h1M4 444h1M3 452h1M1020 571h1M1019 579h1M983 711h1M97 812h1M926 812h1M146 870h1M870 877h1M211 926h1M812 926h1M769 954h1M312 983h1M444 1019h1M452 1020h1" />
<path stroke="rgba(187,215,238,0.17647058823529413)" d="M574 3h1M3 449h1M449 1020h1" />
<path stroke="rgba(191,215,239,0.12549019607843137)" d="M441 4h1M601 7h1M291 49h1M826 107h1M107 197h1M974 291h1M7 422h1M1019 441h1M4 582h1M1016 601h1M49 732h1M916 826h1M197 916h1M732 974h1M422 1016h1M582 1019h1" />
<path stroke="rgba(190,217,240,0.4)" d="M443 4h1M580 4h1M204 102h1M819 102h1M171 129h1M852 129h1M129 171h1M894 171h1M102 204h1M921 204h1M4 443h1M1019 443h1M4 580h1M1019 580h1M102 819h1M921 819h1M129 852h1M894 852h1M171 894h1M852 894h1M204 921h1M819 921h1M443 1019h1M580 1019h1" />
<path stroke="rgba(189,217,238,0.6627450980392157)" d="M445 4h1M578 4h1M284 53h1M739 53h1M282 54h1M741 54h1M214 95h1M809 95h1M95 214h1M928 214h1M54 282h1M969 282h1M53 284h1M970 284h1M4 445h1M1019 445h1M4 578h1M1019 578h1M53 739h1M970 739h1M54 741h1M969 741h1M95 809h1M928 809h1M214 928h1M809 928h1M282 969h1M741 969h1M284 970h1M739 970h1M445 1019h1M578 1019h1" />
<path stroke="rgba(189,218,239,0.792156862745098)" d="M446 4h1M577 4h1M627 13h1M299 46h1M724 46h1M202 104h1M821 104h1M193 111h1M912 193h1M104 202h1M919 202h1M46 299h1M13 396h1M4 446h1M1019 446h1M4 577h1M1019 577h1M1010 627h1M46 724h1M977 724h1M104 821h1M919 821h1M111 830h1M830 912h1M202 919h1M821 919h1M299 977h1M724 977h1M396 1010h1M446 1019h1M577 1019h1" />
<path stroke="rgba(189,218,239,0.9176470588235294)" d="M447 4h1M576 4h1M775 73h1M73 248h1M4 447h1M1019 447h1M4 576h1M1019 576h1M950 775h1M248 950h1M447 1019h1M576 1019h1" />
<path stroke="rgba(185,216,240,0.12941176470588237)" d="M582 4h1M732 49h1M49 291h1M4 441h1M1019 582h1M974 732h1M291 974h1M441 1019h1" />
<path stroke="rgba(189,217,236,0.10588235294117647)" d="M434 5h1M589 5h1M381 16h1M304 43h1M719 43h1M43 304h1M980 304h1M5 434h1M1018 434h1M5 589h1M1018 589h1M43 719h1M980 719h1M304 980h1M719 980h1M434 1018h1M589 1018h1" />
<path stroke="rgba(188,220,239,0.2549019607843137)" d="M435 5h1M1018 435h1M5 588h1M588 1018h1" />
<path stroke="rgba(189,218,239,0.6941176470588235)" d="M438 5h1M338 30h1M685 30h1M30 338h1M993 338h1M1018 438h1M5 585h1M30 685h1M993 685h1M338 993h1M685 993h1M585 1018h1" />
<path stroke="rgba(189,218,240,0.8392156862745098)" d="M439 5h1M584 5h1M405 11h1M618 11h1M11 405h1M1012 405h1M5 439h1M1018 439h1M5 584h1M1018 584h1M11 618h1M1012 618h1M405 1012h1M618 1012h1M439 1018h1M584 1018h1" />
<path stroke="rgba(189,218,239,0.9803921568627451)" d="M440 5h1M583 5h1M201 105h1M822 105h1M173 128h1M162 138h1M861 138h1M138 162h1M885 162h1M895 173h1M105 201h1M918 201h1M5 440h1M1018 440h1M5 583h1M1018 583h1M105 822h1M918 822h1M128 850h1M138 861h1M885 861h1M162 885h1M861 885h1M850 895h1M201 918h1M822 918h1M440 1018h1M583 1018h1" />
<path stroke="rgba(189,216,240,0.25882352941176473)" d="M588 5h1M321 36h1M702 36h1M36 321h1M987 321h1M5 435h1M1018 588h1M36 702h1M987 702h1M321 987h1M702 987h1M435 1018h1" />
<path stroke="rgba(189,219,238,0.47058823529411764)" d="M430 6h1M599 7h1M375 18h1M648 18h1M270 60h1M753 60h1M60 270h1M963 270h1M18 375h1M1005 375h1M7 424h1M1017 430h1M6 593h1M1016 599h1M18 648h1M1005 648h1M60 753h1M963 753h1M270 963h1M753 963h1M375 1005h1M648 1005h1M424 1016h1M593 1017h1" />
<path stroke="rgba(188,219,239,0.6313725490196078)" d="M431 6h1M592 6h1M414 9h1M609 9h1M387 15h1M322 36h1M701 36h1M735 51h1M263 64h1M760 64h1M224 88h1M799 88h1M194 110h1M829 110h1M168 132h1M891 168h1M110 194h1M913 194h1M88 224h1M935 224h1M64 263h1M959 263h1M51 288h1M36 322h1M987 322h1M1008 387h1M9 414h1M1014 414h1M6 431h1M1017 431h1M6 592h1M1017 592h1M9 609h1M1014 609h1M15 636h1M36 701h1M987 701h1M972 735h1M64 760h1M959 760h1M88 799h1M935 799h1M110 829h1M913 829h1M132 855h1M855 891h1M194 913h1M829 913h1M224 935h1M799 935h1M263 959h1M760 959h1M288 972h1M322 987h1M701 987h1M636 1008h1M414 1014h1M609 1014h1M431 1017h1M592 1017h1" />
<path stroke="rgba(189,218,239,0.788235294117647)" d="M432 6h1M591 6h1M977 299h1M6 432h1M1017 432h1M6 591h1M1017 591h1M432 1017h1M591 1017h1" />
<path stroke="rgba(189,218,239,0.9411764705882353)" d="M433 6h1M590 6h1M271 60h1M752 60h1M60 271h1M963 271h1M6 433h1M1017 433h1M6 590h1M1017 590h1M60 752h1M963 752h1M271 963h1M752 963h1M433 1017h1M590 1017h1" />
<path stroke="rgba(189,222,239,0.12156862745098039)" d="M422 7h1M197 107h1M916 197h1M1016 422h1M7 601h1M107 826h1M826 916h1M601 1016h1" />
<path stroke="rgba(188,218,238,0.2980392156862745)" d="M423 7h1M600 7h1M378 17h1M257 67h1M766 67h1M196 108h1M827 108h1M161 138h1M862 138h1M138 161h1M885 161h1M108 196h1M915 196h1M67 257h1M956 257h1M1006 378h1M7 423h1M1016 423h1M7 600h1M1016 600h1M17 645h1M67 766h1M956 766h1M108 827h1M915 827h1M138 862h1M885 862h1M161 885h1M862 885h1M196 915h1M827 915h1M257 956h1M766 956h1M645 1006h1M423 1016h1M600 1016h1" />
<path stroke="rgba(189,219,240,0.4666666666666667)" d="M424 7h1M239 78h1M784 78h1M195 109h1M828 109h1M109 195h1M914 195h1M78 239h1M945 239h1M1016 424h1M7 599h1M78 784h1M945 784h1M109 828h1M914 828h1M195 914h1M828 914h1M239 945h1M784 945h1M599 1016h1" />
<path stroke="rgba(189,217,239,0.6392156862745098)" d="M425 7h1M598 7h1M409 10h1M614 10h1M278 56h1M745 56h1M56 278h1M967 278h1M10 409h1M1013 409h1M7 425h1M1016 425h1M7 598h1M1016 598h1M10 614h1M1013 614h1M56 745h1M967 745h1M278 967h1M745 967h1M409 1013h1M614 1013h1M425 1016h1M598 1016h1" />
<path stroke="rgba(189,218,239,0.803921568627451)" d="M426 7h1M325 35h1M698 35h1M35 325h1M988 325h1M1016 426h1M7 597h1M35 698h1M988 698h1M325 988h1M698 988h1M597 1016h1" />
<path stroke="rgba(189,218,239,0.9725490196078431)" d="M427 7h1M596 7h1M814 99h1M181 121h1M842 121h1M121 181h1M902 181h1M99 209h1M7 427h1M1016 427h1M7 596h1M1016 596h1M924 814h1M121 842h1M902 842h1M181 902h1M842 902h1M209 924h1M427 1016h1M596 1016h1" />
<path stroke="rgba(189,218,239,0.807843137254902)" d="M597 7h1M344 28h1M679 28h1M28 344h1M995 344h1M7 426h1M1016 597h1M28 679h1M995 679h1M344 995h1M679 995h1M426 1016h1" />
<path stroke="rgba(170,212,255,0.023529411764705882)" d="M416 8h1M607 8h1M406 10h1M617 10h1M328 33h1M295 47h1M728 47h1M166 133h1M857 133h1M133 166h1M890 166h1M47 295h1M976 295h1M10 406h1M1013 406h1M8 416h1M1015 416h1M8 607h1M1015 607h1M10 617h1M1013 617h1M47 728h1M976 728h1M133 857h1M890 857h1M166 890h1M857 890h1M295 976h1M728 976h1M406 1013h1M617 1013h1M416 1015h1M607 1015h1" />
<path stroke="rgba(189,217,240,0.39215686274509803)" d="M418 8h1M605 8h1M8 418h1M1015 418h1M8 605h1M1015 605h1M418 1015h1M605 1015h1" />
<path stroke="rgba(189,218,239,0.5725490196078431)" d="M419 8h1M604 8h1M274 58h1M749 58h1M58 274h1M965 274h1M8 419h1M1015 419h1M8 604h1M1015 604h1M58 749h1M965 749h1M274 965h1M749 965h1M419 1015h1M604 1015h1" />
<path stroke="rgba(189,218,239,0.7529411764705882)" d="M420 8h1M603 8h1M210 98h1M813 98h1M98 210h1M925 210h1M8 420h1M1015 420h1M8 603h1M1015 603h1M98 813h1M925 813h1M210 925h1M813 925h1M420 1015h1M603 1015h1" />
<path stroke="rgba(191,212,234,0.047058823529411764)" d="M411 9h1M612 9h1M397 12h1M1011 397h1M9 411h1M1014 411h1M9 612h1M1014 612h1M12 626h1M626 1011h1M411 1014h1M612 1014h1" />
<path stroke="rgba(189,218,239,0.24313725490196078)" d="M412 9h1M611 9h1M264 63h1M759 63h1M237 79h1M786 79h1M79 237h1M944 237h1M63 264h1M960 264h1M9 412h1M1014 412h1M9 611h1M1014 611h1M63 759h1M960 759h1M79 786h1M944 786h1M237 944h1M786 944h1M264 960h1M759 960h1M412 1014h1M611 1014h1" />
<path stroke="rgba(188,218,239,0.43529411764705883)" d="M413 9h1M610 9h1M699 35h1M35 324h1M9 413h1M1014 413h1M9 610h1M1014 610h1M988 699h1M324 988h1M413 1014h1M610 1014h1" />
<path stroke="rgba(189,218,239,0.8274509803921568)" d="M415 9h1M608 9h1M9 415h1M1014 415h1M9 608h1M1014 608h1M415 1014h1M608 1014h1" />
<path stroke="rgba(189,220,237,0.22745098039215686)" d="M407 10h1M616 10h1M316 38h1M707 38h1M250 71h1M773 71h1M850 127h1M127 173h1M71 250h1M952 250h1M38 316h1M985 316h1M10 407h1M1013 407h1M10 616h1M1013 616h1M38 707h1M985 707h1M71 773h1M952 773h1M896 850h1M173 896h1M250 952h1M773 952h1M316 985h1M707 985h1M407 1013h1M616 1013h1" />
<path stroke="rgba(190,218,239,0.43137254901960786)" d="M408 10h1M615 10h1M10 408h1M1013 408h1M10 615h1M1013 615h1M408 1013h1M615 1013h1" />
<path stroke="rgba(189,218,239,0.8313725490196079)" d="M410 10h1M613 10h1M353 25h1M670 25h1M25 353h1M998 353h1M10 410h1M1013 410h1M10 613h1M1013 613h1M25 670h1M998 670h1M353 998h1M670 998h1M410 1013h1M613 1013h1" />
<path stroke="rgba(187,218,236,0.1607843137254902)" d="M402 11h1M621 11h1M11 402h1M1012 402h1M11 621h1M1012 621h1M402 1012h1M621 1012h1" />
<path stroke="rgba(188,217,239,0.37254901960784315)" d="M403 11h1M620 11h1M298 46h1M228 85h1M795 85h1M200 105h1M823 105h1M105 200h1M918 200h1M85 228h1M938 228h1M977 298h1M11 403h1M1012 403h1M11 620h1M1012 620h1M46 725h1M85 795h1M938 795h1M105 823h1M918 823h1M200 918h1M823 918h1M228 938h1M795 938h1M725 977h1M403 1012h1M620 1012h1" />
<path stroke="rgba(188,217,240,0.5843137254901961)" d="M404 11h1M619 11h1M11 404h1M1012 404h1M11 619h1M1012 619h1M404 1012h1M619 1012h1" />
<path stroke="rgba(188,218,240,0.26666666666666666)" d="M398 12h1M625 12h1M180 121h1M843 121h1M121 180h1M902 180h1M12 398h1M12 625h1M1011 625h1M121 843h1M902 843h1M180 902h1M843 902h1M398 1011h1" />
<path stroke="rgba(190,218,239,0.49019607843137253)" d="M399 12h1M178 123h1M845 123h1M123 178h1M900 178h1M1011 399h1M12 624h1M123 845h1M900 845h1M178 900h1M845 900h1M624 1011h1" />
<path stroke="rgba(188,218,239,0.7058823529411765)" d="M400 12h1M623 12h1M301 45h1M722 45h1M45 301h1M978 301h1M12 400h1M1011 400h1M12 623h1M1011 623h1M45 722h1M978 722h1M301 978h1M722 978h1M400 1011h1M623 1011h1" />
<path stroke="rgba(189,218,239,0.48627450980392156)" d="M624 12h1M12 399h1M1011 624h1M399 1011h1" />
<path stroke="rgba(185,209,232,0.043137254901960784)" d="M626 12h1M260 65h1M175 125h1M898 175h1M958 260h1M12 397h1M1011 626h1M65 763h1M125 848h1M848 898h1M763 958h1M397 1011h1" />
<path stroke="rgba(191,219,237,0.10980392156862745)" d="M393 13h1M630 13h1M273 58h1M750 58h1M58 273h1M965 273h1M13 393h1M1010 393h1M13 630h1M1010 630h1M58 750h1M965 750h1M273 965h1M750 965h1M393 1010h1M630 1010h1" />
<path stroke="rgba(188,217,240,0.3411764705882353)" d="M394 13h1M160 139h1M863 139h1M139 160h1M884 160h1M1010 394h1M13 629h1M139 863h1M884 863h1M160 884h1M863 884h1M394 1010h1M629 1010h1" />
<path stroke="rgba(188,218,239,0.5686274509803921)" d="M395 13h1M628 13h1M13 395h1M1010 395h1M13 628h1M1010 628h1M395 1010h1M628 1010h1" />
<path stroke="rgba(190,219,240,0.33725490196078434)" d="M629 13h1M13 394h1M1010 629h1" />
<path stroke="rgba(191,220,241,0.1411764705882353)" d="M389 14h1M634 14h1M385 15h1M311 40h1M712 40h1M187 115h1M836 115h1M115 187h1M908 187h1M40 311h1M983 311h1M1008 385h1M14 389h1M1009 389h1M14 634h1M1009 634h1M40 712h1M983 712h1M115 836h1M908 836h1M187 908h1M836 908h1M311 983h1M712 983h1M638 1008h1M389 1009h1M634 1009h1" />
<path stroke="rgba(189,218,239,0.3803921568627451)" d="M390 14h1M329 33h1M815 99h1M179 122h1M844 122h1M159 140h1M864 140h1M140 159h1M883 159h1M122 179h1M901 179h1M99 208h1M990 329h1M1009 390h1M14 633h1M33 694h1M924 815h1M122 844h1M901 844h1M140 864h1M883 864h1M159 883h1M864 883h1M179 901h1M844 901h1M208 924h1M694 990h1M390 1009h1M633 1009h1" />
<path stroke="rgba(188,218,239,0.615686274509804)" d="M391 14h1M632 14h1M14 391h1M1009 391h1M14 632h1M1009 632h1M391 1009h1M632 1009h1" />
<path stroke="rgba(189,219,239,0.8509803921568627)" d="M392 14h1M690 32h1M788 81h1M81 235h1M32 333h1M1009 392h1M14 631h1M991 690h1M942 788h1M235 942h1M333 991h1M631 1009h1" />
<path stroke="rgba(189,218,239,0.3764705882352941)" d="M633 14h1M694 33h1M725 46h1M208 99h1M924 208h1M46 298h1M33 329h1M14 390h1M1009 633h1M990 694h1M977 725h1M99 815h1M815 924h1M298 977h1M329 990h1" />
<path stroke="rgba(190,219,239,0.3843137254901961)" d="M386 15h1M637 15h1M361 22h1M662 22h1M314 39h1M709 39h1M252 70h1M771 70h1M70 252h1M953 252h1M39 314h1M984 314h1M22 361h1M1001 361h1M15 386h1M1008 386h1M15 637h1M1008 637h1M22 662h1M1001 662h1M39 709h1M984 709h1M70 771h1M953 771h1M252 953h1M771 953h1M314 984h1M709 984h1M361 1001h1M662 1001h1M386 1008h1M637 1008h1" />
<path stroke="rgba(189,219,240,0.13725490196078433)" d="M638 15h1M174 126h1M849 126h1M126 174h1M897 174h1M15 385h1M15 638h1M1008 638h1M126 849h1M897 849h1M174 897h1M849 897h1M385 1008h1" />
<path stroke="rgba(188,219,238,0.3568627450980392)" d="M382 16h1M641 16h1M337 30h1M242 76h1M781 76h1M76 242h1M947 242h1M993 337h1M16 382h1M1007 382h1M16 641h1M1007 641h1M30 686h1M76 781h1M947 781h1M242 947h1M781 947h1M686 993h1M382 1007h1M641 1007h1" />
<path stroke="rgba(190,217,239,0.611764705882353)" d="M383 16h1M317 38h1M706 38h1M303 44h1M720 44h1M276 57h1M747 57h1M57 276h1M966 276h1M44 303h1M979 303h1M38 317h1M985 317h1M38 706h1M985 706h1M44 720h1M979 720h1M57 747h1M966 747h1M276 966h1M747 966h1M303 979h1M720 979h1M317 985h1M706 985h1" />
<path stroke="rgba(189,218,239,0.8588235294117647)" d="M384 16h1M639 16h1M16 384h1M1007 384h1M16 639h1M1007 639h1M384 1007h1M639 1007h1" />
<path stroke="rgba(189,219,239,0.6078431372549019)" d="M640 16h1M335 31h1M688 31h1M233 82h1M790 82h1M82 233h1M941 233h1M31 335h1M992 335h1M16 383h1M1007 383h1M16 640h1M1007 640h1M31 688h1M992 688h1M82 790h1M941 790h1M233 941h1M790 941h1M335 992h1M688 992h1M383 1007h1M640 1007h1" />
<path stroke="rgba(186,216,235,0.10196078431372549)" d="M642 16h1M16 381h1M1007 381h1M16 642h1M1007 642h1M381 1007h1M642 1007h1" />
<path stroke="rgba(198,227,227,0.03529411764705882)" d="M377 17h1M646 17h1M17 377h1M1006 377h1M17 646h1M1006 646h1M377 1006h1M646 1006h1" />
<path stroke="rgba(189,217,239,0.5568627450980392)" d="M379 17h1M644 17h1M292 49h1M731 49h1M199 106h1M824 106h1M169 131h1M854 131h1M150 149h1M873 149h1M149 150h1M874 150h1M131 169h1M892 169h1M106 199h1M917 199h1M49 292h1M974 292h1M17 379h1M1006 379h1M17 644h1M1006 644h1M49 731h1M974 731h1M106 824h1M917 824h1M131 854h1M892 854h1M149 873h1M874 873h1M150 874h1M873 874h1M169 892h1M854 892h1M199 917h1M824 917h1M292 974h1M731 974h1M379 1006h1M644 1006h1" />
<path stroke="rgba(189,218,239,0.8156862745098039)" d="M380 17h1M1006 380h1M17 643h1M380 1006h1M643 1006h1" />
<path stroke="rgba(188,218,239,0.8117647058823529)" d="M643 17h1M17 380h1M1006 643h1" />
<path stroke="rgba(191,216,240,0.20392156862745098)" d="M374 18h1M649 18h1M302 44h1M721 44h1M279 55h1M744 55h1M55 279h1M968 279h1M44 302h1M979 302h1M18 374h1M1005 374h1M18 649h1M1005 649h1M44 721h1M979 721h1M55 744h1M968 744h1M279 968h1M744 968h1M302 979h1M721 979h1M374 1005h1M649 1005h1" />
<path stroke="rgba(189,218,239,0.7372549019607844)" d="M376 18h1M251 71h1M772 71h1M198 107h1M825 107h1M107 198h1M916 198h1M71 251h1M952 251h1M1005 376h1M18 647h1M71 772h1M952 772h1M107 825h1M916 825h1M198 916h1M825 916h1M251 952h1M772 952h1M376 1005h1M647 1005h1" />
<path stroke="rgba(188,215,242,0.07450980392156863)" d="M370 19h1M653 19h1M19 370h1M1004 370h1M19 653h1M1004 653h1M370 1004h1M653 1004h1" />
<path stroke="rgba(190,218,238,0.35294117647058826)" d="M371 19h1M686 30h1M231 83h1M792 83h1M83 231h1M940 231h1M30 337h1M1004 371h1M19 652h1M993 686h1M83 792h1M940 792h1M231 940h1M792 940h1M337 993h1M652 1004h1" />
<path stroke="rgba(189,218,239,0.8980392156862745)" d="M373 19h1M1004 373h1M19 650h1M650 1004h1" />
<path stroke="rgba(189,218,238,0.34901960784313724)" d="M652 19h1M19 371h1M1004 652h1M371 1004h1" />
<path stroke="rgba(188,217,238,0.47843137254901963)" d="M368 20h1M655 20h1M680 28h1M190 113h1M833 113h1M113 190h1M910 190h1M28 343h1M995 343h1M20 368h1M1003 368h1M20 655h1M1003 655h1M28 680h1M995 680h1M113 833h1M910 833h1M190 910h1M833 910h1M343 995h1M680 995h1M368 1003h1M655 1003h1" />
<path stroke="rgba(189,218,239,0.7568627450980392)" d="M654 20h1M20 369h1M1003 654h1" />
<path stroke="rgba(170,255,255,0.011764705882352941)" d="M363 21h1M660 21h1M336 30h1M687 30h1M235 80h1M788 80h1M193 110h1M830 110h1M110 193h1M913 193h1M80 235h1M943 235h1M30 336h1M993 336h1M21 363h1M1002 363h1M21 660h1M1002 660h1M30 687h1M993 687h1M80 788h1M943 788h1M110 830h1M913 830h1M193 913h1M830 913h1M235 943h1M788 943h1M336 993h1M687 993h1M363 1002h1M660 1002h1" />
<path stroke="rgba(189,218,239,0.8823529411764706)" d="M366 21h1M657 21h1M243 76h1M780 76h1M76 243h1M947 243h1M21 366h1M1002 366h1M21 657h1M1002 657h1M76 780h1M947 780h1M243 947h1M780 947h1M366 1002h1M657 1002h1" />
<path stroke="rgba(188,222,244,0.09019607843137255)" d="M360 22h1M663 22h1M339 29h1M684 29h1M229 84h1M794 84h1M84 229h1M939 229h1M29 339h1M994 339h1M22 360h1M1001 360h1M22 663h1M1001 663h1M29 684h1M994 684h1M84 794h1M939 794h1M229 939h1M794 939h1M339 994h1M684 994h1M360 1001h1M663 1001h1" />
<path stroke="rgba(189,218,239,0.6784313725490196)" d="M362 22h1M661 22h1M241 77h1M782 77h1M77 241h1M946 241h1M22 362h1M1001 362h1M22 661h1M1001 661h1M77 782h1M946 782h1M241 946h1M782 946h1M362 1001h1M661 1001h1" />
<path stroke="rgba(188,217,239,0.45098039215686275)" d="M358 23h1M665 23h1M23 358h1M1000 358h1M23 665h1M1000 665h1M358 1000h1M665 1000h1" />
<path stroke="rgba(191,218,239,0.18823529411764706)" d="M354 24h1M669 24h1M345 27h1M678 27h1M216 93h1M807 93h1M93 216h1M930 216h1M27 345h1M996 345h1M24 354h1M999 354h1M24 669h1M999 669h1M27 678h1M996 678h1M93 807h1M930 807h1M216 930h1M807 930h1M345 996h1M678 996h1M354 999h1M669 999h1" />
<path stroke="rgba(188,219,239,0.49411764705882355)" d="M355 24h1M668 24h1M144 155h1M24 355h1M999 355h1M24 668h1M999 668h1M879 868h1M155 879h1M355 999h1M668 999h1" />
<path stroke="rgba(189,217,239,0.8)" d="M356 24h1M667 24h1M24 356h1M999 356h1M24 667h1M999 667h1M356 999h1M667 999h1" />
<path stroke="rgba(190,219,240,0.5215686274509804)" d="M352 25h1M671 25h1M218 92h1M805 92h1M92 218h1M931 218h1M25 352h1M998 352h1M25 671h1M998 671h1M92 805h1M931 805h1M218 931h1M805 931h1M352 998h1M671 998h1" />
<path stroke="rgba(188,219,240,0.5254901960784314)" d="M349 26h1M674 26h1M272 59h1M751 59h1M59 272h1M964 272h1M26 349h1M997 349h1M26 674h1M997 674h1M59 751h1M964 751h1M272 964h1M751 964h1M349 997h1M674 997h1" />
<path stroke="rgba(189,218,240,0.8431372549019608)" d="M350 26h1M673 26h1M220 91h1M803 91h1M91 220h1M932 220h1M26 350h1M997 350h1M26 673h1M997 673h1M91 803h1M932 803h1M220 932h1M803 932h1M350 997h1M673 997h1" />
<path stroke="rgba(189,218,239,0.5137254901960784)" d="M346 27h1M677 27h1M869 145h1M145 154h1M27 346h1M996 346h1M27 677h1M996 677h1M878 869h1M154 878h1M346 996h1M677 996h1" />
<path stroke="rgba(189,218,238,0.4823529411764706)" d="M343 28h1M170 130h1M853 130h1M130 170h1M893 170h1M130 853h1M893 853h1M170 893h1M853 893h1" />
<path stroke="rgba(189,218,239,0.42745098039215684)" d="M340 29h1M683 29h1M215 94h1M808 94h1M94 215h1M929 215h1M29 340h1M994 340h1M29 683h1M994 683h1M94 808h1M929 808h1M215 929h1M808 929h1M340 994h1M683 994h1" />
<path stroke="rgba(189,218,239,0.9529411764705882)" d="M336 31h1M687 31h1M695 34h1M34 328h1M31 336h1M992 336h1M31 687h1M992 687h1M989 695h1M328 989h1M336 992h1M687 992h1" />
<path stroke="rgba(189,218,239,0.8549019607843137)" d="M333 32h1M235 81h1M942 235h1M991 333h1M32 690h1M81 788h1M788 942h1M690 991h1" />
<path stroke="rgba(204,204,255,0.0196078431372549)" d="M695 33h1M220 90h1M803 90h1M90 220h1M933 220h1M33 328h1M990 328h1M33 695h1M990 695h1M90 803h1M933 803h1M220 933h1M803 933h1M328 990h1M695 990h1" />
<path stroke="rgba(190,218,238,0.596078431372549)" d="M327 34h1M696 34h1M290 50h1M203 103h1M177 124h1M846 124h1M124 177h1M899 177h1M103 203h1M920 203h1M973 290h1M34 327h1M989 327h1M34 696h1M989 696h1M50 733h1M103 820h1M920 820h1M124 846h1M899 846h1M177 899h1M846 899h1M203 920h1M820 920h1M733 973h1M327 989h1M696 989h1" />
<path stroke="rgba(189,218,239,0.9568627450980393)" d="M328 34h1M989 328h1M34 695h1M695 989h1" />
<path stroke="rgba(184,213,241,0.07058823529411765)" d="M323 35h1M700 35h1M223 88h1M800 88h1M88 223h1M935 223h1M35 323h1M988 323h1M35 700h1M988 700h1M88 800h1M935 800h1M223 935h1M800 935h1M323 988h1M700 988h1" />
<path stroke="rgba(189,219,239,0.4392156862745098)" d="M324 35h1M319 37h1M704 37h1M37 319h1M986 319h1M988 324h1M35 699h1M37 704h1M986 704h1M319 986h1M704 986h1M699 988h1" />
<path stroke="rgba(191,223,239,0.06274509803921569)" d="M318 37h1M705 37h1M248 72h1M775 72h1M232 82h1M791 82h1M82 232h1M941 232h1M72 248h1M951 248h1M37 318h1M986 318h1M37 705h1M986 705h1M72 775h1M951 775h1M82 791h1M941 791h1M232 941h1M791 941h1M248 951h1M775 951h1M318 986h1M705 986h1" />
<path stroke="rgba(189,218,239,0.996078431372549)" d="M318 38h1M705 38h1M783 78h1M78 240h1M38 318h1M985 318h1M38 705h1M985 705h1M945 783h1M240 945h1M318 985h1M705 985h1" />
<path stroke="rgba(189,218,239,0.9294117647058824)" d="M313 40h1M710 40h1M295 48h1M728 48h1M229 85h1M794 85h1M85 229h1M938 229h1M48 295h1M975 295h1M40 313h1M983 313h1M40 710h1M983 710h1M48 728h1M975 728h1M85 794h1M938 794h1M229 938h1M794 938h1M295 975h1M728 975h1M313 983h1M710 983h1" />
<path stroke="rgba(189,219,240,0.27450980392156865)" d="M309 41h1M714 41h1M219 91h1M804 91h1M91 219h1M932 219h1M41 309h1M982 309h1M41 714h1M982 714h1M91 804h1M932 804h1M219 932h1M804 932h1M309 982h1M714 982h1" />
<path stroke="rgba(188,218,239,0.5098039215686274)" d="M305 43h1M718 43h1M43 305h1M980 305h1M43 718h1M980 718h1M305 980h1M718 980h1" />
<path stroke="rgba(190,219,239,0.44313725490196076)" d="M296 47h1M976 296h1M47 727h1M727 976h1" />
<path stroke="rgba(189,218,239,0.8627450980392157)" d="M297 47h1M976 297h1M47 726h1M726 976h1" />
<path stroke="rgba(189,218,239,0.8666666666666667)" d="M726 47h1M47 297h1M976 726h1M297 976h1" />
<path stroke="rgba(188,217,239,0.4470588235294118)" d="M727 47h1M157 142h1M866 142h1M142 157h1M881 157h1M47 296h1M976 727h1M142 866h1M881 866h1M157 881h1M866 881h1M296 976h1" />
<path stroke="rgba(191,217,242,0.0784313725490196)" d="M293 48h1M730 48h1M213 95h1M810 95h1M95 213h1M928 213h1M48 293h1M975 293h1M48 730h1M975 730h1M95 810h1M928 810h1M213 928h1M810 928h1M293 975h1M730 975h1" />
<path stroke="rgba(189,218,239,0.984313725490196)" d="M293 49h1M730 49h1M49 293h1M974 293h1M49 730h1M974 730h1M293 974h1M730 974h1" />
<path stroke="rgba(188,219,237,0.16470588235294117)" d="M289 50h1M734 50h1M209 98h1M814 98h1M98 209h1M925 209h1M50 289h1M973 289h1M50 734h1M973 734h1M98 814h1M925 814h1M209 925h1M814 925h1M289 973h1M734 973h1" />
<path stroke="rgba(188,218,238,0.6)" d="M733 50h1M820 103h1M50 290h1M2 462h1M2 561h1M1021 561h1M973 733h1M290 973h1M462 1021h1M561 1021h1" />
<path stroke="rgba(187,219,239,0.19215686274509805)" d="M287 51h1M736 51h1M51 287h1M972 287h1M51 736h1M972 736h1M287 972h1M736 972h1" />
<path stroke="rgba(189,218,240,0.6509803921568628)" d="M286 52h1M737 52h1M227 86h1M796 86h1M86 227h1M937 227h1M52 286h1M971 286h1M52 737h1M971 737h1M86 796h1M937 796h1M227 937h1M796 937h1M286 971h1M737 971h1" />
<path stroke="rgba(189,217,241,0.21176470588235294)" d="M738 52h1M52 285h1M971 738h1M285 971h1" />
<path stroke="rgba(190,218,241,0.21568627450980393)" d="M283 53h1M281 54h1M742 54h1M54 281h1M969 281h1M970 283h1M53 740h1M54 742h1M969 742h1M281 969h1M742 969h1M740 970h1" />
<path stroke="rgba(191,219,237,0.2196078431372549)" d="M740 53h1M53 283h1M970 740h1M283 970h1" />
<path stroke="rgba(189,218,240,0.6549019607843137)" d="M280 55h1M743 55h1M55 280h1M968 280h1M55 743h1M968 743h1M280 968h1M743 968h1" />
<path stroke="rgba(188,216,238,0.1803921568627451)" d="M277 56h1M746 56h1M56 277h1M967 277h1M56 746h1M967 746h1M277 967h1M746 967h1" />
<path stroke="rgba(187,221,238,0.058823529411764705)" d="M271 59h1M752 59h1M59 271h1M964 271h1M59 752h1M964 752h1M271 964h1M752 964h1" />
<path stroke="rgba(189,217,239,0.8784313725490196)" d="M269 61h1M754 61h1M164 136h1M859 136h1M136 164h1M887 164h1M61 269h1M962 269h1M61 754h1M962 754h1M136 859h1M887 859h1M164 887h1M859 887h1M269 962h1M754 962h1" />
<path stroke="rgba(188,219,240,0.32941176470588235)" d="M266 62h1M222 89h1M801 89h1M832 112h1M112 191h1M89 222h1M934 222h1M961 266h1M62 757h1M89 801h1M934 801h1M911 832h1M191 911h1M222 934h1M801 934h1M757 961h1" />
<path stroke="rgba(189,218,239,0.8196078431372549)" d="M267 62h1M756 62h1M62 267h1M961 267h1M62 756h1M961 756h1M267 961h1M756 961h1" />
<path stroke="rgba(190,218,240,0.3254901960784314)" d="M757 62h1M191 112h1M911 191h1M62 266h1M961 757h1M112 832h1M832 911h1M266 961h1" />
<path stroke="rgba(189,218,238,0.7254901960784313)" d="M265 63h1M758 63h1M63 265h1M960 265h1M63 758h1M960 758h1M265 960h1M758 960h1" />
<path stroke="rgba(186,221,241,0.1450980392156863)" d="M262 64h1M761 64h1M164 135h1M859 135h1M135 164h1M888 164h1M64 262h1M959 262h1M64 761h1M959 761h1M135 859h1M888 859h1M164 888h1M859 888h1M262 959h1M761 959h1" />
<path stroke="rgba(179,230,230,0.0392156862745098)" d="M763 65h1M848 125h1M125 175h1M65 260h1M958 763h1M898 848h1M175 898h1M260 958h1" />
<path stroke="rgba(188,217,238,0.4196078431372549)" d="M259 66h1M764 66h1M66 259h1M957 259h1M66 764h1M957 764h1M259 957h1M764 957h1" />
<path stroke="rgba(189,218,239,0.9137254901960784)" d="M260 66h1M826 108h1M187 116h1M836 116h1M116 187h1M907 187h1M108 197h1M957 260h1M66 763h1M915 826h1M116 836h1M907 836h1M187 907h1M836 907h1M197 915h1M763 957h1" />
<path stroke="rgba(190,219,237,0.16862745098039217)" d="M255 68h1M768 68h1M68 255h1M955 255h1M68 768h1M955 768h1M255 955h1M768 955h1" />
<path stroke="rgba(182,219,255,0.027450980392156862)" d="M253 69h1M770 69h1M182 119h1M841 119h1M119 182h1M904 182h1M69 253h1M954 253h1M69 770h1M954 770h1M119 841h1M904 841h1M182 904h1M841 904h1M253 954h1M770 954h1" />
<path stroke="rgba(189,218,239,0.8901960784313725)" d="M253 70h1M770 70h1M213 96h1M174 127h1M849 127h1M127 174h1M896 174h1M927 213h1M70 253h1M953 253h1M70 770h1M953 770h1M96 810h1M127 849h1M896 849h1M174 896h1M849 896h1M810 927h1M253 953h1M770 953h1" />
<path stroke="rgba(189,219,239,0.5764705882352941)" d="M249 72h1M774 72h1M72 249h1M951 249h1M72 774h1M951 774h1M249 951h1M774 951h1" />
<path stroke="rgba(189,218,239,0.9215686274509803)" d="M248 73h1M223 89h1M800 89h1M89 223h1M934 223h1M950 248h1M73 775h1M89 800h1M934 800h1M223 934h1M800 934h1M775 950h1" />
<path stroke="rgba(188,219,237,0.2235294117647059)" d="M245 74h1M778 74h1M74 245h1M949 245h1M74 778h1M949 778h1M245 949h1M778 949h1" />
<path stroke="rgba(189,219,239,0.7411764705882353)" d="M246 74h1M777 74h1M74 246h1M949 246h1M74 777h1M949 777h1M246 949h1M777 949h1" />
<path stroke="rgba(188,218,240,0.7803921568627451)" d="M238 79h1M785 79h1M79 238h1M944 238h1M79 785h1M944 785h1M238 944h1M785 944h1" />
<path stroke="rgba(190,219,239,0.30980392156862746)" d="M789 81h1M811 96h1M96 212h1M81 234h1M942 789h1M927 811h1M212 927h1M234 942h1" />
<path stroke="rgba(189,218,239,0.9333333333333333)" d="M232 83h1M791 83h1M163 137h1M860 137h1M137 163h1M886 163h1M83 232h1M940 232h1M83 791h1M940 791h1M137 860h1M886 860h1M163 886h1M860 886h1M232 940h1M791 940h1" />
<path stroke="rgba(190,218,239,0.6431372549019608)" d="M230 84h1M793 84h1M84 230h1M939 230h1M84 793h1M939 793h1M230 939h1M793 939h1" />
<path stroke="rgba(189,218,239,0.9254901960784314)" d="M226 87h1M797 87h1M87 226h1M936 226h1M87 797h1M936 797h1M226 936h1M797 936h1" />
<path stroke="rgba(190,219,239,0.3058823529411765)" d="M212 96h1M927 212h1M96 811h1M811 927h1" />
<path stroke="rgba(190,217,239,0.1843137254901961)" d="M201 104h1M822 104h1M104 201h1M919 201h1M104 822h1M919 822h1M201 919h1M822 919h1" />
<path stroke="rgba(189,217,239,0.7725490196078432)" d="M188 115h1M835 115h1M115 188h1M908 188h1" />
<path stroke="rgba(190,219,241,0.2784313725490196)" d="M186 116h1M837 116h1M116 186h1M907 186h1M116 837h1M907 837h1M186 907h1M837 907h1" />
<path stroke="rgba(189,219,238,0.4117647058823529)" d="M185 117h1M838 117h1M117 185h1M906 185h1M117 838h1M906 838h1M185 906h1M838 906h1" />
<path stroke="rgba(189,218,238,0.5450980392156862)" d="M184 118h1M839 118h1M118 184h1M905 184h1M118 839h1M905 839h1M184 905h1M839 905h1" />
<path stroke="rgba(189,218,239,0.6705882352941176)" d="M183 119h1M840 119h1M119 183h1M904 183h1M119 840h1M904 840h1M183 904h1M840 904h1" />
<path stroke="rgba(190,216,238,0.23137254901960785)" d="M173 127h1M896 173h1M127 850h1M850 896h1" />
<path stroke="rgba(189,218,239,0.9764705882352941)" d="M850 128h1M128 173h1M895 850h1M173 895h1" />
<path stroke="rgba(185,220,243,0.08627450980392157)" d="M165 134h1M858 134h1M134 165h1M889 165h1M134 858h1M889 858h1M165 889h1M858 889h1" />
<path stroke="rgba(187,219,239,0.25098039215686274)" d="M162 137h1M861 137h1M137 162h1M886 162h1M137 861h1M886 861h1M162 886h1M861 886h1" />
<path stroke="rgba(189,219,239,0.4980392156862745)" d="M155 144h1M868 144h1M879 155h1M144 868h1M868 879h1" />
<path stroke="rgba(189,218,240,0.5176470588235295)" d="M154 145h1M878 154h1M145 869h1M869 878h1" />
<path stroke="rgba(188,218,238,0.5411764705882353)" d="M152 147h1M871 147h1M147 152h1M876 152h1M147 871h1M876 871h1M152 876h1M871 876h1" />
<path stroke="#eada00" d="M320 256h43M320 257h43M320 258h43M320 259h43M320 260h43M320 261h43M320 262h43M320 263h43M320 264h43M320 265h43M320 266h43M320 267h43M320 268h43M320 269h43M320 270h43M320 271h43M320 272h43M320 273h43M320 274h43M320 275h43M320 276h43M320 277h43M320 278h43M320 279h43M320 280h43M320 281h43M320 282h43M320 283h43M320 284h43M320 285h43M320 286h43M320 287h43M320 288h43M320 289h43M320 290h43M320 291h43M320 292h43M320 293h43M320 294h43M320 295h43M320 296h43M320 297h43M320 298h43" />
<path stroke="#dbcc00" d="M405 256h43M405 257h43M405 258h43M405 259h43M405 260h43M405 261h43M405 262h43M405 263h43M405 264h43M405 265h43M405 266h43M405 267h43M405 268h43M405 269h43M405 270h43M405 271h43M405 272h43M405 273h43M405 274h43M405 275h43M405 276h43M405 277h43M405 278h43M405 279h43M405 280h43M405 281h43M405 282h43M405 283h43M405 284h43M405 285h43M405 286h43M405 287h43M405 288h43M405 289h43M405 290h43M405 291h43M405 292h43M405 293h43M405 294h43M405 295h43M405 296h43M405 297h43M405 298h43M405 299h86M533 299h43M640 299h43M725 299h43M405 300h86M533 300h43M640 300h43M725 300h43M405 301h86M533 301h43M640 301h43M725 301h43M405 302h86M533 302h43M640 302h43M725 302h43M405 303h86M533 303h43M640 303h43M725 303h43M405 304h86M533 304h43M640 304h43M725 304h43M405 305h86M533 305h43M640 305h43M725 305h43M405 306h86M533 306h43M640 306h43M725 306h43M405 307h86M533 307h43M640 307h43M725 307h43M405 308h86M533 308h43M640 308h43M725 308h43M405 309h86M533 309h43M640 309h43M725 309h43M405 310h86M533 310h43M640 310h43M725 310h43M405 311h86M533 311h43M640 311h43M725 311h43M405 312h86M533 312h43M640 312h43M725 312h43M405 313h86M533 313h43M640 313h43M725 313h43M405 314h86M533 314h43M640 314h43M725 314h43M405 315h86M533 315h43M640 315h43M725 315h43M405 316h86M533 316h43M640 316h43M725 316h43M405 317h86M533 317h43M640 317h43M725 317h43M405 318h86M533 318h43M640 318h43M725 318h43M405 319h86M533 319h43M640 319h43M725 319h43M405 320h86M533 320h43M640 320h43M725 320h43M405 321h86M533 321h43M640 321h43M725 321h43M405 322h86M533 322h43M640 322h43M725 322h43M405 323h86M533 323h43M640 323h43M725 323h43M405 324h86M533 324h43M640 324h43M725 324h43M405 325h86M533 325h43M640 325h43M725 325h43M405 326h86M533 326h43M640 326h43M725 326h43M405 327h86M533 327h43M640 327h43M725 327h43M405 328h86M533 328h43M640 328h43M725 328h43M405 329h86M533 329h43M640 329h43M725 329h43M405 330h86M533 330h43M640 330h43M725 330h43M405 331h86M533 331h43M640 331h43M725 331h43M405 332h86M533 332h43M640 332h43M725 332h43M405 333h86M533 333h43M640 333h43M725 333h43M405 334h86M533 334h43M640 334h43M725 334h43M405 335h86M533 335h43M640 335h43M725 335h43M405 336h86M533 336h43M640 336h43M725 336h43M405 337h86M533 337h43M640 337h43M725 337h43M405 338h86M533 338h43M640 338h43M725 338h43M405 339h86M533 339h43M640 339h43M725 339h43M405 340h86M533 340h43M640 340h43M725 340h43" />
<path stroke="#fff200" d="M491 256h42M640 256h43M725 256h43M491 257h42M640 257h43M725 257h43M491 258h42M640 258h43M725 258h43M491 259h42M640 259h43M725 259h43M491 260h42M640 260h43M725 260h43M491 261h42M640 261h43M725 261h43M491 262h42M640 262h43M725 262h43M491 263h42M640 263h43M725 263h43M491 264h42M640 264h43M725 264h43M491 265h42M640 265h43M725 265h43M491 266h42M640 266h43M725 266h43M491 267h42M640 267h43M725 267h43M491 268h42M640 268h43M725 268h43M491 269h42M640 269h43M725 269h43M491 270h42M640 270h43M725 270h43M491 271h42M640 271h43M725 271h43M491 272h42M640 272h43M725 272h43M491 273h42M640 273h43M725 273h43M491 274h42M640 274h43M725 274h43M491 275h42M640 275h43M725 275h43M491 276h42M640 276h43M725 276h43M491 277h42M640 277h43M725 277h43M491 278h42M640 278h43M725 278h43M491 279h42M640 279h43M725 279h43M491 280h42M640 280h43M725 280h43M491 281h42M640 281h43M725 281h43M491 282h42M640 282h43M725 282h43M491 283h42M640 283h43M725 283h43M491 284h42M640 284h43M725 284h43M491 285h42M640 285h43M725 285h43M491 286h42M640 286h43M725 286h43M491 287h42M640 287h43M725 287h43M491 288h42M640 288h43M725 288h43M491 289h42M640 289h43M725 289h43M491 290h42M640 290h43M725 290h43M491 291h42M640 291h43M725 291h43M491 292h42M640 292h43M725 292h43M491 293h42M640 293h43M725 293h43M491 294h42M640 294h43M725 294h43M491 295h42M640 295h43M725 295h43M491 296h42M640 296h43M725 296h43M491 297h42M640 297h43M725 297h43M491 298h42M640 298h43M725 298h43" />
<path stroke="#ed1c24" d="M277 299h43M277 300h43M277 301h43M277 302h43M277 303h43M277 304h43M277 305h43M277 306h43M277 307h43M277 308h43M277 309h43M277 310h43M277 311h43M277 312h43M277 313h43M277 314h43M277 315h43M277 316h43M277 317h43M277 318h43M277 319h43M277 320h43M277 321h43M277 322h43M277 323h43M277 324h43M277 325h43M277 326h43M277 327h43M277 328h43M277 329h43M277 330h43M277 331h43M277 332h43M277 333h43M277 334h43M277 335h43M277 336h43M277 337h43M277 338h43M277 339h43M277 340h43" />
<path stroke="#c9b800" d="M320 299h43M320 300h43M320 301h43M320 302h43M320 303h43M320 304h43M320 305h43M320 306h43M320 307h43M320 308h43M320 309h43M320 310h43M320 311h43M320 312h43M320 313h43M320 314h43M320 315h43M320 316h43M320 317h43M320 318h43M320 319h43M320 320h43M320 321h43M320 322h43M320 323h43M320 324h43M320 325h43M320 326h43M320 327h43M320 328h43M320 329h43M320 330h43M320 331h43M320 332h43M320 333h43M320 334h43M320 335h43M320 336h43M320 337h43M320 338h43M320 339h43M320 340h43" />
<path stroke="#ab36d1" d="M363 299h42M363 300h42M363 301h42M363 302h42M363 303h42M363 304h42M363 305h42M363 306h42M363 307h42M363 308h42M363 309h42M363 310h42M363 311h42M363 312h42M363 313h42M363 314h42M363 315h42M363 316h42M363 317h42M363 318h42M363 319h42M363 320h42M363 321h42M363 322h42M363 323h42M363 324h42M363 325h42M363 326h42M363 327h42M363 328h42M363 329h42M363 330h42M363 331h42M363 332h42M363 333h42M363 334h42M363 335h42M363 336h42M363 337h42M363 338h42M363 339h42M363 340h42" />
<path stroke="#4d6df3" d="M491 299h42M491 300h42M491 301h42M491 302h42M491 303h42M491 304h42M491 305h42M491 306h42M491 307h42M491 308h42M491 309h42M491 310h42M491 311h42M491 312h42M491 313h42M491 314h42M491 315h42M491 316h42M491 317h42M491 318h42M491 319h42M491 320h42M491 321h42M491 322h42M491 323h42M491 324h42M491 325h42M491 326h42M491 327h42M491 328h42M491 329h42M491 330h42M491 331h42M491 332h42M491 333h42M491 334h42M491 335h42M491 336h42M491 337h42M491 338h42M491 339h42M491 340h42" />
<path stroke="#0a02eb" d="M576 299h64M576 300h64M576 301h64M576 302h64M576 303h64M576 304h64M576 305h64M576 306h64M576 307h64M576 308h64M576 309h64M576 310h64M576 311h64M576 312h64M576 313h64M576 314h64M576 315h64M576 316h64M576 317h64M576 318h64M576 319h64M576 320h64M576 321h64M576 322h64M576 323h64M576 324h64M576 325h64M576 326h64M576 327h64M576 328h64M576 329h64M576 330h64M576 331h64M576 332h64M576 333h64M576 334h64M576 335h64M576 336h64M576 337h64M576 338h64M576 339h64M576 340h64" />
<path stroke="#a8e61d" d="M683 299h42M683 300h42M683 301h42M683 302h42M683 303h42M683 304h42M683 305h42M683 306h42M683 307h42M683 308h42M683 309h42M683 310h42M683 311h42M683 312h42M683 313h42M683 314h42M683 315h42M683 316h42M683 317h42M683 318h42M683 319h42M683 320h42M683 321h42M683 322h42M683 323h42M683 324h42M683 325h42M683 326h42M683 327h42M683 328h42M683 329h42M683 330h42M683 331h42M683 332h42M683 333h42M683 334h42M683 335h42M683 336h42M683 337h42M683 338h42M683 339h42M683 340h42" />
<path stroke="#86afcc" d="M235 341h42M235 342h42M235 343h42M235 344h42M235 345h42M235 346h42M235 347h42M235 348h42M235 349h42M235 350h42M235 351h42M235 352h42M235 353h42M235 354h42M235 355h42M235 356h42M235 357h42M235 358h42M235 359h42M235 360h42M235 361h42M235 362h42M235 363h42M235 364h42M235 365h42M235 366h42M235 367h42M235 368h42M235 369h42M235 370h42M235 371h42M235 372h42M235 373h42M235 374h42M235 375h42M235 376h42M235 377h42M235 378h42M235 379h42M235 380h42M235 381h42M235 382h42M235 383h42M235 384h42M235 385h42M235 386h42M235 387h42M235 388h42M235 389h42M235 390h42M235 391h42M235 392h42M235 393h42M235 394h42M235 395h42M235 396h42M235 397h42M235 398h42M235 399h42M235 400h42M235 401h42M235 402h42M235 403h42M235 404h42M235 405h42M235 406h42M235 407h42M235 408h42M235 409h42M235 410h42M235 411h42M235 412h42M235 413h42M235 414h42M235 415h42M235 416h42M235 417h42M235 418h42M235 419h42M235 420h42M235 421h42M235 422h42M235 423h42M235 424h42M235 425h42M235 426h42M235 427h42M235 428h42M235 429h42M235 430h42M235 431h42M235 432h42M235 433h42M235 434h42M235 435h42M235 436h42M235 437h42M235 438h42M235 439h42M235 440h42M235 441h42M235 442h42M235 443h42M235 444h42M235 445h42M235 446h42M235 447h42M235 448h42M235 449h42M235 450h42M235 451h42M235 452h42M235 453h42M235 454h42M235 455h42M235 456h42M235 457h42M235 458h42M235 459h42M235 460h42M235 461h42M235 462h42M235 463h42M235 464h42M235 465h42M235 466h42M235 467h42M235 468h42M235 469h42M235 470h42M235 471h42M235 472h42M235 473h42M235 474h42M235 475h42M235 476h42M235 477h42M235 478h42M235 479h42M235 480h42M235 481h42M235 482h42M235 483h42M235 484h42M235 485h42M235 486h42M235 487h42M235 488h42M235 489h42M235 490h42M235 491h42M235 492h42M235 493h42M235 494h42M235 495h42M235 496h42M235 497h42M235 498h42M235 499h42M235 500h42M235 501h42M235 502h42M235 503h42M235 504h42M235 505h42M235 506h42M235 507h42M235 508h42M235 509h42M235 510h42M235 511h42M235 512h42M235 513h42M235 514h42M235 515h42M235 516h42M235 517h42M235 518h42M235 519h42M235 520h42M235 521h42M235 522h42M235 523h42M235 524h42M235 525h42M235 526h42M235 527h42M235 528h42M235 529h42M235 530h42M235 531h42M235 532h42M235 533h42M235 534h42M235 535h42M235 536h42M235 537h42M235 538h42M235 539h42M235 540h42M235 541h42M235 542h42M235 543h42M235 544h42M235 545h42M235 546h42M235 547h42M235 548h42M235 549h42M235 550h42M235 551h42M235 552h42M235 553h42M235 554h42M235 555h42M235 556h42M235 557h42M235 558h42M235 559h42M235 560h42M235 561h42M235 562h42M235 563h42M235 564h42M235 565h42M235 566h42M235 567h42M235 568h42M235 569h42M235 570h42M235 571h42M235 572h42M235 573h42M235 574h42M235 575h42M235 576h42M235 577h42M235 578h42M235 579h42M235 580h42M235 581h42M235 582h42M235 583h42M235 584h42M235 585h42M235 586h42M235 587h42M235 588h42M235 589h42M235 590h42M235 591h42M235 592h42M235 593h42M235 594h42M235 595h42M235 596h42M235 597h42M235 598h42M235 599h42M235 600h42M235 601h42M235 602h42M235 603h42M235 604h42M235 605h42M235 606h42M235 607h42M235 608h42M235 609h42M235 610h42M235 611h42M235 612h42M235 613h42M235 614h42M235 615h42M235 616h42M235 617h42M235 618h42M235 619h42M235 620h42M235 621h42M235 622h42M235 623h42M235 624h42M235 625h42M235 626h42M235 627h42M235 628h42M235 629h42M235 630h42M235 631h42M235 632h42M235 633h42M235 634h42M235 635h42M235 636h42M235 637h42M235 638h42M235 639h42M235 640h42M235 641h42M235 642h42M235 643h42M235 644h42M235 645h42M235 646h42M235 647h42M235 648h42M235 649h42M235 650h42M235 651h42M235 652h42M235 653h42M235 654h42M235 655h42M235 656h42M235 657h42M235 658h42M235 659h42M235 660h42M235 661h490M235 662h490M235 663h490M235 664h490M235 665h490M235 666h490M235 667h490M235 668h490M235 669h490M235 670h490M235 671h490M235 672h490M235 673h490M235 674h490M235 675h490M235 676h490M235 677h490M235 678h490M235 679h490M235 680h490M235 681h490M235 682h490M235 683h490M235 684h490M235 685h490M235 686h490M235 687h490M235 688h490M235 689h490M235 690h490M235 691h490M235 692h490M235 693h490M235 694h490M235 695h490M235 696h490M235 697h490M235 698h490M235 699h490M235 700h490M235 701h490M235 702h490M235 703h490" />
<path stroke="#b7a800" d="M277 341h128M277 342h128M277 343h128M277 344h128M277 345h128M277 346h128M277 347h128M277 348h128M277 349h128M277 350h128M277 351h128M277 352h128M277 353h128M277 354h128M277 355h128M277 356h128M277 357h128M277 358h128M277 359h128M277 360h128M277 361h128M277 362h128M277 363h128M277 364h128M277 365h128M277 366h128M277 367h128M277 368h128M277 369h128M277 370h128M277 371h128M277 372h128M277 373h128M277 374h128M277 375h128M277 376h128M277 377h128M277 378h128M277 379h128M277 380h128M277 381h128M277 382h128M277 383h128" />
<path stroke="#ccbe00" d="M405 341h363M405 342h363M405 343h363M405 344h363M405 345h363M405 346h363M405 347h363M405 348h363M405 349h363M405 350h363M405 351h363M405 352h363M405 353h363M405 354h363M405 355h363M405 356h363M405 357h363M405 358h363M405 359h363M405 360h363M405 361h363M405 362h363M405 363h363M405 364h363M405 365h363M405 366h363M405 367h363M405 368h363M405 369h363M405 370h363M405 371h363M405 372h363M405 373h363M405 374h363M405 375h363M405 376h363M405 377h363M405 378h363M405 379h363M405 380h363M405 381h363M405 382h363M405 383h363" />
<path stroke="#91b9f2" d="M277 384h128M277 385h128M277 386h128M277 387h128M277 388h128M277 389h128M277 390h128M277 391h128M277 392h128M277 393h128M277 394h128M277 395h128M277 396h128M277 397h128M277 398h128M277 399h128M277 400h128M277 401h128M277 402h128M277 403h128M277 404h128M277 405h128M277 406h128M277 407h128M277 408h128M277 409h128M277 410h128M277 411h128M277 412h128M277 413h128M277 414h128M277 415h128M277 416h128M277 417h128M277 418h128M277 419h128M277 420h128M277 421h128M277 422h128M277 423h128M277 424h128M277 425h128M277 426h128M277 427h128M277 428h128M277 429h128M277 430h128M277 431h128M277 432h128M277 433h128M277 434h128M277 435h128M277 436h128M277 437h128M277 438h128M277 439h128M277 440h128M277 441h128M277 442h128M277 443h128M277 444h128M277 445h128M277 446h128M277 447h128M277 448h128M277 449h128M277 450h128M277 451h128M277 452h128M277 453h128M277 454h128M277 455h128M277 456h128M277 457h128M277 458h128M277 459h128M277 460h128M277 461h128M277 462h128M277 463h128M277 464h128M277 465h128M277 466h128M277 467h128M277 468h128M277 469h128M277 470h128M277 471h128M277 472h128M277 473h128M277 474h128M277 475h128M277 476h128M277 477h128M277 478h128M277 479h128M277 480h128M277 481h128M277 482h128M277 483h128M277 484h128M277 485h128M277 486h128M277 487h128M277 488h128M277 489h128M277 490h128M277 491h128M277 492h128M277 493h128M277 494h128M277 495h128M277 496h128M277 497h128M277 498h128M277 499h128M277 500h128M277 501h128M277 502h128M277 503h128M277 504h128M277 505h128M277 506h128M277 507h128M277 508h128M277 509h128M277 510h128M277 511h128M277 512h128M277 513h128M277 514h128M277 515h128M277 516h128M277 517h128M277 518h128M277 519h128M277 520h128M277 521h128M277 522h128M277 523h128M277 524h128M277 525h128M277 526h128M277 527h128M277 528h128M277 529h128M277 530h128M277 531h128M277 532h128M277 533h128M277 534h128M277 535h128M277 536h128M277 537h128M277 538h128M277 539h128M277 540h128M277 541h128M277 542h128M277 543h128M277 544h128M277 545h128M277 546h128M277 547h128M277 548h128M277 549h128M277 550h128M277 551h128M277 552h128M277 553h128M277 554h128M277 555h128M277 556h128M277 557h128M277 558h128M277 559h128M277 560h128M277 561h128M277 562h128M277 563h128M277 564h128M277 565h128M277 566h128M277 567h128M277 568h128M277 569h128M277 570h128M277 571h128M277 572h128M277 573h128M277 574h128M277 575h128M277 576h128M277 577h128M277 578h128M277 579h128M277 580h128M277 581h128M277 582h128M277 583h128M277 584h128M277 585h128M277 586h128M277 587h128M277 588h128M277 589h128M277 590h128M277 591h128M277 592h128M277 593h128M277 594h128M277 595h128M277 596h128M277 597h128M277 598h128M277 599h128M277 600h128M277 601h128M277 602h128M277 603h128M277 604h128M277 605h128M277 606h128M277 607h128M277 608h128M277 609h128M277 610h128M277 611h128M277 612h128M277 613h128M277 614h128M277 615h128M277 616h128M277 617h128M277 618h128M277 619h128M277 620h128M277 621h128M277 622h128M277 623h128M277 624h128M277 625h128M277 626h128M277 627h128M277 628h128M277 629h128M277 630h128M277 631h128M277 632h128M277 633h128M277 634h128M277 635h128M277 636h128M277 637h128M277 638h128M277 639h128M299 640h106M299 641h106M299 642h106M299 643h106M299 644h106M299 645h106M299 646h106M299 647h106M299 648h106M299 649h106M299 650h106M299 651h106M299 652h106M299 653h106M299 654h106M299 655h106M299 656h106M299 657h106M299 658h106M299 659h106M299 660h106" />
<path stroke="#a2d2ff" d="M405 384h43M725 384h43M405 385h43M725 385h43M405 386h43M725 386h43M405 387h43M725 387h43M405 388h43M725 388h43M405 389h43M725 389h43M405 390h43M725 390h43M405 391h43M725 391h43M405 392h43M725 392h43M405 393h43M725 393h43M405 394h43M725 394h43M405 395h43M725 395h43M405 396h43M725 396h43M405 397h43M725 397h43M405 398h43M725 398h43M405 399h43M725 399h43M405 400h43M725 400h43M405 401h43M725 401h43M405 402h43M725 402h43M405 403h43M725 403h43M405 404h43M725 404h43M405 405h43M725 405h43M405 406h43M725 406h43M405 407h43M725 407h43M405 408h43M725 408h43M405 409h43M725 409h43M405 410h43M725 410h43M405 411h43M725 411h43M405 412h43M725 412h43M405 413h43M725 413h43M405 414h43M725 414h43M405 415h43M725 415h43M405 416h43M725 416h43M405 417h43M725 417h43M405 418h43M725 418h43M405 419h43M725 419h43M405 420h43M725 420h43M405 421h43M725 421h43M405 422h43M725 422h43M405 423h43M725 423h43M405 424h43M725 424h43M405 425h43M725 425h43M405 426h43M725 426h43M405 427h43M725 427h43M405 428h43M725 428h43M405 429h43M725 429h43M405 430h43M725 430h43M405 431h43M725 431h43M405 432h43M725 432h43M405 433h43M725 433h43M405 434h43M725 434h43M405 435h43M725 435h43M405 436h43M725 436h43M405 437h43M725 437h43M405 438h43M725 438h43M405 439h43M725 439h43M405 440h43M725 440h43M405 441h43M725 441h43M405 442h43M725 442h43M405 443h43M725 443h43M405 444h43M725 444h43M405 445h43M725 445h43M405 446h43M725 446h43M405 447h43M725 447h43M405 448h43M725 448h43M405 449h43M725 449h43M405 450h43M725 450h43M405 451h43M725 451h43M405 452h43M725 452h43M405 453h43M725 453h43M405 454h43M725 454h43M405 455h43M725 455h43M405 456h43M725 456h43M405 457h43M725 457h43M405 458h43M725 458h43M405 459h43M725 459h43M405 460h43M725 460h43M405 461h43M725 461h43M405 462h43M725 462h43M405 463h43M725 463h43M405 464h43M725 464h43M405 465h43M725 465h43M405 466h43M725 466h43M405 467h43M725 467h43M405 468h43M725 468h43M405 469h43M725 469h43M405 470h43M725 470h43M405 471h43M725 471h43M405 472h43M725 472h43M405 473h43M725 473h43M405 474h43M725 474h43M405 475h43M725 475h43M405 476h43M725 476h43M405 477h43M725 477h43M405 478h43M725 478h43M405 479h43M725 479h43M405 480h43M725 480h43M405 481h43M725 481h43M405 482h43M725 482h43M405 483h43M725 483h43M405 484h43M725 484h43M405 485h43M725 485h43M405 486h43M725 486h43M405 487h43M725 487h43M405 488h43M725 488h43M405 489h43M725 489h43M405 490h43M725 490h43M405 491h43M747 491h21M405 492h43M747 492h21M405 493h43M747 493h21M405 494h43M747 494h21M405 495h43M747 495h21M405 496h43M747 496h21M405 497h43M747 497h21M405 498h43M747 498h21M405 499h43M747 499h21M405 500h43M747 500h21M405 501h43M747 501h21M405 502h43M747 502h21M405 503h43M747 503h21M405 504h43M747 504h21M405 505h43M747 505h21M405 506h43M747 506h21M405 507h43M747 507h21M405 508h43M747 508h21M405 509h43M747 509h21M405 510h43M747 510h21M405 511h43M747 511h21M405 512h43M747 512h21M405 513h43M747 513h21M405 514h43M747 514h21M405 515h43M747 515h21M405 516h43M747 516h21M405 517h43M747 517h21M405 518h43M747 518h21M405 519h43M747 519h21M405 520h43M747 520h21M405 521h43M747 521h21M405 522h43M747 522h21M405 523h43M747 523h21M405 524h43M747 524h21M405 525h43M747 525h21M405 526h43M747 526h21M405 527h43M747 527h21M405 528h43M747 528h21M405 529h43M747 529h21M405 530h43M747 530h21M405 531h43M747 531h21M405 532h43M747 532h21M405 533h43M747 533h21M405 534h43M747 534h21M405 535h43M747 535h21M405 536h43M747 536h21M405 537h43M747 537h21M405 538h43M747 538h21M405 539h43M747 539h21M405 540h43M747 540h21M405 541h43M747 541h21M405 542h43M747 542h21M405 543h43M747 543h21M405 544h43M747 544h21M405 545h43M747 545h21M405 546h43M747 546h21M405 547h43M747 547h21M405 548h43M747 548h21M405 549h43M747 549h21M405 550h43M747 550h21M405 551h43M747 551h21M405 552h43M747 552h21M405 553h43M747 553h21M405 554h43M747 554h21M405 555h43M747 555h21M405 556h43M747 556h21M405 557h43M747 557h21M405 558h43M747 558h21M405 559h43M747 559h21M405 560h43M747 560h21M405 561h43M747 561h21M405 562h43M747 562h21M405 563h43M747 563h21M405 564h43M747 564h21M405 565h43M747 565h21M405 566h43M747 566h21M405 567h43M747 567h21M405 568h43M747 568h21M405 569h43M747 569h21M405 570h43M747 570h21M405 571h43M747 571h21M405 572h43M747 572h21M405 573h43M747 573h21M405 574h43M747 574h21M405 575h43M747 575h21M405 576h43M747 576h21M405 577h43M747 577h21M405 578h43M747 578h21M405 579h43M747 579h21M405 580h43M747 580h21M405 581h43M747 581h21M405 582h43M747 582h21M405 583h43M747 583h21M405 584h43M747 584h21M405 585h43M747 585h21M405 586h43M747 586h21M405 587h43M747 587h21M405 588h43M747 588h21M405 589h43M747 589h21M405 590h43M747 590h21M405 591h43M747 591h21M405 592h43M747 592h21M405 593h43M747 593h21M405 594h43M747 594h21M405 595h43M747 595h21M405 596h43M747 596h21M405 597h43M747 597h21M405 598h43M747 598h21M405 599h43M747 599h21M405 600h43M747 600h21M405 601h43M747 601h21M405 602h43M747 602h21M405 603h43M747 603h21M405 604h43M747 604h21M405 605h43M747 605h21M405 606h43M747 606h21M405 607h43M747 607h21M405 608h43M747 608h21M405 609h43M747 609h21M405 610h43M747 610h21M405 611h43M747 611h21M405 612h43M747 612h21M405 613h43M747 613h21M405 614h43M747 614h21M405 615h43M747 615h21M405 616h43M747 616h21M405 617h43M747 617h21M405 618h43M747 618h21M405 619h43M747 619h21M405 620h43M747 620h21M405 621h43M747 621h21M405 622h43M747 622h21M405 623h43M747 623h21M405 624h43M747 624h21M405 625h43M747 625h21M405 626h43M747 626h21M405 627h43M747 627h21M405 628h43M747 628h21M405 629h43M747 629h21M405 630h43M747 630h21M405 631h43M747 631h21M405 632h43M747 632h21M405 633h43M747 633h21M405 634h43M747 634h21M405 635h43M747 635h21M405 636h43M747 636h21M405 637h43M747 637h21M405 638h43M747 638h21M405 639h43M747 639h21M405 640h43M725 640h43M405 641h43M725 641h43M405 642h43M725 642h43M405 643h43M725 643h43M405 644h43M725 644h43M405 645h43M725 645h43M405 646h43M725 646h43M405 647h43M725 647h43M405 648h43M725 648h43M405 649h43M725 649h43M405 650h43M725 650h43M405 651h43M725 651h43M405 652h43M725 652h43M405 653h43M725 653h43M405 654h43M725 654h43M405 655h43M725 655h43M405 656h43M725 656h43M405 657h43M725 657h43M405 658h43M725 658h43M405 659h43M725 659h43M405 660h43M725 660h43" />
<path stroke="#f2d06d" d="M448 384h85M640 384h85M448 385h85M640 385h85M448 386h85M640 386h85M448 387h85M640 387h85M448 388h85M640 388h85M448 389h85M640 389h85M448 390h85M640 390h85M448 391h85M640 391h85M448 392h85M640 392h85M448 393h85M640 393h85M448 394h85M640 394h85M448 395h85M640 395h85M448 396h85M640 396h85M448 397h85M640 397h85M448 398h85M640 398h85M448 399h85M640 399h85M448 400h85M640 400h85M448 401h85M640 401h85M448 402h85M640 402h85M448 403h85M640 403h85M448 404h85M640 404h85M448 405h85M640 405h85M448 406h85M640 406h85M448 407h85M640 407h85M448 408h85M640 408h85M448 409h85M640 409h85M448 410h85M640 410h85M448 411h85M640 411h85M448 412h85M640 412h85M448 413h85M640 413h85M448 414h85M640 414h85M448 415h85M640 415h85M448 416h85M640 416h85M448 417h85M640 417h85M448 418h85M640 418h85M448 419h85M640 419h85M448 420h85M640 420h85M448 421h85M640 421h85M448 422h85M640 422h85M448 423h85M640 423h85M448 424h85M640 424h85M448 425h85M640 425h85M448 426h85M640 426h85M448 427h43M683 427h42M448 428h43M683 428h42M448 429h43M683 429h42M448 430h43M683 430h42M448 431h43M683 431h42M448 432h43M683 432h42M448 433h43M683 433h42M448 434h43M683 434h42M448 435h43M683 435h42M448 436h43M683 436h42M448 437h43M683 437h42M448 438h43M683 438h42M448 439h43M683 439h42M448 440h43M683 440h42M448 441h43M683 441h42M448 442h43M683 442h42M448 443h43M683 443h42M448 444h43M683 444h42M448 445h43M683 445h42M448 446h43M683 446h42M448 447h43M683 447h42M448 448h43M683 448h42M448 449h43M683 449h42M448 450h43M683 450h42M448 451h43M683 451h42M448 452h43M683 452h42M448 453h43M683 453h42M448 454h43M683 454h42M448 455h43M683 455h42M448 456h43M683 456h42M448 457h43M683 457h42M448 458h43M683 458h42M448 459h43M683 459h42M448 460h43M683 460h42M448 461h43M683 461h42M448 462h43M683 462h42M448 463h43M683 463h42M448 464h43M683 464h42M448 465h43M683 465h42M448 466h43M683 466h42M448 467h43M683 467h42M448 468h43M683 468h42" />
<path stroke="#fde977" d="M533 384h107M533 385h107M533 386h107M533 387h107M533 388h107M533 389h107M533 390h107M533 391h107M533 392h107M533 393h107M533 394h107M533 395h107M533 396h107M533 397h107M533 398h107M533 399h107M533 400h107M533 401h107M533 402h107M533 403h107M533 404h107M533 405h107M533 406h107M533 407h107M533 408h107M533 409h107M533 410h107M533 411h107M533 412h107M533 413h107M533 414h107M533 415h107M533 416h107M533 417h107M533 418h107M533 419h107M533 420h107M533 421h107M533 422h107M533 423h107M533 424h107M533 425h107M533 426h107M491 427h192M491 428h192M491 429h192M491 430h192M491 431h192M491 432h192M491 433h192M491 434h192M491 435h192M491 436h192M491 437h192M491 438h192M491 439h192M491 440h192M491 441h192M491 442h192M491 443h192M491 444h192M491 445h192M491 446h192M491 447h192M491 448h192M491 449h192M491 450h192M491 451h192M491 452h192M491 453h192M491 454h192M491 455h192M491 456h192M491 457h192M491 458h192M491 459h192M491 460h192M491 461h192M491 462h192M491 463h192M491 464h192M491 465h192M491 466h192M491 467h192M491 468h192M448 469h277M448 470h277M448 471h277M448 472h277M448 473h277M448 474h277M448 475h277M448 476h277M448 477h277M448 478h277M448 479h277M448 480h277M448 481h277M448 482h277M448 483h277M448 484h277M448 485h277M448 486h277M448 487h277M448 488h277M448 489h277M448 490h277M448 491h277M448 492h277M448 493h277M448 494h277M448 495h277M448 496h277M448 497h277M448 498h277M448 499h277M448 500h277M448 501h277M448 502h277M448 503h277M448 504h277M448 505h277M448 506h277M448 507h277M448 508h277M448 509h277M448 510h277M448 511h277M448 512h277M448 513h277M448 514h277M448 515h277M448 516h277M448 517h277M448 518h277M448 519h277M448 520h277M448 521h277M448 522h277M448 523h277M448 524h277M448 525h277M448 526h277M448 527h277M448 528h277M448 529h277M448 530h277M448 531h277M448 532h277M448 533h277M448 534h277M448 535h277M448 536h277M448 537h277M448 538h277M448 539h277M448 540h277M448 541h277M448 542h277M448 543h277M448 544h277M448 545h277M448 546h277M448 547h277M448 548h277M448 549h277M448 550h277M448 551h277M448 552h277M448 553h277M448 554h277M448 555h277M448 556h277M448 557h277M448 558h277M448 559h277M448 560h277M448 561h277M448 562h277M448 563h277M448 564h277M448 565h277M448 566h277M448 567h277M448 568h277M448 569h277M448 570h277M448 571h277M448 572h277M448 573h277M448 574h277M448 575h277M491 576h42M640 576h43M491 577h42M640 577h43M491 578h42M640 578h43M491 579h42M640 579h43M491 580h42M640 580h43M491 581h42M640 581h43M491 582h42M640 582h43M491 583h42M640 583h43M491 584h42M640 584h43M491 585h42M640 585h43M491 586h42M640 586h43M491 587h42M640 587h43M491 588h42M640 588h43M491 589h42M640 589h43M491 590h42M640 590h43M491 591h42M640 591h43M491 592h42M640 592h43M491 593h42M640 593h43M491 594h42M640 594h43M491 595h42M640 595h43M491 596h42M640 596h43M491 597h42M640 597h43M491 598h42M640 598h43M491 599h42M640 599h43M491 600h42M640 600h43M491 601h42M640 601h43M491 602h42M640 602h43M491 603h42M640 603h43M491 604h42M640 604h43M491 605h42M640 605h43M491 606h42M640 606h43M491 607h42M640 607h43M491 608h42M640 608h43M491 609h42M640 609h43M491 610h42M640 610h43M491 611h42M640 611h43M491 612h42M640 612h43M491 613h42M640 613h43M491 614h42M640 614h43M491 615h42M640 615h43M491 616h42M640 616h43M491 617h42M640 617h43M491 618h42M640 618h43M448 619h277M448 620h277M448 621h277M448 622h277M448 623h277M448 624h277M448 625h277M448 626h277M448 627h277M448 628h277M448 629h277M448 630h277M448 631h277M448 632h277M448 633h277M448 634h277M448 635h277M448 636h277M448 637h277M448 638h277M448 639h277M448 640h277M448 641h277M448 642h277M448 643h277M448 644h277M448 645h277M448 646h277M448 647h277M448 648h277M448 649h277M448 650h277M448 651h277M448 652h277M448 653h277M448 654h277M448 655h277M448 656h277M448 657h277M448 658h277M448 659h277M448 660h277" />
<path stroke="rgba(188,218,240,0.27058823529411763)" d="M1011 398h1M625 1011h1" />
<path stroke="#a2d2fe" d="M725 491h22M725 492h22M725 493h22M725 494h22M725 495h22M725 496h22M725 497h22M725 498h22M725 499h22M725 500h22M725 501h22M725 502h22M725 503h22M725 504h22M725 505h22M725 506h22M725 507h22M725 508h22M725 509h22M725 510h22M725 511h22M725 512h22M725 513h22M725 514h22M725 515h22M725 516h22M725 517h22M725 518h22M725 519h22M725 520h22M725 521h22M725 522h22M725 523h22M725 524h22M725 525h22M725 526h22M725 527h22M725 528h22M725 529h22M725 530h22M725 531h22M725 532h22" />
<path stroke="#a5d3fc" d="M725 533h22M725 534h22M725 535h22M725 536h22M725 537h22M725 538h22M725 539h22M725 540h22M725 541h22M725 542h22M725 543h22M725 544h22M725 545h22M725 546h22M725 547h22M725 548h22M725 549h22M725 550h22M725 551h22M725 552h22M725 553h22M725 554h22M725 555h22M725 556h22M725 557h22M725 558h22M725 559h22M725 560h22M725 561h22M725 562h22M725 563h22M725 564h22M725 565h22M725 566h22M725 567h22M725 568h22M725 569h22M725 570h22M725 571h22M725 572h22M725 573h22M725 574h22M725 575h22M725 576h22M725 577h22M725 578h22M725 579h22M725 580h22M725 581h22M725 582h22M725 583h22M725 584h22M725 585h22M725 586h22M725 587h22M725 588h22M725 589h22M725 590h22M725 591h22M725 592h22M725 593h22M725 594h22M725 595h22M725 596h22" />
<path stroke="#6a6a6a" d="M448 576h43M683 576h42M448 577h43M683 577h42M448 578h43M683 578h42M448 579h43M683 579h42M448 580h43M683 580h42M448 581h43M683 581h42M448 582h43M683 582h42M448 583h43M683 583h42M448 584h43M683 584h42M448 585h43M683 585h42M448 586h43M683 586h42M448 587h43M683 587h42M448 588h43M683 588h42M448 589h43M683 589h42M448 590h43M683 590h42M448 591h43M683 591h42M448 592h43M683 592h42M448 593h43M683 593h42M448 594h43M683 594h42M448 595h43M683 595h42M448 596h43M683 596h42M448 597h43M683 597h42M448 598h43M683 598h42M448 599h43M683 599h42M448 600h43M683 600h42M448 601h43M683 601h42M448 602h43M683 602h42M448 603h43M683 603h42M448 604h43M683 604h42M448 605h43M683 605h42M448 606h43M683 606h42M448 607h43M683 607h42M448 608h43M683 608h42M448 609h43M683 609h42M448 610h43M683 610h42M448 611h43M683 611h42M448 612h43M683 612h42M448 613h43M683 613h42M448 614h43M683 614h42M448 615h43M683 615h42M448 616h43M683 616h42M448 617h43M683 617h42M448 618h43M683 618h42" />
<path stroke="#ffa64d" d="M533 576h107M533 577h107M533 578h107M533 579h107M533 580h107M533 581h107M533 582h107M533 583h107M533 584h107M533 585h107M533 586h107M533 587h107M533 588h107M533 589h107M533 590h107M533 591h107M533 592h107M533 593h107M533 594h107M533 595h107M533 596h107M533 597h107M533 598h107M533 599h107M533 600h107M533 601h107M533 602h107M533 603h107M533 604h107M533 605h107M533 606h107M533 607h107M533 608h107M533 609h107M533 610h107M533 611h107M533 612h107M533 613h107M533 614h107M533 615h107M533 616h107M533 617h107M533 618h107" />
<path stroke="#a7d3fb" d="M725 597h22M725 598h22M725 599h22M725 600h22M725 601h22M725 602h22M725 603h22M725 604h22M725 605h22M725 606h22M725 607h22M725 608h22M725 609h22M725 610h22M725 611h22M725 612h22M725 613h22M725 614h22M725 615h22M725 616h22M725 617h22M725 618h22M725 619h22M725 620h22M725 621h22M725 622h22M725 623h22M725 624h22M725 625h22M725 626h22M725 627h22M725 628h22M725 629h22M725 630h22M725 631h22M725 632h22M725 633h22M725 634h22M725 635h22M725 636h22M725 637h22M725 638h22M725 639h22" />
<path stroke="#92b9f1" d="M277 640h22M277 641h22M277 642h22M277 643h22M277 644h22M277 645h22M277 646h22M277 647h22M277 648h22M277 649h22M277 650h22M277 651h22M277 652h22M277 653h22M277 654h22M277 655h22M277 656h22M277 657h22M277 658h22M277 659h22M277 660h22" />
<path stroke="#bcd9ee" d="M747 683h21M747 684h21M747 685h21M747 686h21M747 687h21M747 688h21M747 689h21M747 690h21M747 691h21M747 692h21M747 693h21M747 694h21M747 695h21M747 696h21M747 697h21M747 698h21M747 699h21M747 700h21M747 701h21M747 702h21M747 703h21" />
<path stroke="rgba(189,218,240,0.7764705882352941)" d="M115 835h1M908 835h1M188 908h1M835 908h1" />
</svg>