<svg xmlns="http://www.w3.org/2000/svg" viewBox="0 -0.5 1024 1024" shape-rendering="crispEdges">
<metadata>Made with Pixels to Svg https://codepen.io/shshaw/pen/XbxvNj</metadata>
<path stroke="#bddaef" d="M0 0h1024M0 1h1024M0 2h1024M0 3h1024M0 4h1024M0 5h1024M0 6h1024M0 7h1024M0 8h1024M0 9h1024M0 10h1024M0 11h1024M0 12h1024M0 13h1024M0 14h1024M0 15h1024M0 16h1024M0 17h1024M0 18h1024M0 19h1024M0 20h1024M0 21h1024M0 22h1024M0 23h1024M0 24h1024M0 25h1024M0 26h1024M0 27h1024M0 28h1024M0 29h1024M0 30h1024M0 31h1024M0 32h1024M0 33h1024M0 34h1024M0 35h1024M0 36h1024M0 37h1024M0 38h1024M0 39h1024M0 40h1024M0 41h1024M0 42h1024M0 43h1024M0 44h1024M0 45h1024M0 46h1024M0 47h1024M0 48h1024M0 49h1024M0 50h1024M0 51h1024M0 52h1024M0 53h1024M0 54h1024M0 55h1024M0 56h1024M0 57h1024M0 58h1024M0 59h1024M0 60h1024M0 61h1024M0 62h1024M0 63h1024M0 64h1024M0 65h1024M0 66h1024M0 67h1024M0 68h1024M0 69h1024M0 70h1024M0 71h1024M0 72h1024M0 73h1024M0 74h1024M0 75h1024M0 76h1024M0 77h1024M0 78h1024M0 79h1024M0 80h1024M0 81h1024M0 82h1024M0 83h1024M0 84h1024M0 85h1024M0 86h1024M0 87h1024M0 88h1024M0 89h1024M0 90h1024M0 91h1024M0 92h1024M0 93h1024M0 94h1024M0 95h1024M0 96h1024M0 97h1024M0 98h1024M0 99h1024M0 100h1024M0 101h1024M0 102h1024M0 103h1024M0 104h1024M0 105h1024M0 106h1024M0 107h1024M0 108h1024M0 109h1024M0 110h1024M0 111h1024M0 112h1024M0 113h1024M0 114h1024M0 115h1024M0 116h1024M0 117h1024M0 118h1024M0 119h1024M0 120h1024M0 121h1024M0 122h1024M0 123h1024M0 124h1024M0 125h1024M0 126h1024M0 127h1024M0 128h1024M0 129h1024M0 130h1024M0 131h1024M0 132h1024M0 133h1024M0 134h1024M0 135h1024M0 136h1024M0 137h1024M0 138h1024M0 139h1024M0 140h1024M0 141h1024M0 142h1024M0 143h1024M0 144h1024M0 145h1024M0 146h1024M0 147h1024M0 148h1024M0 149h1024M0 150h1024M0 151h1024M0 152h1024M0 153h1024M0 154h1024M0 155h1024M0 156h1024M0 157h1024M0 158h1024M0 159h1024M0 160h1024M0 161h1024M0 162h1024M0 163h1024M0 164h1024M0 165h1024M0 166h1024M0 167h1024M0 168h1024M0 169h1024M0 170h1024M0 171h1024M0 172h1024M0 173h1024M0 174h1024M0 175h1024M0 176h1024M0 177h1024M0 178h1024M0 179h1024M0 180h1024M0 181h1024M0 182h1024M0 183h1024M0 184h1024M0 185h1024M0 186h1024M0 187h1024M0 188h1024M0 189h1024M0 190h1024M0 191h1024M0 192h1024M0 193h1024M0 194h1024M0 195h1024M0 196h1024M0 197h1024M0 198h1024M0 199h1024M0 200h1024M0 201h1024M0 202h1024M0 203h1024M0 204h1024M0 205h1024M0 206h1024M0 207h1024M0 208h1024M0 209h1024M0 210h1024M0 211h1024M0 212h1024M0 213h1024M0 214h1024M0 215h1024M0 216h1024M0 217h1024M0 218h1024M0 219h1024M0 220h1024M0 221h1024M0 222h1024M0 223h1024M0 224h1024M0 225h1024M0 226h1024M0 227h1024M0 228h1024M0 229h1024M0 230h1024M0 231h1024M0 232h1024M0 233h1024M0 234h1024M0 235h1024M0 236h1024M0 237h1024M0 238h1024M0 239h1024M0 240h1024M0 241h1024M0 242h1024M0 243h1024M0 244h1024M0 245h1024M0 246h1024M0 247h1024M0 248h1024M0 249h1024M0 250h1024M0 251h1024M0 252h1024M0 253h1024M0 254h1024M0 255h1024M0 256h1024M0 257h1024M0 258h1024M0 259h1024M0 260h1024M0 261h1024M0 262h1024M0 263h1024M0 264h1024M0 265h1024M0 266h1024M0 267h1024M0 268h1024M0 269h1024M0 270h1024M0 271h1024M0 272h1024M0 273h1024M0 274h1024M0 275h1024M0 276h1024M0 277h1024M0 278h1024M0 279h1024M0 280h1024M0 281h1024M0 282h1024M0 283h1024M0 284h1024M0 285h1024M0 286h1024M0 287h1024M0 288h1024M0 289h1024M0 290h1024M0 291h1024M0 292h1024M0 293h1024M0 294h1024M0 295h1024M0 296h1024M0 297h1024M0 298h277M768 298h256M0 299h277M768 299h256M0 300h277M768 300h256M0 301h277M768 301h256M0 302h277M768 302h256M0 303h277M768 303h256M0 304h277M768 304h256M0 305h277M768 305h256M0 306h277M768 306h256M0 307h277M768 307h256M0 308h277M768 308h256M0 309h277M768 309h256M0 310h277M768 310h256M0 311h277M768 311h256M0 312h277M768 312h256M0 313h277M768 313h256M0 314h277M768 314h256M0 315h277M768 315h256M0 316h277M768 316h256M0 317h277M768 317h256M0 318h277M768 318h256M0 319h277M768 319h256M0 320h277M768 320h256M0 321h277M768 321h256M0 322h277M768 322h256M0 323h277M768 323h256M0 324h277M768 324h256M0 325h277M768 325h256M0 326h277M768 326h256M0 327h277M768 327h256M0 328h277M768 328h256M0 329h277M768 329h256M0 330h277M768 330h256M0 331h277M768 331h256M0 332h277M768 332h256M0 333h277M768 333h256M0 334h277M768 334h256M0 335h277M768 335h256M0 336h277M768 336h256M0 337h277M768 337h256M0 338h277M768 338h256M0 339h277M768 339h256M0 340h277M768 340h256M0 341h234M768 341h256M0 342h234M768 342h256M0 343h234M768 343h256M0 344h234M768 344h256M0 345h234M768 345h256M0 346h234M768 346h256M0 347h234M768 347h256M0 348h234M768 348h256M0 349h234M768 349h256M0 350h234M768 350h256M0 351h234M768 351h256M0 352h234M768 352h256M0 353h234M768 353h256M0 354h234M768 354h256M0 355h234M768 355h256M0 356h234M768 356h256M0 357h234M768 357h256M0 358h234M768 358h256M0 359h234M768 359h256M0 360h234M768 360h256M0 361h234M768 361h256M0 362h234M768 362h256M0 363h234M768 363h256M0 364h234M768 364h256M0 365h234M768 365h256M0 366h234M768 366h256M0 367h234M768 367h256M0 368h234M768 368h256M0 369h234M768 369h256M0 370h234M768 370h256M0 371h234M768 371h256M0 372h234M768 372h256M0 373h234M768 373h256M0 374h234M768 374h256M0 375h234M768 375h256M0 376h234M768 376h256M0 377h234M768 377h256M0 378h234M768 378h256M0 379h234M768 379h256M0 380h234M768 380h256M0 381h234M768 381h256M0 382h234M768 382h256M0 383h234M768 383h256M0 384h234M768 384h256M0 385h234M768 385h256M0 386h234M768 386h256M0 387h234M768 387h256M0 388h234M768 388h256M0 389h234M768 389h256M0 390h234M768 390h256M0 391h234M768 391h256M0 392h234M768 392h256M0 393h234M768 393h256M0 394h234M768 394h256M0 395h234M768 395h256M0 396h234M768 396h256M0 397h234M768 397h256M0 398h234M768 398h256M0 399h234M768 399h256M0 400h234M768 400h256M0 401h234M768 401h256M0 402h234M768 402h256M0 403h234M768 403h256M0 404h234M768 404h256M0 405h234M768 405h256M0 406h234M768 406h256M0 407h234M768 407h256M0 408h234M768 408h256M0 409h234M768 409h256M0 410h234M768 410h256M0 411h234M768 411h256M0 412h234M768 412h256M0 413h234M768 413h256M0 414h234M768 414h256M0 415h234M768 415h256M0 416h234M768 416h256M0 417h234M768 417h256M0 418h234M768 418h256M0 419h234M768 419h256M0 420h234M768 420h256M0 421h234M768 421h256M0 422h234M768 422h256M0 423h234M768 423h256M0 424h234M768 424h256M0 425h234M768 425h256M0 426h234M768 426h256M0 427h234M768 427h256M0 428h234M768 428h256M0 429h234M768 429h256M0 430h234M768 430h256M0 431h234M768 431h256M0 432h234M768 432h256M0 433h234M768 433h256M0 434h234M768 434h256M0 435h234M768 435h256M0 436h234M768 436h256M0 437h234M768 437h256M0 438h234M768 438h256M0 439h234M768 439h256M0 440h234M768 440h256M0 441h234M768 441h256M0 442h234M768 442h256M0 443h234M768 443h256M0 444h234M768 444h256M0 445h234M768 445h256M0 446h234M768 446h256M0 447h234M768 447h256M0 448h234M768 448h256M0 449h234M768 449h256M0 450h234M768 450h256M0 451h234M768 451h256M0 452h234M768 452h256M0 453h234M768 453h256M0 454h234M768 454h256M0 455h234M768 455h256M0 456h234M768 456h256M0 457h234M768 457h256M0 458h234M768 458h256M0 459h234M768 459h256M0 460h234M768 460h256M0 461h234M768 461h256M0 462h234M768 462h256M0 463h234M768 463h256M0 464h234M768 464h256M0 465h234M768 465h256M0 466h234M768 466h256M0 467h234M768 467h256M0 468h234M768 468h256M0 469h234M768 469h256M0 470h234M768 470h256M0 471h234M768 471h256M0 472h234M768 472h256M0 473h234M768 473h256M0 474h234M768 474h256M0 475h234M768 475h256M0 476h234M768 476h256M0 477h234M768 477h256M0 478h234M768 478h256M0 479h234M768 479h256M0 480h234M768 480h256M0 481h234M768 481h256M0 482h234M768 482h256M0 483h234M768 483h256M0 484h234M768 484h256M0 485h234M768 485h256M0 486h234M768 486h256M0 487h234M768 487h256M0 488h234M768 488h256M0 489h234M768 489h256M0 490h234M768 490h256M0 491h234M768 491h256M0 492h234M768 492h256M0 493h234M768 493h256M0 494h234M768 494h256M0 495h234M768 495h256M0 496h234M768 496h256M0 497h234M768 497h256M0 498h234M768 498h256M0 499h234M768 499h256M0 500h234M768 500h256M0 501h234M768 501h256M0 502h234M768 502h256M0 503h234M768 503h256M0 504h234M768 504h256M0 505h234M768 505h256M0 506h234M768 506h256M0 507h234M768 507h256M0 508h234M768 508h256M0 509h234M768 509h256M0 510h234M768 510h256M0 511h234M768 511h256M0 512h234M768 512h256M0 513h234M768 513h256M0 514h234M768 514h256M0 515h234M768 515h256M0 516h234M768 516h256M0 517h234M768 517h256M0 518h234M768 518h256M0 519h234M768 519h256M0 520h234M768 520h256M0 521h234M768 521h256M0 522h234M768 522h256M0 523h234M768 523h256M0 524h234M768 524h256M0 525h234M768 525h256M0 526h234M768 526h256M0 527h234M768 527h256M0 528h234M768 528h256M0 529h234M768 529h256M0 530h234M768 530h256M0 531h234M768 531h256M0 532h234M768 532h256M0 533h234M768 533h256M0 534h234M768 534h256M0 535h234M768 535h256M0 536h234M768 536h256M0 537h234M768 537h256M0 538h234M768 538h256M0 539h234M768 539h256M0 540h234M768 540h256M0 541h234M768 541h256M0 542h234M768 542h256M0 543h234M768 543h256M0 544h234M768 544h256M0 545h234M768 545h256M0 546h234M768 546h256M0 547h234M768 547h256M0 548h234M768 548h256M0 549h234M768 549h256M0 550h234M768 550h256M0 551h234M768 551h256M0 552h234M768 552h256M0 553h234M768 553h256M0 554h234M768 554h256M0 555h234M768 555h256M0 556h234M768 556h256M0 557h234M768 557h256M0 558h234M768 558h256M0 559h234M768 559h256M0 560h234M768 560h256M0 561h234M768 561h256M0 562h234M768 562h256M0 563h234M768 563h256M0 564h234M768 564h256M0 565h234M768 565h256M0 566h234M768 566h256M0 567h234M768 567h256M0 568h234M768 568h256M0 569h234M768 569h256M0 570h234M768 570h256M0 571h234M768 571h256M0 572h234M768 572h256M0 573h234M768 573h256M0 574h234M768 574h256M0 575h234M768 575h256M0 576h234M768 576h256M0 577h234M768 577h256M0 578h234M768 578h256M0 579h234M768 579h256M0 580h234M768 580h256M0 581h234M768 581h256M0 582h234M768 582h256M0 583h234M768 583h256M0 584h234M768 584h256M0 585h234M768 585h256M0 586h234M768 586h256M0 587h234M768 587h256M0 588h234M768 588h256M0 589h234M768 589h256M0 590h234M768 590h256M0 591h234M768 591h256M0 592h234M768 592h256M0 593h234M768 593h256M0 594h234M768 594h256M0 595h234M768 595h256M0 596h234M768 596h256M0 597h234M768 597h256M0 598h234M768 598h256M0 599h234M768 599h256M0 600h234M768 600h256M0 601h234M768 601h256M0 602h234M768 602h256M0 603h234M768 603h256M0 604h234M768 604h256M0 605h234M768 605h256M0 606h234M768 606h256M0 607h234M768 607h256M0 608h234M768 608h256M0 609h234M768 609h256M0 610h234M768 610h256M0 611h234M768 611h256M0 612h234M768 612h256M0 613h234M768 613h256M0 614h234M768 614h256M0 615h234M768 615h256M0 616h234M768 616h256M0 617h234M768 617h256M0 618h234M768 618h256M0 619h234M768 619h256M0 620h234M768 620h256M0 621h234M768 621h256M0 622h234M768 622h256M0 623h234M768 623h256M0 624h234M768 624h256M0 625h234M768 625h256M0 626h234M768 626h256M0 627h234M768 627h256M0 628h234M768 628h256M0 629h234M768 629h256M0 630h234M768 630h256M0 631h234M768 631h256M0 632h234M768 632h256M0 633h234M768 633h256M0 634h234M768 634h256M0 635h234M768 635h256M0 636h234M768 636h256M0 637h234M768 637h256M0 638h234M768 638h256M0 639h234M768 639h256M0 640h234M768 640h256M0 641h234M768 641h256M0 642h234M768 642h256M0 643h234M768 643h256M0 644h234M768 644h256M0 645h234M768 645h256M0 646h234M768 646h256M0 647h234M768 647h256M0 648h234M768 648h256M0 649h234M768 649h256M0 650h234M768 650h256M0 651h234M768 651h256M0 652h234M768 652h256M0 653h234M768 653h256M0 654h234M768 654h256M0 655h234M768 655h256M0 656h234M768 656h256M0 657h234M768 657h256M0 658h234M768 658h256M0 659h234M768 659h256M0 660h234M768 660h256M0 661h234M725 661h299M0 662h234M725 662h299M0 663h234M725 663h299M0 664h234M725 664h299M0 665h234M725 665h299M0 666h234M725 666h299M0 667h234M725 667h299M0 668h234M725 668h299M0 669h234M725 669h299M0 670h234M725 670h299M0 671h234M725 671h299M0 672h234M725 672h299M0 673h234M725 673h299M0 674h234M725 674h299M0 675h234M725 675h299M0 676h234M725 676h299M0 677h234M725 677h299M0 678h234M725 678h299M0 679h234M725 679h299M0 680h234M725 680h299M0 681h234M725 681h299M0 682h234M725 682h21M768 682h256M0 683h234M725 683h21M768 683h256M0 684h234M725 684h21M768 684h256M0 685h234M725 685h21M768 685h256M0 686h234M725 686h21M768 686h256M0 687h234M725 687h21M768 687h256M0 688h234M725 688h21M768 688h256M0 689h234M725 689h21M768 689h256M0 690h234M725 690h21M768 690h256M0 691h234M725 691h21M768 691h256M0 692h234M725 692h21M768 692h256M0 693h234M725 693h21M768 693h256M0 694h234M725 694h21M768 694h256M0 695h234M725 695h21M768 695h256M0 696h234M725 696h21M768 696h256M0 697h234M725 697h21M768 697h256M0 698h234M725 698h21M768 698h256M0 699h234M725 699h21M768 699h256M0 700h234M725 700h21M768 700h256M0 701h234M725 701h21M768 701h256M0 702h234M725 702h21M768 702h256M0 703h234M725 703h21M768 703h256M0 704h1024M0 705h1024M0 706h1024M0 707h1024M0 708h1024M0 709h1024M0 710h1024M0 711h1024M0 712h1024M0 713h1024M0 714h1024M0 715h1024M0 716h1024M0 717h1024M0 718h1024M0 719h1024M0 720h1024M0 721h1024M0 722h1024M0 723h1024M0 724h1024M0 725h1024M0 726h1024M0 727h1024M0 728h1024M0 729h1024M0 730h1024M0 731h1024M0 732h1024M0 733h1024M0 734h1024M0 735h1024M0 736h1024M0 737h1024M0 738h1024M0 739h1024M0 740h1024M0 741h1024M0 742h1024M0 743h1024M0 744h1024M0 745h1024M0 746h1024M0 747h1024M0 748h1024M0 749h1024M0 750h1024M0 751h1024M0 752h1024M0 753h1024M0 754h1024M0 755h1024M0 756h1024M0 757h1024M0 758h1024M0 759h1024M0 760h1024M0 761h1024M0 762h1024M0 763h1024M0 764h1024M0 765h1024M0 766h1024M0 767h1024M0 768h1024M0 769h1024M0 770h1024M0 771h1024M0 772h1024M0 773h1024M0 774h1024M0 775h1024M0 776h1024M0 777h1024M0 778h1024M0 779h1024M0 780h1024M0 781h1024M0 782h1024M0 783h1024M0 784h1024M0 785h1024M0 786h1024M0 787h1024M0 788h1024M0 789h1024M0 790h1024M0 791h1024M0 792h1024M0 793h1024M0 794h1024M0 795h1024M0 796h1024M0 797h1024M0 798h1024M0 799h1024M0 800h1024M0 801h1024M0 802h1024M0 803h1024M0 804h1024M0 805h1024M0 806h1024M0 807h1024M0 808h1024M0 809h1024M0 810h1024M0 811h1024M0 812h1024M0 813h1024M0 814h1024M0 815h1024M0 816h1024M0 817h1024M0 818h1024M0 819h1024M0 820h1024M0 821h1024M0 822h1024M0 823h1024M0 824h1024M0 825h1024M0 826h1024M0 827h1024M0 828h1024M0 829h1024M0 830h1024M0 831h1024M0 832h1024M0 833h1024M0 834h1024M0 835h1024M0 836h1024M0 837h1024M0 838h1024M0 839h1024M0 840h1024M0 841h1024M0 842h1024M0 843h1024M0 844h1024M0 845h1024M0 846h1024M0 847h1024M0 848h1024M0 849h1024M0 850h1024M0 851h1024M0 852h1024M0 853h1024M0 854h1024M0 855h1024M0 856h1024M0 857h1024M0 858h1024M0 859h1024M0 860h1024M0 861h1024M0 862h1024M0 863h1024M0 864h1024M0 865h1024M0 866h1024M0 867h1024M0 868h1024M0 869h1024M0 870h1024M0 871h1024M0 872h1024M0 873h1024M0 874h1024M0 875h1024M0 876h1024M0 877h1024M0 878h1024M0 879h1024M0 880h1024M0 881h1024M0 882h1024M0 883h1024M0 884h1024M0 885h1024M0 886h1024M0 887h1024M0 888h1024M0 889h1024M0 890h1024M0 891h1024M0 892h1024M0 893h1024M0 894h1024M0 895h1024M0 896h1024M0 897h1024M0 898h1024M0 899h1024M0 900h1024M0 901h1024M0 902h1024M0 903h1024M0 904h1024M0 905h1024M0 906h1024M0 907h1024M0 908h1024M0 909h1024M0 910h1024M0 911h1024M0 912h1024M0 913h1024M0 914h1024M0 915h1024M0 916h1024M0 917h1024M0 918h1024M0 919h1024M0 920h1024M0 921h1024M0 922h1024M0 923h1024M0 924h1024M0 925h1024M0 926h1024M0 927h1024M0 928h1024M0 929h1024M0 930h1024M0 931h1024M0 932h1024M0 933h1024M0 934h1024M0 935h1024M0 936h1024M0 937h1024M0 938h1024M0 939h1024M0 940h1024M0 941h1024M0 942h1024M0 943h1024M0 944h1024M0 945h1024M0 946h1024M0 947h1024M0 948h1024M0 949h1024M0 950h1024M0 951h1024M0 952h1024M0 953h1024M0 954h1024M0 955h1024M0 956h1024M0 957h1024M0 958h1024M0 959h1024M0 960h1024M0 961h1024M0 962h1024M0 963h1024M0 964h1024M0 965h1024M0 966h1024M0 967h1024M0 968h1024M0 969h1024M0 970h1024M0 971h1024M0 972h1024M0 973h1024M0 974h1024M0 975h1024M0 976h1024M0 977h1024M0 978h1024M0 979h1024M0 980h1024M0 981h1024M0 982h1024M0 983h1024M0 984h1024M0 985h1024M0 986h1024M0 987h1024M0 988h1024M0 989h1024M0 990h1024M0 991h1024M0 992h1024M0 993h1024M0 994h1024M0 995h1024M0 996h1024M0 997h1024M0 998h1024M0 999h1024M0 1000h1024M0 1001h1024M0 1002h1024M0 1003h1024M0 1004h1024M0 1005h1024M0 1006h1024M0 1007h1024M0 1008h1024M0 1009h1024M0 1010h1024M0 1011h1024M0 1012h1024M0 1013h1024M0 1014h1024M0 1015h1024M0 1016h1024M0 1017h1024M0 1018h1024M0 1019h1024M0 1020h1024M0 1021h1024M0 1022h1024M0 1023h1024" />
<path stroke="#91b9f2" d="M277 298h128M277 299h128M277 300h128M277 301h128M277 302h128M277 303h128M277 304h128M277 305h128M277 306h128M277 307h128M277 308h128M277 309h128M277 310h128M277 311h128M277 312h128M277 313h128M277 314h128M277 315h128M277 316h128M277 317h128M277 318h128M277 319h128M277 320h128M277 321h128M277 322h128M277 323h128M277 324h128M277 325h128M277 326h128M277 327h128M277 328h128M277 329h128M277 330h128M277 331h128M277 332h128M277 333h128M277 334h128M277 335h128M277 336h128M277 337h128M277 338h128M277 339h128M277 340h128M277 341h128M277 342h128M277 343h128M277 344h128M277 345h128M277 346h128M277 347h128M277 348h128M277 349h128M277 350h128M277 351h128M277 352h128M277 353h128M277 354h128M277 355h128M277 356h128M277 357h128M277 358h128M277 359h128M277 360h128M277 361h128M277 362h128M277 363h128M277 364h128M277 365h128M277 366h128M277 367h128M277 368h128M277 369h128M277 370h128M277 371h128M277 372h128M277 373h128M277 374h128M277 375h128M277 376h128M277 377h128M277 378h128M277 379h128M277 380h128M277 381h128M277 382h128M277 383h128M277 384h128M277 385h128M277 386h128M277 387h128M277 388h128M277 389h128M277 390h128M277 391h128M277 392h128M277 393h128M277 394h128M277 395h128M277 396h128M277 397h128M277 398h128M277 399h128M277 400h128M277 401h128M277 402h128M277 403h128M277 404h128M277 405h128M277 406h128M277 407h128M277 408h128M277 409h128M277 410h128M277 411h128M277 412h128M277 413h128M277 414h128M277 415h128M277 416h128M277 417h128M277 418h128M277 419h128M277 420h128M277 421h128M277 422h128M277 423h128M277 424h128M277 425h128M277 426h128M277 427h128M277 428h128M277 429h128M277 430h128M277 431h128M277 432h128M277 433h128M277 434h128M277 435h128M277 436h128M277 437h128M277 438h128M277 439h128M277 440h128M277 441h128M277 442h128M277 443h128M277 444h128M277 445h128M277 446h128M277 447h128M277 448h128M277 449h128M277 450h128M277 451h128M277 452h128M277 453h128M277 454h128M277 455h128M277 456h128M277 457h128M277 458h128M277 459h128M277 460h128M277 461h128M277 462h128M277 463h128M277 464h128M277 465h128M277 466h128M277 467h128M277 468h128M277 469h128M277 470h128M277 471h128M277 472h128M277 473h128M277 474h128M277 475h128M277 476h128M277 477h128M277 478h128M277 479h128M277 480h128M277 481h128M277 482h128M277 483h128M277 484h128M277 485h128M277 486h128M277 487h128M277 488h128M277 489h128M277 490h128M277 491h128M277 492h128M277 493h128M277 494h128M277 495h128M277 496h128M277 497h128M277 498h128M277 499h128M277 500h128M277 501h128M277 502h128M277 503h128M277 504h128M277 505h128M277 506h128M277 507h128M277 508h128M277 509h128M277 510h128M277 511h128M277 512h128M277 513h128M277 514h128M277 515h128M277 516h128M277 517h128M277 518h128M277 519h128M277 520h128M277 521h128M277 522h128M277 523h128M277 524h128M277 525h128M277 526h128M277 527h128M277 528h128M277 529h128M277 530h128M277 531h128M277 532h128M277 533h128M277 534h128M277 535h128M277 536h128M277 537h128M277 538h128M277 539h128M277 540h128M277 541h128M277 542h128M277 543h128M277 544h128M277 545h128M277 546h128M277 547h128M277 548h128M277 549h128M277 550h128M277 551h128M277 552h128M277 553h128M277 554h128M277 555h128M277 556h128M277 557h128M277 558h128M277 559h128M277 560h128M277 561h128M277 562h128M277 563h128M277 564h128M277 565h128M277 566h128M277 567h128M277 568h128M277 569h128M277 570h128M277 571h128M277 572h128M277 573h128M277 574h128M277 575h128M277 576h128M277 577h128M277 578h128M277 579h128M277 580h128M277 581h128M277 582h128M277 583h128M277 584h128M277 585h128M277 586h128M277 587h128M277 588h128M277 589h128M277 590h128M277 591h128M277 592h128M277 593h128M277 594h128M277 595h128M277 596h128M277 597h128M277 598h128M277 599h128M277 600h128M277 601h128M277 602h128M277 603h128M277 604h128M277 605h128M277 606h128M277 607h128M277 608h128M277 609h128M277 610h128M277 611h128M277 612h128M277 613h128M277 614h128M277 615h128M277 616h128M277 617h128M277 618h128M277 619h128M277 620h128M277 621h128M277 622h128M277 623h128M277 624h128M277 625h128M277 626h128M277 627h128M277 628h128M277 629h128M277 630h128M277 631h128M277 632h128M277 633h128M277 634h128M277 635h128M277 636h128M277 637h128M277 638h128M277 639h128M298 640h107M298 641h107M298 642h107M298 643h107M298 644h107M298 645h107M298 646h107M298 647h107M298 648h107M298 649h107M298 650h107M298 651h107M298 652h107M298 653h107M298 654h107M298 655h107M298 656h107M298 657h107M298 658h107M298 659h107M298 660h107" />
<path stroke="#a2d2ff" d="M405 298h363M405 299h363M405 300h363M405 301h363M405 302h363M405 303h363M405 304h363M405 305h363M405 306h363M405 307h363M405 308h363M405 309h363M405 310h363M405 311h363M405 312h363M405 313h363M405 314h363M405 315h363M405 316h363M405 317h363M405 318h363M405 319h363M405 320h341M405 321h341M405 322h341M405 323h341M405 324h341M405 325h341M405 326h341M405 327h341M405 328h341M405 329h341M405 330h341M405 331h341M405 332h341M405 333h341M405 334h341M405 335h341M405 336h341M405 337h341M405 338h341M405 339h341M405 340h341M405 341h85M682 341h86M405 342h85M682 342h86M405 343h85M682 343h86M405 344h85M682 344h86M405 345h85M682 345h86M405 346h85M682 346h86M405 347h85M682 347h86M405 348h85M682 348h86M405 349h85M682 349h86M405 350h85M682 350h86M405 351h85M682 351h86M405 352h85M682 352h86M405 353h85M682 353h86M405 354h85M682 354h86M405 355h85M682 355h86M405 356h85M682 356h86M405 357h85M682 357h86M405 358h85M682 358h86M405 359h85M682 359h86M405 360h85M682 360h86M405 361h85M682 361h86M405 362h85M682 362h86M405 363h85M682 363h86M405 364h85M682 364h86M405 365h85M682 365h86M405 366h85M682 366h86M405 367h85M682 367h86M405 368h85M682 368h86M405 369h85M682 369h86M405 370h85M682 370h86M405 371h85M682 371h86M405 372h85M682 372h86M405 373h85M682 373h86M405 374h85M682 374h86M405 375h85M682 375h86M405 376h85M682 376h86M405 377h85M682 377h86M405 378h85M682 378h86M405 379h85M682 379h86M405 380h85M682 380h86M405 381h85M682 381h86M405 382h85M682 382h86M405 383h85M682 383h86M405 384h43M725 384h43M405 385h43M725 385h43M405 386h43M725 386h43M405 387h43M725 387h43M405 388h43M725 388h43M405 389h43M725 389h43M405 390h43M725 390h43M405 391h43M725 391h43M405 392h43M725 392h43M405 393h43M725 393h43M405 394h43M725 394h43M405 395h43M725 395h43M405 396h43M725 396h43M405 397h43M725 397h43M405 398h43M725 398h43M405 399h43M725 399h43M405 400h43M725 400h43M405 401h43M725 401h43M405 402h43M725 402h43M405 403h43M725 403h43M405 404h43M725 404h43M405 405h43M725 405h43M405 406h43M725 406h43M405 407h43M725 407h43M405 408h43M725 408h43M405 409h43M725 409h43M405 410h43M725 410h43M405 411h43M725 411h43M405 412h43M725 412h43M405 413h43M725 413h43M405 414h43M725 414h43M405 415h43M725 415h43M405 416h43M725 416h43M405 417h43M725 417h43M405 418h43M725 418h43M405 419h43M725 419h43M405 420h43M725 420h43M405 421h43M725 421h43M405 422h43M725 422h43M405 423h43M725 423h43M405 424h43M725 424h43M405 425h43M725 425h43M405 426h43M725 426h43M405 427h43M725 427h43M405 428h43M725 428h43M405 429h43M725 429h43M405 430h43M725 430h43M405 431h43M725 431h43M405 432h43M725 432h43M405 433h43M725 433h43M405 434h43M725 434h43M405 435h43M725 435h43M405 436h43M725 436h43M405 437h43M725 437h43M405 438h43M725 438h43M405 439h43M725 439h43M405 440h43M725 440h43M405 441h43M725 441h43M405 442h43M725 442h43M405 443h43M725 443h43M405 444h43M725 444h43M405 445h43M725 445h43M405 446h43M725 446h43M405 447h43M725 447h43M405 448h43M725 448h43M405 449h43M725 449h43M405 450h43M725 450h43M405 451h43M725 451h43M405 452h43M725 452h43M405 453h43M725 453h43M405 454h43M725 454h43M405 455h43M725 455h43M405 456h43M725 456h43M405 457h43M725 457h43M405 458h43M725 458h43M405 459h43M725 459h43M405 460h43M725 460h43M405 461h43M725 461h43M405 462h43M725 462h43M405 463h43M725 463h43M405 464h43M725 464h43M405 465h43M725 465h43M405 466h43M725 466h43M405 467h43M725 467h43M405 468h43M725 468h43M405 469h43M725 469h43M405 470h43M725 470h43M405 471h43M725 471h43M405 472h43M725 472h43M405 473h43M725 473h43M405 474h43M725 474h43M405 475h43M725 475h43M405 476h43M725 476h43M405 477h43M725 477h43M405 478h43M725 478h43M405 479h43M725 479h43M405 480h43M725 480h43M405 481h43M725 481h43M405 482h43M725 482h43M405 483h43M725 483h43M405 484h43M725 484h43M405 485h43M725 485h43M405 486h43M725 486h43M405 487h43M725 487h43M405 488h43M725 488h43M405 489h43M725 489h43M405 490h43M746 490h22M405 491h43M746 491h22M405 492h43M746 492h22M405 493h43M746 493h22M405 494h43M746 494h22M405 495h43M746 495h22M405 496h43M746 496h22M405 497h43M746 497h22M405 498h43M746 498h22M405 499h43M746 499h22M405 500h43M746 500h22M405 501h43M746 501h22M405 502h43M746 502h22M405 503h43M746 503h22M405 504h43M746 504h22M405 505h43M746 505h22M405 506h43M746 506h22M405 507h43M746 507h22M405 508h43M746 508h22M405 509h43M746 509h22M405 510h43M746 510h22M405 511h43M746 511h22M405 512h43M746 512h22M405 513h43M746 513h22M405 514h43M746 514h22M405 515h43M746 515h22M405 516h43M746 516h22M405 517h43M746 517h22M405 518h43M746 518h22M405 519h43M746 519h22M405 520h43M746 520h22M405 521h43M746 521h22M405 522h43M746 522h22M405 523h43M746 523h22M405 524h43M746 524h22M405 525h43M746 525h22M405 526h43M746 526h22M405 527h43M746 527h22M405 528h43M746 528h22M405 529h43M746 529h22M405 530h43M746 530h22M405 531h43M746 531h22M405 532h43M746 532h22M405 533h43M746 533h22M405 534h43M746 534h22M405 535h43M746 535h22M405 536h43M746 536h22M405 537h43M746 537h22M405 538h43M746 538h22M405 539h43M746 539h22M405 540h43M746 540h22M405 541h43M746 541h22M405 542h43M746 542h22M405 543h43M746 543h22M405 544h43M746 544h22M405 545h43M746 545h22M405 546h43M746 546h22M405 547h43M746 547h22M405 548h43M746 548h22M405 549h43M746 549h22M405 550h43M746 550h22M405 551h43M746 551h22M405 552h43M746 552h22M405 553h43M746 553h22M405 554h43M746 554h22M405 555h43M746 555h22M405 556h43M746 556h22M405 557h43M746 557h22M405 558h43M746 558h22M405 559h43M746 559h22M405 560h43M746 560h22M405 561h43M746 561h22M405 562h43M746 562h22M405 563h43M746 563h22M405 564h43M746 564h22M405 565h43M746 565h22M405 566h43M746 566h22M405 567h43M746 567h22M405 568h43M746 568h22M405 569h43M746 569h22M405 570h43M746 570h22M405 571h43M746 571h22M405 572h43M746 572h22M405 573h43M746 573h22M405 574h43M746 574h22M405 575h43M746 575h22M405 576h43M746 576h22M405 577h43M746 577h22M405 578h43M746 578h22M405 579h43M746 579h22M405 580h43M746 580h22M405 581h43M746 581h22M405 582h43M746 582h22M405 583h43M746 583h22M405 584h43M746 584h22M405 585h43M746 585h22M405 586h43M746 586h22M405 587h43M746 587h22M405 588h43M746 588h22M405 589h43M746 589h22M405 590h43M746 590h22M405 591h43M746 591h22M405 592h43M746 592h22M405 593h43M746 593h22M405 594h43M746 594h22M405 595h43M746 595h22M405 596h43M746 596h22M405 597h43M746 597h22M405 598h43M746 598h22M405 599h43M746 599h22M405 600h43M746 600h22M405 601h43M746 601h22M405 602h43M746 602h22M405 603h43M746 603h22M405 604h43M746 604h22M405 605h43M746 605h22M405 606h43M746 606h22M405 607h43M746 607h22M405 608h43M746 608h22M405 609h43M746 609h22M405 610h43M746 610h22M405 611h43M746 611h22M405 612h43M746 612h22M405 613h43M746 613h22M405 614h43M746 614h22M405 615h43M746 615h22M405 616h43M746 616h22M405 617h43M746 617h22M405 618h43M746 618h22M405 619h43M746 619h22M405 620h43M746 620h22M405 621h43M746 621h22M405 622h43M746 622h22M405 623h43M746 623h22M405 624h43M746 624h22M405 625h43M746 625h22M405 626h43M746 626h22M405 627h43M746 627h22M405 628h43M746 628h22M405 629h43M746 629h22M405 630h43M746 630h22M405 631h43M746 631h22M405 632h43M746 632h22M405 633h43M746 633h22M405 634h43M746 634h22M405 635h43M746 635h22M405 636h43M746 636h22M405 637h43M746 637h22M405 638h43M746 638h22M405 639h43M746 639h22M405 640h43M725 640h43M405 641h43M725 641h43M405 642h43M725 642h43M405 643h43M725 643h43M405 644h43M725 644h43M405 645h43M725 645h43M405 646h43M725 646h43M405 647h43M725 647h43M405 648h43M725 648h43M405 649h43M725 649h43M405 650h43M725 650h43M405 651h43M725 651h43M405 652h43M725 652h43M405 653h43M725 653h43M405 654h43M725 654h43M405 655h43M725 655h43M405 656h43M725 656h43M405 657h43M725 657h43M405 658h43M725 658h43M405 659h43M725 659h43M405 660h43M725 660h43" />
<path stroke="#a3d2fd" d="M746 320h22M746 321h22M746 322h22M746 323h22M746 324h22M746 325h22M746 326h22M746 327h22M746 328h22M746 329h22M746 330h22M746 331h22M746 332h22M746 333h22M746 334h22M746 335h22M746 336h22M746 337h22M746 338h22M746 339h22M746 340h22" />
<path stroke="#86afcc" d="M234 341h43M234 342h43M234 343h43M234 344h43M234 345h43M234 346h43M234 347h43M234 348h43M234 349h43M234 350h43M234 351h43M234 352h43M234 353h43M234 354h43M234 355h43M234 356h43M234 357h43M234 358h43M234 359h43M234 360h43M234 361h43M234 362h43M234 363h43M234 364h43M234 365h43M234 366h43M234 367h43M234 368h43M234 369h43M234 370h43M234 371h43M234 372h43M234 373h43M234 374h43M234 375h43M234 376h43M234 377h43M234 378h43M234 379h43M234 380h43M234 381h43M234 382h43M234 383h43M234 384h43M234 385h43M234 386h43M234 387h43M234 388h43M234 389h43M234 390h43M234 391h43M234 392h43M234 393h43M234 394h43M234 395h43M234 396h43M234 397h43M234 398h43M234 399h43M234 400h43M234 401h43M234 402h43M234 403h43M234 404h43M234 405h43M234 406h43M234 407h43M234 408h43M234 409h43M234 410h43M234 411h43M234 412h43M234 413h43M234 414h43M234 415h43M234 416h43M234 417h43M234 418h43M234 419h43M234 420h43M234 421h43M234 422h43M234 423h43M234 424h43M234 425h43M234 426h43M234 427h43M234 428h43M234 429h43M234 430h43M234 431h43M234 432h43M234 433h43M234 434h43M234 435h43M234 436h43M234 437h43M234 438h43M234 439h43M234 440h43M234 441h43M234 442h43M234 443h43M234 444h43M234 445h43M234 446h43M234 447h43M234 448h43M234 449h43M234 450h43M234 451h43M234 452h43M234 453h43M234 454h43M234 455h43M234 456h43M234 457h43M234 458h43M234 459h43M234 460h43M234 461h43M234 462h43M234 463h43M234 464h43M234 465h43M234 466h43M234 467h43M234 468h43M234 469h43M234 470h43M234 471h43M234 472h43M234 473h43M234 474h43M234 475h43M234 476h43M234 477h43M234 478h43M234 479h43M234 480h43M234 481h43M234 482h43M234 483h43M234 484h43M234 485h43M234 486h43M234 487h43M234 488h43M234 489h43M234 490h43M234 491h43M234 492h43M234 493h43M234 494h43M234 495h43M234 496h43M234 497h43M234 498h43M234 499h43M234 500h43M234 501h43M234 502h43M234 503h43M234 504h43M234 505h43M234 506h43M234 507h43M234 508h43M234 509h43M234 510h43M234 511h43M234 512h43M234 513h43M234 514h43M234 515h43M234 516h43M234 517h43M234 518h43M234 519h43M234 520h43M234 521h43M234 522h43M234 523h43M234 524h43M234 525h43M234 526h43M234 527h43M234 528h43M234 529h43M234 530h43M234 531h43M234 532h43M234 533h43M234 534h43M234 535h43M234 536h43M234 537h43M234 538h43M234 539h43M234 540h43M234 541h43M234 542h43M234 543h43M234 544h43M234 545h43M234 546h43M234 547h43M234 548h43M234 549h43M234 550h43M234 551h43M234 552h43M234 553h43M234 554h43M234 555h43M234 556h43M234 557h43M234 558h43M234 559h43M234 560h43M234 561h43M234 562h43M234 563h43M234 564h43M234 565h43M234 566h43M234 567h43M234 568h43M234 569h43M234 570h43M234 571h43M234 572h43M234 573h43M234 574h43M234 575h43M234 576h43M234 577h43M234 578h43M234 579h43M234 580h43M234 581h43M234 582h43M234 583h43M234 584h43M234 585h43M234 586h43M234 587h43M234 588h43M234 589h43M234 590h43M234 591h43M234 592h43M234 593h43M234 594h43M234 595h43M234 596h43M234 597h43M234 598h43M234 599h43M234 600h43M234 601h43M234 602h43M234 603h43M234 604h43M234 605h43M234 606h43M234 607h43M234 608h43M234 609h43M234 610h43M234 611h43M234 612h43M234 613h43M234 614h43M234 615h43M234 616h43M234 617h43M234 618h43M234 619h43M234 620h43M234 621h43M234 622h43M234 623h43M234 624h43M234 625h43M234 626h43M234 627h43M234 628h43M234 629h43M234 630h43M234 631h43M234 632h43M234 633h43M234 634h43M234 635h43M234 636h43M234 637h43M234 638h43M234 639h43M234 640h43M234 641h43M234 642h43M234 643h43M234 644h43M234 645h43M234 646h43M234 647h43M234 648h43M234 649h43M234 650h43M234 651h43M234 652h43M234 653h43M234 654h43M234 655h43M234 656h43M234 657h43M234 658h43M234 659h43M234 660h43M234 661h491M234 662h491M234 663h491M234 664h491M234 665h491M234 666h491M234 667h491M234 668h491M234 669h491M234 670h491M234 671h491M234 672h491M234 673h491M234 674h491M234 675h491M234 676h491M234 677h491M234 678h491M234 679h491M234 680h491M234 681h491M234 682h491M234 683h491M234 684h491M234 685h491M234 686h491M234 687h491M234 688h491M234 689h491M234 690h491M234 691h491M234 692h491M234 693h491M234 694h491M234 695h491M234 696h491M234 697h491M234 698h491M234 699h491M234 700h491M234 701h491M234 702h491M234 703h491" />
<path stroke="#f2d06d" d="M490 341h192M490 342h192M490 343h192M490 344h192M490 345h192M490 346h192M490 347h192M490 348h192M490 349h192M490 350h192M490 351h192M490 352h192M490 353h192M490 354h192M490 355h192M490 356h192M490 357h192M490 358h192M490 359h192M490 360h192M490 361h192M490 362h192M490 363h192M490 364h192M490 365h192M490 366h192M490 367h192M490 368h192M490 369h192M490 370h192M490 371h192M490 372h192M490 373h192M490 374h192M490 375h192M490 376h192M490 377h192M490 378h192M490 379h192M490 380h192M490 381h192M490 382h192M490 383h192M448 384h85M640 384h85M448 385h85M640 385h85M448 386h85M640 386h85M448 387h85M640 387h85M448 388h85M640 388h85M448 389h85M640 389h85M448 390h85M640 390h85M448 391h85M640 391h85M448 392h85M640 392h85M448 393h85M640 393h85M448 394h85M640 394h85M448 395h85M640 395h85M448 396h85M640 396h85M448 397h85M640 397h85M448 398h85M640 398h85M448 399h85M640 399h85M448 400h85M640 400h85M448 401h85M640 401h85M448 402h85M640 402h85M448 403h85M640 403h85M448 404h85M640 404h85M448 405h85M640 405h85M448 406h85M640 406h85M448 407h85M640 407h85M448 408h85M640 408h85M448 409h85M640 409h85M448 410h85M640 410h85M448 411h85M640 411h85M448 412h85M640 412h85M448 413h85M640 413h85M448 414h85M640 414h85M448 415h85M640 415h85M448 416h85M640 416h85M448 417h85M640 417h85M448 418h85M640 418h85M448 419h85M640 419h85M448 420h85M640 420h85M448 421h85M640 421h85M448 422h85M640 422h85M448 423h85M640 423h85M448 424h85M640 424h85M448 425h85M640 425h85M448 426h42M682 426h43M448 427h42M682 427h43M448 428h42M682 428h43M448 429h42M682 429h43M448 430h42M682 430h43M448 431h42M682 431h43M448 432h42M682 432h43M448 433h42M682 433h43M448 434h42M682 434h43M448 435h42M682 435h43M448 436h42M682 436h43M448 437h42M682 437h43M448 438h42M682 438h43M448 439h42M682 439h43M448 440h42M682 440h43M448 441h42M682 441h43M448 442h42M682 442h43M448 443h42M682 443h43M448 444h42M682 444h43M448 445h42M682 445h43M448 446h42M682 446h43M448 447h42M682 447h43M448 448h42M682 448h43M448 449h42M682 449h43M448 450h42M682 450h43M448 451h42M682 451h43M448 452h42M682 452h43M448 453h42M682 453h43M448 454h42M682 454h43M448 455h42M682 455h43M448 456h42M682 456h43M448 457h42M682 457h43M448 458h42M682 458h43M448 459h42M682 459h43M448 460h42M682 460h43M448 461h42M682 461h43M448 462h42M682 462h43M448 463h42M682 463h43M448 464h42M682 464h43M448 465h42M682 465h43M448 466h42M682 466h43M448 467h42M682 467h43M448 468h42M682 468h43" />
<path stroke="#fde977" d="M533 384h107M533 385h107M533 386h107M533 387h107M533 388h107M533 389h107M533 390h107M533 391h107M533 392h107M533 393h107M533 394h107M533 395h107M533 396h107M533 397h107M533 398h107M533 399h107M533 400h107M533 401h107M533 402h107M533 403h107M533 404h107M533 405h107M533 406h107M533 407h107M533 408h107M533 409h107M533 410h107M533 411h107M533 412h107M533 413h107M533 414h107M533 415h107M533 416h107M533 417h107M533 418h107M533 419h107M533 420h107M533 421h107M533 422h107M533 423h107M533 424h107M533 425h107M490 426h192M490 427h192M490 428h192M490 429h192M490 430h192M490 431h192M490 432h192M490 433h192M490 434h192M490 435h192M490 436h192M490 437h192M490 438h192M490 439h192M490 440h192M490 441h192M490 442h192M490 443h192M490 444h192M490 445h192M490 446h192M490 447h192M490 448h192M490 449h192M490 450h192M490 451h192M490 452h192M490 453h192M490 454h192M490 455h192M490 456h192M490 457h192M490 458h192M490 459h192M490 460h192M490 461h192M490 462h192M490 463h192M490 464h192M490 465h192M490 466h192M490 467h192M490 468h192M448 469h277M448 470h277M448 471h277M448 472h277M448 473h277M448 474h277M448 475h277M448 476h277M448 477h277M448 478h277M448 479h277M448 480h277M448 481h277M448 482h277M448 483h277M448 484h277M448 485h277M448 486h277M448 487h277M448 488h277M448 489h277M448 490h277M448 491h277M448 492h277M448 493h277M448 494h277M448 495h277M448 496h277M448 497h277M448 498h277M448 499h277M448 500h277M448 501h277M448 502h277M448 503h277M448 504h277M448 505h277M448 506h277M448 507h277M448 508h277M448 509h277M448 510h277M448 511h277M448 512h277M448 513h277M448 514h277M448 515h277M448 516h277M448 517h277M448 518h277M448 519h277M448 520h277M448 521h277M448 522h277M448 523h277M448 524h277M448 525h277M448 526h277M448 527h277M448 528h277M448 529h277M448 530h277M448 531h277M448 532h277M448 533h277M448 534h277M448 535h277M448 536h277M448 537h277M448 538h277M448 539h277M448 540h277M448 541h277M448 542h277M448 543h277M448 544h277M448 545h277M448 546h277M448 547h277M448 548h277M448 549h277M448 550h277M448 551h277M448 552h277M448 553h277M448 554h277M448 555h277M448 556h277M448 557h277M448 558h277M448 559h277M448 560h277M448 561h277M448 562h277M448 563h277M448 564h277M448 565h277M448 566h277M448 567h277M448 568h277M448 569h277M448 570h277M448 571h277M448 572h277M448 573h277M448 574h277M448 575h277M490 576h43M640 576h42M490 577h43M640 577h42M490 578h43M640 578h42M490 579h43M640 579h42M490 580h43M640 580h42M490 581h43M640 581h42M490 582h43M640 582h42M490 583h43M640 583h42M490 584h43M640 584h42M490 585h43M640 585h42M490 586h43M640 586h42M490 587h43M640 587h42M490 588h43M640 588h42M490 589h43M640 589h42M490 590h43M640 590h42M490 591h43M640 591h42M490 592h43M640 592h42M490 593h43M640 593h42M490 594h43M640 594h42M490 595h43M640 595h42M490 596h43M640 596h42M490 597h43M640 597h42M490 598h43M640 598h42M490 599h43M640 599h42M490 600h43M640 600h42M490 601h43M640 601h42M490 602h43M640 602h42M490 603h43M640 603h42M490 604h43M640 604h42M490 605h43M640 605h42M490 606h43M640 606h42M490 607h43M640 607h42M490 608h43M640 608h42M490 609h43M640 609h42M490 610h43M640 610h42M490 611h43M640 611h42M490 612h43M640 612h42M490 613h43M640 613h42M490 614h43M640 614h42M490 615h43M640 615h42M490 616h43M640 616h42M490 617h43M640 617h42M448 618h277M448 619h277M448 620h277M448 621h277M448 622h277M448 623h277M448 624h277M448 625h277M448 626h277M448 627h277M448 628h277M448 629h277M448 630h277M448 631h277M448 632h277M448 633h277M448 634h277M448 635h277M448 636h277M448 637h277M448 638h277M448 639h277M448 640h277M448 641h277M448 642h277M448 643h277M448 644h277M448 645h277M448 646h277M448 647h277M448 648h277M448 649h277M448 650h277M448 651h277M448 652h277M448 653h277M448 654h277M448 655h277M448 656h277M448 657h277M448 658h277M448 659h277M448 660h277" />
<path stroke="#a2d2fe" d="M725 490h21M725 491h21M725 492h21M725 493h21M725 494h21M725 495h21M725 496h21M725 497h21M725 498h21M725 499h21M725 500h21M725 501h21M725 502h21M725 503h21M725 504h21M725 505h21M725 506h21M725 507h21M725 508h21M725 509h21M725 510h21M725 511h21M725 512h21M725 513h21M725 514h21M725 515h21M725 516h21M725 517h21M725 518h21M725 519h21M725 520h21M725 521h21M725 522h21M725 523h21M725 524h21M725 525h21M725 526h21M725 527h21M725 528h21M725 529h21M725 530h21M725 531h21M725 532h21" />
<path stroke="#a5d3fc" d="M725 533h21M725 534h21M725 535h21M725 536h21M725 537h21M725 538h21M725 539h21M725 540h21M725 541h21M725 542h21M725 543h21M725 544h21M725 545h21M725 546h21M725 547h21M725 548h21M725 549h21M725 550h21M725 551h21M725 552h21M725 553h21M725 554h21M725 555h21M725 556h21M725 557h21M725 558h21M725 559h21M725 560h21M725 561h21M725 562h21M725 563h21M725 564h21M725 565h21M725 566h21M725 567h21M725 568h21M725 569h21M725 570h21M725 571h21M725 572h21M725 573h21M725 574h21M725 575h21M725 576h21M725 577h21M725 578h21M725 579h21M725 580h21M725 581h21M725 582h21M725 583h21M725 584h21M725 585h21M725 586h21M725 587h21M725 588h21M725 589h21M725 590h21M725 591h21M725 592h21M725 593h21M725 594h21M725 595h21M725 596h21" />
<path stroke="#6a6a6a" d="M448 576h42M682 576h43M448 577h42M682 577h43M448 578h42M682 578h43M448 579h42M682 579h43M448 580h42M682 580h43M448 581h42M682 581h43M448 582h42M682 582h43M448 583h42M682 583h43M448 584h42M682 584h43M448 585h42M682 585h43M448 586h42M682 586h43M448 587h42M682 587h43M448 588h42M682 588h43M448 589h42M682 589h43M448 590h42M682 590h43M448 591h42M682 591h43M448 592h42M682 592h43M448 593h42M682 593h43M448 594h42M682 594h43M448 595h42M682 595h43M448 596h42M682 596h43M448 597h42M682 597h43M448 598h42M682 598h43M448 599h42M682 599h43M448 600h42M682 600h43M448 601h42M682 601h43M448 602h42M682 602h43M448 603h42M682 603h43M448 604h42M682 604h43M448 605h42M682 605h43M448 606h42M682 606h43M448 607h42M682 607h43M448 608h42M682 608h43M448 609h42M682 609h43M448 610h42M682 610h43M448 611h42M682 611h43M448 612h42M682 612h43M448 613h42M682 613h43M448 614h42M682 614h43M448 615h42M682 615h43M448 616h42M682 616h43M448 617h42M682 617h43" />
<path stroke="#ffa64d" d="M533 576h107M533 577h107M533 578h107M533 579h107M533 580h107M533 581h107M533 582h107M533 583h107M533 584h107M533 585h107M533 586h107M533 587h107M533 588h107M533 589h107M533 590h107M533 591h107M533 592h107M533 593h107M533 594h107M533 595h107M533 596h107M533 597h107M533 598h107M533 599h107M533 600h107M533 601h107M533 602h107M533 603h107M533 604h107M533 605h107M533 606h107M533 607h107M533 608h107M533 609h107M533 610h107M533 611h107M533 612h107M533 613h107M533 614h107M533 615h107M533 616h107M533 617h107" />
<path stroke="#a7d3fb" d="M725 597h21M725 598h21M725 599h21M725 600h21M725 601h21M725 602h21M725 603h21M725 604h21M725 605h21M725 606h21M725 607h21M725 608h21M725 609h21M725 610h21M725 611h21M725 612h21M725 613h21M725 614h21M725 615h21M725 616h21M725 617h21M725 618h21M725 619h21M725 620h21M725 621h21M725 622h21M725 623h21M725 624h21M725 625h21M725 626h21M725 627h21M725 628h21M725 629h21M725 630h21M725 631h21M725 632h21M725 633h21M725 634h21M725 635h21M725 636h21M725 637h21M725 638h21M725 639h21" />
<path stroke="#92b9f1" d="M277 640h21M277 641h21M277 642h21M277 643h21M277 644h21M277 645h21M277 646h21M277 647h21M277 648h21M277 649h21M277 650h21M277 651h21M277 652h21M277 653h21M277 654h21M277 655h21M277 656h21M277 657h21M277 658h21M277 659h21M277 660h21" />
<path stroke="#bcd9ee" d="M746 682h22M746 683h22M746 684h22M746 685h22M746 686h22M746 687h22M746 688h22M746 689h22M746 690h22M746 691h22M746 692h22M746 693h22M746 694h22M746 695h22M746 696h22M746 697h22M746 698h22M746 699h22M746 700h22M746 701h22M746 702h22M746 703h22" />
</svg>