<svg xmlns="http://www.w3.org/2000/svg" viewBox="0 -0.5 1024 1024" shape-rendering="crispEdges">
<metadata>Made with Pixels to Svg https://codepen.io/shshaw/pen/XbxvNj</metadata>
<path stroke="#bddaef" d="M0 0h1024M0 1h1024M0 2h1024M0 3h1024M0 4h1024M0 5h1024M0 6h1024M0 7h1024M0 8h1024M0 9h1024M0 10h1024M0 11h1024M0 12h1024M0 13h1024M0 14h1024M0 15h1024M0 16h1024M0 17h1024M0 18h1024M0 19h1024M0 20h1024M0 21h1024M0 22h1024M0 23h1024M0 24h1024M0 25h1024M0 26h1024M0 27h1024M0 28h1024M0 29h1024M0 30h1024M0 31h1024M0 32h1024M0 33h1024M0 34h1024M0 35h1024M0 36h1024M0 37h1024M0 38h1024M0 39h1024M0 40h1024M0 41h1024M0 42h1024M0 43h1024M0 44h1024M0 45h1024M0 46h1024M0 47h1024M0 48h1024M0 49h1024M0 50h1024M0 51h1024M0 52h1024M0 53h1024M0 54h1024M0 55h1024M0 56h1024M0 57h1024M0 58h1024M0 59h1024M0 60h1024M0 61h1024M0 62h1024M0 63h1024M0 64h1024M0 65h1024M0 66h1024M0 67h1024M0 68h1024M0 69h1024M0 70h1024M0 71h1024M0 72h1024M0 73h1024M0 74h1024M0 75h1024M0 76h1024M0 77h1024M0 78h1024M0 79h1024M0 80h1024M0 81h1024M0 82h1024M0 83h1024M0 84h1024M0 85h1024M0 86h1024M0 87h1024M0 88h1024M0 89h1024M0 90h1024M0 91h1024M0 92h1024M0 93h1024M0 94h1024M0 95h1024M0 96h1024M0 97h1024M0 98h1024M0 99h1024M0 100h1024M0 101h1024M0 102h1024M0 103h1024M0 104h1024M0 105h1024M0 106h1024M0 107h1024M0 108h1024M0 109h1024M0 110h1024M0 111h1024M0 112h1024M0 113h1024M0 114h1024M0 115h1024M0 116h1024M0 117h1024M0 118h1024M0 119h1024M0 120h1024M0 121h1024M0 122h1024M0 123h1024M0 124h1024M0 125h1024M0 126h1024M0 127h1024M0 128h1024M0 129h1024M0 130h1024M0 131h1024M0 132h1024M0 133h1024M0 134h1024M0 135h1024M0 136h1024M0 137h1024M0 138h1024M0 139h1024M0 140h1024M0 141h1024M0 142h1024M0 143h1024M0 144h1024M0 145h1024M0 146h1024M0 147h1024M0 148h1024M0 149h1024M0 150h1024M0 151h1024M0 152h1024M0 153h1024M0 154h1024M0 155h1024M0 156h1024M0 157h1024M0 158h1024M0 159h1024M0 160h1024M0 161h1024M0 162h1024M0 163h1024M0 164h1024M0 165h1024M0 166h1024M0 167h1024M0 168h1024M0 169h1024M0 170h1024M0 171h1024M0 172h1024M0 173h1024M0 174h1024M0 175h1024M0 176h1024M0 177h1024M0 178h1024M0 179h1024M0 180h1024M0 181h1024M0 182h1024M0 183h1024M0 184h1024M0 185h1024M0 186h1024M0 187h1024M0 188h1024M0 189h1024M0 190h1024M0 191h1024M0 192h1024M0 193h1024M0 194h1024M0 195h1024M0 196h1024M0 197h1024M0 198h1024M0 199h1024M0 200h1024M0 201h1024M0 202h1024M0 203h1024M0 204h1024M0 205h1024M0 206h1024M0 207h1024M0 208h1024M0 209h1024M0 210h1024M0 211h1024M0 212h1024M0 213h1024M0 214h1024M0 215h1024M0 216h1024M0 217h1024M0 218h1024M0 219h1024M0 220h1024M0 221h1024M0 222h1024M0 223h1024M0 224h1024M0 225h1024M0 226h1024M0 227h1024M0 228h1024M0 229h1024M0 230h1024M0 231h1024M0 232h1024M0 233h1024M0 234h1024M0 235h1024M0 236h1024M0 237h1024M0 238h1024M0 239h1024M0 240h1024M0 241h1024M0 242h1024M0 243h1024M0 244h1024M0 245h1024M0 246h1024M0 247h1024M0 248h1024M0 249h1024M0 250h1024M0 251h1024M0 252h1024M0 253h1024M0 254h1024M0 255h1024M0 256h320M363 256h42M448 256h43M533 256h107M683 256h42M768 256h256M0 257h320M363 257h42M448 257h43M533 257h107M683 257h42M768 257h256M0 258h320M363 258h42M448 258h43M533 258h107M683 258h42M768 258h256M0 259h320M363 259h42M448 259h43M533 259h107M683 259h42M768 259h256M0 260h320M363 260h42M448 260h43M533 260h107M683 260h42M768 260h256M0 261h320M363 261h42M448 261h43M533 261h107M683 261h42M768 261h256M0 262h320M363 262h42M448 262h43M533 262h107M683 262h42M768 262h256M0 263h320M363 263h42M448 263h43M533 263h107M683 263h42M768 263h256M0 264h320M363 264h42M448 264h43M533 264h107M683 264h42M768 264h256M0 265h320M363 265h42M448 265h43M533 265h107M683 265h42M768 265h256M0 266h320M363 266h42M448 266h43M533 266h107M683 266h42M768 266h256M0 267h320M363 267h42M448 267h43M533 267h107M683 267h42M768 267h256M0 268h320M363 268h42M448 268h43M533 268h107M683 268h42M768 268h256M0 269h320M363 269h42M448 269h43M533 269h107M683 269h42M768 269h256M0 270h320M363 270h42M448 270h43M533 270h107M683 270h42M768 270h256M0 271h320M363 271h42M448 271h43M533 271h107M683 271h42M768 271h256M0 272h320M363 272h42M448 272h43M533 272h107M683 272h42M768 272h256M0 273h320M363 273h42M448 273h43M533 273h107M683 273h42M768 273h256M0 274h320M363 274h42M448 274h43M533 274h107M683 274h42M768 274h256M0 275h320M363 275h42M448 275h43M533 275h107M683 275h42M768 275h256M0 276h320M363 276h42M448 276h43M533 276h107M683 276h42M768 276h256M0 277h320M363 277h42M448 277h43M533 277h107M683 277h42M768 277h256M0 278h320M363 278h42M448 278h43M533 278h107M683 278h42M768 278h256M0 279h320M363 279h42M448 279h43M533 279h107M683 279h42M768 279h256M0 280h320M363 280h42M448 280h43M533 280h107M683 280h42M768 280h256M0 281h320M363 281h42M448 281h43M533 281h107M683 281h42M768 281h256M0 282h320M363 282h42M448 282h43M533 282h107M683 282h42M768 282h256M0 283h320M363 283h42M448 283h43M533 283h107M683 283h42M768 283h256M0 284h320M363 284h42M448 284h43M533 284h107M683 284h42M768 284h256M0 285h320M363 285h42M448 285h43M533 285h107M683 285h42M768 285h256M0 286h320M363 286h42M448 286h43M533 286h107M683 286h42M768 286h256M0 287h320M363 287h42M448 287h43M533 287h107M683 287h42M768 287h256M0 288h320M363 288h42M448 288h43M533 288h107M683 288h42M768 288h256M0 289h320M363 289h42M448 289h43M533 289h107M683 289h42M768 289h256M0 290h320M363 290h42M448 290h43M533 290h107M683 290h42M768 290h256M0 291h320M363 291h42M448 291h43M533 291h107M683 291h42M768 291h256M0 292h320M363 292h42M448 292h43M533 292h107M683 292h42M768 292h256M0 293h320M363 293h42M448 293h43M533 293h107M683 293h42M768 293h256M0 294h320M363 294h42M448 294h43M533 294h107M683 294h42M768 294h256M0 295h320M363 295h42M448 295h43M533 295h107M683 295h42M768 295h256M0 296h320M363 296h42M448 296h43M533 296h107M683 296h42M768 296h256M0 297h320M363 297h42M448 297h43M533 297h107M683 297h42M768 297h256M0 298h320M363 298h42M448 298h43M533 298h107M683 298h42M768 298h256M0 299h277M768 299h256M0 300h277M768 300h256M0 301h277M768 301h256M0 302h277M768 302h256M0 303h277M768 303h256M0 304h277M768 304h256M0 305h277M768 305h256M0 306h277M768 306h256M0 307h277M768 307h256M0 308h277M768 308h256M0 309h277M768 309h256M0 310h277M768 310h256M0 311h277M768 311h256M0 312h277M768 312h256M0 313h277M768 313h256M0 314h277M768 314h256M0 315h277M768 315h256M0 316h277M768 316h256M0 317h277M768 317h256M0 318h277M768 318h256M0 319h277M768 319h256M0 320h277M768 320h256M0 321h277M768 321h256M0 322h277M768 322h256M0 323h277M768 323h256M0 324h277M768 324h256M0 325h277M768 325h256M0 326h277M768 326h256M0 327h277M768 327h256M0 328h277M768 328h256M0 329h277M768 329h256M0 330h277M768 330h256M0 331h277M768 331h256M0 332h277M768 332h256M0 333h277M768 333h256M0 334h277M768 334h256M0 335h277M768 335h256M0 336h277M768 336h256M0 337h277M768 337h256M0 338h277M768 338h256M0 339h277M768 339h256M0 340h277M768 340h256M0 341h235M768 341h256M0 342h235M768 342h256M0 343h235M768 343h256M0 344h235M768 344h256M0 345h235M768 345h256M0 346h235M768 346h256M0 347h235M768 347h256M0 348h235M768 348h256M0 349h235M768 349h256M0 350h235M768 350h256M0 351h235M768 351h256M0 352h235M768 352h256M0 353h235M768 353h256M0 354h235M768 354h256M0 355h235M768 355h256M0 356h235M768 356h256M0 357h235M768 357h256M0 358h235M768 358h256M0 359h235M768 359h256M0 360h235M768 360h256M0 361h235M768 361h256M0 362h235M768 362h256M0 363h235M768 363h256M0 364h235M768 364h256M0 365h235M768 365h256M0 366h235M768 366h256M0 367h235M768 367h256M0 368h235M768 368h256M0 369h235M768 369h256M0 370h235M768 370h256M0 371h235M768 371h256M0 372h235M768 372h256M0 373h235M768 373h256M0 374h235M768 374h256M0 375h235M768 375h256M0 376h235M768 376h256M0 377h235M768 377h256M0 378h235M768 378h256M0 379h235M768 379h256M0 380h235M768 380h256M0 381h235M768 381h256M0 382h235M768 382h256M0 383h235M768 383h256M0 384h235M768 384h256M0 385h235M768 385h256M0 386h235M768 386h256M0 387h235M768 387h256M0 388h235M768 388h256M0 389h235M768 389h256M0 390h235M768 390h256M0 391h235M768 391h256M0 392h235M768 392h256M0 393h235M768 393h256M0 394h235M768 394h256M0 395h235M768 395h256M0 396h235M768 396h256M0 397h235M768 397h256M0 398h235M768 398h256M0 399h235M768 399h256M0 400h235M768 400h256M0 401h235M768 401h256M0 402h235M768 402h256M0 403h235M768 403h256M0 404h235M768 404h256M0 405h235M768 405h256M0 406h235M768 406h256M0 407h235M768 407h256M0 408h235M768 408h256M0 409h235M768 409h256M0 410h235M768 410h256M0 411h235M768 411h256M0 412h235M768 412h256M0 413h235M768 413h256M0 414h235M768 414h256M0 415h235M768 415h256M0 416h235M768 416h256M0 417h235M768 417h256M0 418h235M768 418h256M0 419h235M768 419h256M0 420h235M768 420h256M0 421h235M768 421h256M0 422h235M768 422h256M0 423h235M768 423h256M0 424h235M768 424h256M0 425h235M768 425h256M0 426h235M768 426h256M0 427h235M768 427h256M0 428h235M768 428h256M0 429h235M768 429h256M0 430h235M768 430h256M0 431h235M768 431h256M0 432h235M768 432h256M0 433h235M768 433h256M0 434h235M768 434h256M0 435h235M768 435h256M0 436h235M768 436h256M0 437h235M768 437h256M0 438h235M768 438h256M0 439h235M768 439h256M0 440h235M768 440h256M0 441h235M768 441h256M0 442h235M768 442h256M0 443h235M768 443h256M0 444h235M768 444h256M0 445h235M768 445h256M0 446h235M768 446h256M0 447h235M768 447h256M0 448h235M768 448h256M0 449h235M768 449h256M0 450h235M768 450h256M0 451h235M768 451h256M0 452h235M768 452h256M0 453h235M768 453h256M0 454h235M768 454h256M0 455h235M768 455h256M0 456h235M768 456h256M0 457h235M768 457h256M0 458h235M768 458h256M0 459h235M768 459h256M0 460h235M768 460h256M0 461h235M768 461h256M0 462h235M768 462h256M0 463h235M768 463h256M0 464h235M768 464h256M0 465h235M768 465h256M0 466h235M768 466h256M0 467h235M768 467h256M0 468h235M768 468h256M0 469h235M768 469h256M0 470h235M768 470h256M0 471h235M768 471h256M0 472h235M768 472h256M0 473h235M768 473h256M0 474h235M768 474h256M0 475h235M768 475h256M0 476h235M768 476h256M0 477h235M768 477h256M0 478h235M768 478h256M0 479h235M768 479h256M0 480h235M768 480h256M0 481h235M768 481h256M0 482h235M768 482h256M0 483h235M768 483h256M0 484h235M768 484h256M0 485h235M768 485h256M0 486h235M768 486h256M0 487h235M768 487h256M0 488h235M768 488h256M0 489h235M768 489h256M0 490h235M768 490h256M0 491h235M768 491h256M0 492h235M768 492h256M0 493h235M768 493h256M0 494h235M768 494h256M0 495h235M768 495h256M0 496h235M768 496h256M0 497h235M768 497h256M0 498h235M768 498h256M0 499h235M768 499h256M0 500h235M768 500h256M0 501h235M768 501h256M0 502h235M768 502h256M0 503h235M768 503h256M0 504h235M768 504h256M0 505h235M768 505h256M0 506h235M768 506h256M0 507h235M768 507h256M0 508h235M768 508h256M0 509h235M768 509h256M0 510h235M768 510h256M0 511h235M768 511h256M0 512h235M768 512h256M0 513h235M768 513h256M0 514h235M768 514h256M0 515h235M768 515h256M0 516h235M768 516h256M0 517h235M768 517h256M0 518h235M768 518h256M0 519h235M768 519h256M0 520h235M768 520h256M0 521h235M768 521h256M0 522h235M768 522h256M0 523h235M768 523h256M0 524h235M768 524h256M0 525h235M768 525h256M0 526h235M768 526h256M0 527h235M768 527h256M0 528h235M768 528h256M0 529h235M768 529h256M0 530h235M768 530h256M0 531h235M768 531h256M0 532h235M768 532h256M0 533h235M768 533h256M0 534h235M768 534h256M0 535h235M768 535h256M0 536h235M768 536h256M0 537h235M768 537h256M0 538h235M768 538h256M0 539h235M768 539h256M0 540h235M768 540h256M0 541h235M768 541h256M0 542h235M768 542h256M0 543h235M768 543h256M0 544h235M768 544h256M0 545h235M768 545h256M0 546h235M768 546h256M0 547h235M768 547h256M0 548h235M768 548h256M0 549h235M768 549h256M0 550h235M768 550h256M0 551h235M768 551h256M0 552h235M768 552h256M0 553h235M768 553h256M0 554h235M768 554h256M0 555h235M768 555h256M0 556h235M768 556h256M0 557h235M768 557h256M0 558h235M768 558h256M0 559h235M768 559h256M0 560h235M768 560h256M0 561h235M768 561h256M0 562h235M768 562h256M0 563h235M768 563h256M0 564h235M768 564h256M0 565h235M768 565h256M0 566h235M768 566h256M0 567h235M768 567h256M0 568h235M768 568h256M0 569h235M768 569h256M0 570h235M768 570h256M0 571h235M768 571h256M0 572h235M768 572h256M0 573h235M768 573h256M0 574h235M768 574h256M0 575h235M768 575h256M0 576h235M768 576h256M0 577h235M768 577h256M0 578h235M768 578h256M0 579h235M768 579h256M0 580h235M768 580h256M0 581h235M768 581h256M0 582h235M768 582h256M0 583h235M768 583h256M0 584h235M768 584h256M0 585h235M768 585h256M0 586h235M768 586h256M0 587h235M768 587h256M0 588h235M768 588h256M0 589h235M768 589h256M0 590h235M768 590h256M0 591h235M768 591h256M0 592h235M768 592h256M0 593h235M768 593h256M0 594h235M768 594h256M0 595h235M768 595h256M0 596h235M768 596h256M0 597h235M768 597h256M0 598h235M768 598h256M0 599h235M768 599h256M0 600h235M768 600h256M0 601h235M768 601h256M0 602h235M768 602h256M0 603h235M768 603h256M0 604h235M768 604h256M0 605h235M768 605h256M0 606h235M768 606h256M0 607h235M768 607h256M0 608h235M768 608h256M0 609h235M768 609h256M0 610h235M768 610h256M0 611h235M768 611h256M0 612h235M768 612h256M0 613h235M768 613h256M0 614h235M768 614h256M0 615h235M768 615h256M0 616h235M768 616h256M0 617h235M768 617h256M0 618h235M768 618h256M0 619h235M768 619h256M0 620h235M768 620h256M0 621h235M768 621h256M0 622h235M768 622h256M0 623h235M768 623h256M0 624h235M768 624h256M0 625h235M768 625h256M0 626h235M768 626h256M0 627h235M768 627h256M0 628h235M768 628h256M0 629h235M768 629h256M0 630h235M768 630h256M0 631h235M768 631h256M0 632h235M768 632h256M0 633h235M768 633h256M0 634h235M768 634h256M0 635h235M768 635h256M0 636h235M768 636h256M0 637h235M768 637h256M0 638h235M768 638h256M0 639h235M768 639h256M0 640h235M768 640h256M0 641h235M768 641h256M0 642h235M768 642h256M0 643h235M768 643h256M0 644h235M768 644h256M0 645h235M768 645h256M0 646h235M768 646h256M0 647h235M768 647h256M0 648h235M768 648h256M0 649h235M768 649h256M0 650h235M768 650h256M0 651h235M768 651h256M0 652h235M768 652h256M0 653h235M768 653h256M0 654h235M768 654h256M0 655h235M768 655h256M0 656h235M768 656h256M0 657h235M768 657h256M0 658h235M768 658h256M0 659h235M768 659h256M0 660h235M768 660h256M0 661h235M725 661h299M0 662h235M725 662h299M0 663h235M725 663h299M0 664h235M725 664h299M0 665h235M725 665h299M0 666h235M725 666h299M0 667h235M725 667h299M0 668h235M725 668h299M0 669h235M725 669h299M0 670h235M725 670h299M0 671h235M725 671h299M0 672h235M725 672h299M0 673h235M725 673h299M0 674h235M725 674h299M0 675h235M725 675h299M0 676h235M725 676h299M0 677h235M725 677h299M0 678h235M725 678h299M0 679h235M725 679h299M0 680h235M725 680h299M0 681h235M725 681h299M0 682h235M725 682h299M0 683h235M725 683h22M768 683h256M0 684h235M725 684h22M768 684h256M0 685h235M725 685h22M768 685h256M0 686h235M725 686h22M768 686h256M0 687h235M725 687h22M768 687h256M0 688h235M725 688h22M768 688h256M0 689h235M725 689h22M768 689h256M0 690h235M725 690h22M768 690h256M0 691h235M725 691h22M768 691h256M0 692h235M725 692h22M768 692h256M0 693h235M725 693h22M768 693h256M0 694h235M725 694h22M768 694h256M0 695h235M725 695h22M768 695h256M0 696h235M725 696h22M768 696h256M0 697h235M725 697h22M768 697h256M0 698h235M725 698h22M768 698h256M0 699h235M725 699h22M768 699h256M0 700h235M725 700h22M768 700h256M0 701h235M725 701h22M768 701h256M0 702h235M725 702h22M768 702h256M0 703h235M725 703h22M768 703h256M0 704h1024M0 705h1024M0 706h1024M0 707h1024M0 708h1024M0 709h1024M0 710h1024M0 711h1024M0 712h1024M0 713h1024M0 714h1024M0 715h1024M0 716h1024M0 717h1024M0 718h1024M0 719h1024M0 720h1024M0 721h1024M0 722h1024M0 723h1024M0 724h1024M0 725h1024M0 726h1024M0 727h1024M0 728h1024M0 729h1024M0 730h1024M0 731h1024M0 732h1024M0 733h1024M0 734h1024M0 735h1024M0 736h1024M0 737h1024M0 738h1024M0 739h1024M0 740h1024M0 741h1024M0 742h1024M0 743h1024M0 744h1024M0 745h1024M0 746h1024M0 747h1024M0 748h1024M0 749h1024M0 750h1024M0 751h1024M0 752h1024M0 753h1024M0 754h1024M0 755h1024M0 756h1024M0 757h1024M0 758h1024M0 759h1024M0 760h1024M0 761h1024M0 762h1024M0 763h1024M0 764h1024M0 765h1024M0 766h1024M0 767h1024M0 768h1024M0 769h1024M0 770h1024M0 771h1024M0 772h1024M0 773h1024M0 774h1024M0 775h1024M0 776h1024M0 777h1024M0 778h1024M0 779h1024M0 780h1024M0 781h1024M0 782h1024M0 783h1024M0 784h1024M0 785h1024M0 786h1024M0 787h1024M0 788h1024M0 789h1024M0 790h1024M0 791h1024M0 792h1024M0 793h1024M0 794h1024M0 795h1024M0 796h1024M0 797h1024M0 798h1024M0 799h1024M0 800h1024M0 801h1024M0 802h1024M0 803h1024M0 804h1024M0 805h1024M0 806h1024M0 807h1024M0 808h1024M0 809h1024M0 810h1024M0 811h1024M0 812h1024M0 813h1024M0 814h1024M0 815h1024M0 816h1024M0 817h1024M0 818h1024M0 819h1024M0 820h1024M0 821h1024M0 822h1024M0 823h1024M0 824h1024M0 825h1024M0 826h1024M0 827h1024M0 828h1024M0 829h1024M0 830h1024M0 831h1024M0 832h1024M0 833h1024M0 834h1024M0 835h1024M0 836h1024M0 837h1024M0 838h1024M0 839h1024M0 840h1024M0 841h1024M0 842h1024M0 843h1024M0 844h1024M0 845h1024M0 846h1024M0 847h1024M0 848h1024M0 849h1024M0 850h1024M0 851h1024M0 852h1024M0 853h1024M0 854h1024M0 855h1024M0 856h1024M0 857h1024M0 858h1024M0 859h1024M0 860h1024M0 861h1024M0 862h1024M0 863h1024M0 864h1024M0 865h1024M0 866h1024M0 867h1024M0 868h1024M0 869h1024M0 870h1024M0 871h1024M0 872h1024M0 873h1024M0 874h1024M0 875h1024M0 876h1024M0 877h1024M0 878h1024M0 879h1024M0 880h1024M0 881h1024M0 882h1024M0 883h1024M0 884h1024M0 885h1024M0 886h1024M0 887h1024M0 888h1024M0 889h1024M0 890h1024M0 891h1024M0 892h1024M0 893h1024M0 894h1024M0 895h1024M0 896h1024M0 897h1024M0 898h1024M0 899h1024M0 900h1024M0 901h1024M0 902h1024M0 903h1024M0 904h1024M0 905h1024M0 906h1024M0 907h1024M0 908h1024M0 909h1024M0 910h1024M0 911h1024M0 912h1024M0 913h1024M0 914h1024M0 915h1024M0 916h1024M0 917h1024M0 918h1024M0 919h1024M0 920h1024M0 921h1024M0 922h1024M0 923h1024M0 924h1024M0 925h1024M0 926h1024M0 927h1024M0 928h1024M0 929h1024M0 930h1024M0 931h1024M0 932h1024M0 933h1024M0 934h1024M0 935h1024M0 936h1024M0 937h1024M0 938h1024M0 939h1024M0 940h1024M0 941h1024M0 942h1024M0 943h1024M0 944h1024M0 945h1024M0 946h1024M0 947h1024M0 948h1024M0 949h1024M0 950h1024M0 951h1024M0 952h1024M0 953h1024M0 954h1024M0 955h1024M0 956h1024M0 957h1024M0 958h1024M0 959h1024M0 960h1024M0 961h1024M0 962h1024M0 963h1024M0 964h1024M0 965h1024M0 966h1024M0 967h1024M0 968h1024M0 969h1024M0 970h1024M0 971h1024M0 972h1024M0 973h1024M0 974h1024M0 975h1024M0 976h1024M0 977h1024M0 978h1024M0 979h1024M0 980h1024M0 981h1024M0 982h1024M0 983h1024M0 984h1024M0 985h1024M0 986h1024M0 987h1024M0 988h1024M0 989h1024M0 990h1024M0 991h1024M0 992h1024M0 993h1024M0 994h1024M0 995h1024M0 996h1024M0 997h1024M0 998h1024M0 999h1024M0 1000h1024M0 1001h1024M0 1002h1024M0 1003h1024M0 1004h1024M0 1005h1024M0 1006h1024M0 1007h1024M0 1008h1024M0 1009h1024M0 1010h1024M0 1011h1024M0 1012h1024M0 1013h1024M0 1014h1024M0 1015h1024M0 1016h1024M0 1017h1024M0 1018h1024M0 1019h1024M0 1020h1024M0 1021h1024M0 1022h1024M0 1023h1024" />
<path stroke="#eada00" d="M320 256h43M320 257h43M320 258h43M320 259h43M320 260h43M320 261h43M320 262h43M320 263h43M320 264h43M320 265h43M320 266h43M320 267h43M320 268h43M320 269h43M320 270h43M320 271h43M320 272h43M320 273h43M320 274h43M320 275h43M320 276h43M320 277h43M320 278h43M320 279h43M320 280h43M320 281h43M320 282h43M320 283h43M320 284h43M320 285h43M320 286h43M320 287h43M320 288h43M320 289h43M320 290h43M320 291h43M320 292h43M320 293h43M320 294h43M320 295h43M320 296h43M320 297h43M320 298h43" />
<path stroke="#dbcc00" d="M405 256h43M405 257h43M405 258h43M405 259h43M405 260h43M405 261h43M405 262h43M405 263h43M405 264h43M405 265h43M405 266h43M405 267h43M405 268h43M405 269h43M405 270h43M405 271h43M405 272h43M405 273h43M405 274h43M405 275h43M405 276h43M405 277h43M405 278h43M405 279h43M405 280h43M405 281h43M405 282h43M405 283h43M405 284h43M405 285h43M405 286h43M405 287h43M405 288h43M405 289h43M405 290h43M405 291h43M405 292h43M405 293h43M405 294h43M405 295h43M405 296h43M405 297h43M405 298h43M405 299h86M533 299h43M640 299h43M725 299h43M405 300h86M533 300h43M640 300h43M725 300h43M405 301h86M533 301h43M640 301h43M725 301h43M405 302h86M533 302h43M640 302h43M725 302h43M405 303h86M533 303h43M640 303h43M725 303h43M405 304h86M533 304h43M640 304h43M725 304h43M405 305h86M533 305h43M640 305h43M725 305h43M405 306h86M533 306h43M640 306h43M725 306h43M405 307h86M533 307h43M640 307h43M725 307h43M405 308h86M533 308h43M640 308h43M725 308h43M405 309h86M533 309h43M640 309h43M725 309h43M405 310h86M533 310h43M640 310h43M725 310h43M405 311h86M533 311h43M640 311h43M725 311h43M405 312h86M533 312h43M640 312h43M725 312h43M405 313h86M533 313h43M640 313h43M725 313h43M405 314h86M533 314h43M640 314h43M725 314h43M405 315h86M533 315h43M640 315h43M725 315h43M405 316h86M533 316h43M640 316h43M725 316h43M405 317h86M533 317h43M640 317h43M725 317h43M405 318h86M533 318h43M640 318h43M725 318h43M405 319h86M533 319h43M640 319h43M725 319h43M405 320h86M533 320h43M640 320h43M725 320h43M405 321h86M533 321h43M640 321h43M725 321h43M405 322h86M533 322h43M640 322h43M725 322h43M405 323h86M533 323h43M640 323h43M725 323h43M405 324h86M533 324h43M640 324h43M725 324h43M405 325h86M533 325h43M640 325h43M725 325h43M405 326h86M533 326h43M640 326h43M725 326h43M405 327h86M533 327h43M640 327h43M725 327h43M405 328h86M533 328h43M640 328h43M725 328h43M405 329h86M533 329h43M640 329h43M725 329h43M405 330h86M533 330h43M640 330h43M725 330h43M405 331h86M533 331h43M640 331h43M725 331h43M405 332h86M533 332h43M640 332h43M725 332h43M405 333h86M533 333h43M640 333h43M725 333h43M405 334h86M533 334h43M640 334h43M725 334h43M405 335h86M533 335h43M640 335h43M725 335h43M405 336h86M533 336h43M640 336h43M725 336h43M405 337h86M533 337h43M640 337h43M725 337h43M405 338h86M533 338h43M640 338h43M725 338h43M405 339h86M533 339h43M640 339h43M725 339h43M405 340h86M533 340h43M640 340h43M725 340h43" />
<path stroke="#fff200" d="M491 256h42M640 256h43M725 256h43M491 257h42M640 257h43M725 257h43M491 258h42M640 258h43M725 258h43M491 259h42M640 259h43M725 259h43M491 260h42M640 260h43M725 260h43M491 261h42M640 261h43M725 261h43M491 262h42M640 262h43M725 262h43M491 263h42M640 263h43M725 263h43M491 264h42M640 264h43M725 264h43M491 265h42M640 265h43M725 265h43M491 266h42M640 266h43M725 266h43M491 267h42M640 267h43M725 267h43M491 268h42M640 268h43M725 268h43M491 269h42M640 269h43M725 269h43M491 270h42M640 270h43M725 270h43M491 271h42M640 271h43M725 271h43M491 272h42M640 272h43M725 272h43M491 273h42M640 273h43M725 273h43M491 274h42M640 274h43M725 274h43M491 275h42M640 275h43M725 275h43M491 276h42M640 276h43M725 276h43M491 277h42M640 277h43M725 277h43M491 278h42M640 278h43M725 278h43M491 279h42M640 279h43M725 279h43M491 280h42M640 280h43M725 280h43M491 281h42M640 281h43M725 281h43M491 282h42M640 282h43M725 282h43M491 283h42M640 283h43M725 283h43M491 284h42M640 284h43M725 284h43M491 285h42M640 285h43M725 285h43M491 286h42M640 286h43M725 286h43M491 287h42M640 287h43M725 287h43M491 288h42M640 288h43M725 288h43M491 289h42M640 289h43M725 289h43M491 290h42M640 290h43M725 290h43M491 291h42M640 291h43M725 291h43M491 292h42M640 292h43M725 292h43M491 293h42M640 293h43M725 293h43M491 294h42M640 294h43M725 294h43M491 295h42M640 295h43M725 295h43M491 296h42M640 296h43M725 296h43M491 297h42M640 297h43M725 297h43M491 298h42M640 298h43M725 298h43" />
<path stroke="#ed1c24" d="M277 299h43M277 300h43M277 301h43M277 302h43M277 303h43M277 304h43M277 305h43M277 306h43M277 307h43M277 308h43M277 309h43M277 310h43M277 311h43M277 312h43M277 313h43M277 314h43M277 315h43M277 316h43M277 317h43M277 318h43M277 319h43M277 320h43M277 321h43M277 322h43M277 323h43M277 324h43M277 325h43M277 326h43M277 327h43M277 328h43M277 329h43M277 330h43M277 331h43M277 332h43M277 333h43M277 334h43M277 335h43M277 336h43M277 337h43M277 338h43M277 339h43M277 340h43" />
<path stroke="#c9b800" d="M320 299h43M320 300h43M320 301h43M320 302h43M320 303h43M320 304h43M320 305h43M320 306h43M320 307h43M320 308h43M320 309h43M320 310h43M320 311h43M320 312h43M320 313h43M320 314h43M320 315h43M320 316h43M320 317h43M320 318h43M320 319h43M320 320h43M320 321h43M320 322h43M320 323h43M320 324h43M320 325h43M320 326h43M320 327h43M320 328h43M320 329h43M320 330h43M320 331h43M320 332h43M320 333h43M320 334h43M320 335h43M320 336h43M320 337h43M320 338h43M320 339h43M320 340h43" />
<path stroke="#ab36d1" d="M363 299h42M363 300h42M363 301h42M363 302h42M363 303h42M363 304h42M363 305h42M363 306h42M363 307h42M363 308h42M363 309h42M363 310h42M363 311h42M363 312h42M363 313h42M363 314h42M363 315h42M363 316h42M363 317h42M363 318h42M363 319h42M363 320h42M363 321h42M363 322h42M363 323h42M363 324h42M363 325h42M363 326h42M363 327h42M363 328h42M363 329h42M363 330h42M363 331h42M363 332h42M363 333h42M363 334h42M363 335h42M363 336h42M363 337h42M363 338h42M363 339h42M363 340h42" />
<path stroke="#4d6df3" d="M491 299h42M491 300h42M491 301h42M491 302h42M491 303h42M491 304h42M491 305h42M491 306h42M491 307h42M491 308h42M491 309h42M491 310h42M491 311h42M491 312h42M491 313h42M491 314h42M491 315h42M491 316h42M491 317h42M491 318h42M491 319h42M491 320h42M491 321h42M491 322h42M491 323h42M491 324h42M491 325h42M491 326h42M491 327h42M491 328h42M491 329h42M491 330h42M491 331h42M491 332h42M491 333h42M491 334h42M491 335h42M491 336h42M491 337h42M491 338h42M491 339h42M491 340h42" />
<path stroke="#0a02eb" d="M576 299h64M576 300h64M576 301h64M576 302h64M576 303h64M576 304h64M576 305h64M576 306h64M576 307h64M576 308h64M576 309h64M576 310h64M576 311h64M576 312h64M576 313h64M576 314h64M576 315h64M576 316h64M576 317h64M576 318h64M576 319h64M576 320h64M576 321h64M576 322h64M576 323h64M576 324h64M576 325h64M576 326h64M576 327h64M576 328h64M576 329h64M576 330h64M576 331h64M576 332h64M576 333h64M576 334h64M576 335h64M576 336h64M576 337h64M576 338h64M576 339h64M576 340h64" />
<path stroke="#a8e61d" d="M683 299h42M683 300h42M683 301h42M683 302h42M683 303h42M683 304h42M683 305h42M683 306h42M683 307h42M683 308h42M683 309h42M683 310h42M683 311h42M683 312h42M683 313h42M683 314h42M683 315h42M683 316h42M683 317h42M683 318h42M683 319h42M683 320h42M683 321h42M683 322h42M683 323h42M683 324h42M683 325h42M683 326h42M683 327h42M683 328h42M683 329h42M683 330h42M683 331h42M683 332h42M683 333h42M683 334h42M683 335h42M683 336h42M683 337h42M683 338h42M683 339h42M683 340h42" />
<path stroke="#86afcc" d="M235 341h42M235 342h42M235 343h42M235 344h42M235 345h42M235 346h42M235 347h42M235 348h42M235 349h42M235 350h42M235 351h42M235 352h42M235 353h42M235 354h42M235 355h42M235 356h42M235 357h42M235 358h42M235 359h42M235 360h42M235 361h42M235 362h42M235 363h42M235 364h42M235 365h42M235 366h42M235 367h42M235 368h42M235 369h42M235 370h42M235 371h42M235 372h42M235 373h42M235 374h42M235 375h42M235 376h42M235 377h42M235 378h42M235 379h42M235 380h42M235 381h42M235 382h42M235 383h42M235 384h42M235 385h42M235 386h42M235 387h42M235 388h42M235 389h42M235 390h42M235 391h42M235 392h42M235 393h42M235 394h42M235 395h42M235 396h42M235 397h42M235 398h42M235 399h42M235 400h42M235 401h42M235 402h42M235 403h42M235 404h42M235 405h42M235 406h42M235 407h42M235 408h42M235 409h42M235 410h42M235 411h42M235 412h42M235 413h42M235 414h42M235 415h42M235 416h42M235 417h42M235 418h42M235 419h42M235 420h42M235 421h42M235 422h42M235 423h42M235 424h42M235 425h42M235 426h42M235 427h42M235 428h42M235 429h42M235 430h42M235 431h42M235 432h42M235 433h42M235 434h42M235 435h42M235 436h42M235 437h42M235 438h42M235 439h42M235 440h42M235 441h42M235 442h42M235 443h42M235 444h42M235 445h42M235 446h42M235 447h42M235 448h42M235 449h42M235 450h42M235 451h42M235 452h42M235 453h42M235 454h42M235 455h42M235 456h42M235 457h42M235 458h42M235 459h42M235 460h42M235 461h42M235 462h42M235 463h42M235 464h42M235 465h42M235 466h42M235 467h42M235 468h42M235 469h42M235 470h42M235 471h42M235 472h42M235 473h42M235 474h42M235 475h42M235 476h42M235 477h42M235 478h42M235 479h42M235 480h42M235 481h42M235 482h42M235 483h42M235 484h42M235 485h42M235 486h42M235 487h42M235 488h42M235 489h42M235 490h42M235 491h42M235 492h42M235 493h42M235 494h42M235 495h42M235 496h42M235 497h42M235 498h42M235 499h42M235 500h42M235 501h42M235 502h42M235 503h42M235 504h42M235 505h42M235 506h42M235 507h42M235 508h42M235 509h42M235 510h42M235 511h42M235 512h42M235 513h42M235 514h42M235 515h42M235 516h42M235 517h42M235 518h42M235 519h42M235 520h42M235 521h42M235 522h42M235 523h42M235 524h42M235 525h42M235 526h42M235 527h42M235 528h42M235 529h42M235 530h42M235 531h42M235 532h42M235 533h42M235 534h42M235 535h42M235 536h42M235 537h42M235 538h42M235 539h42M235 540h42M235 541h42M235 542h42M235 543h42M235 544h42M235 545h42M235 546h42M235 547h42M235 548h42M235 549h42M235 550h42M235 551h42M235 552h42M235 553h42M235 554h42M235 555h42M235 556h42M235 557h42M235 558h42M235 559h42M235 560h42M235 561h42M235 562h42M235 563h42M235 564h42M235 565h42M235 566h42M235 567h42M235 568h42M235 569h42M235 570h42M235 571h42M235 572h42M235 573h42M235 574h42M235 575h42M235 576h42M235 577h42M235 578h42M235 579h42M235 580h42M235 581h42M235 582h42M235 583h42M235 584h42M235 585h42M235 586h42M235 587h42M235 588h42M235 589h42M235 590h42M235 591h42M235 592h42M235 593h42M235 594h42M235 595h42M235 596h42M235 597h42M235 598h42M235 599h42M235 600h42M235 601h42M235 602h42M235 603h42M235 604h42M235 605h42M235 606h42M235 607h42M235 608h42M235 609h42M235 610h42M235 611h42M235 612h42M235 613h42M235 614h42M235 615h42M235 616h42M235 617h42M235 618h42M235 619h42M235 620h42M235 621h42M235 622h42M235 623h42M235 624h42M235 625h42M235 626h42M235 627h42M235 628h42M235 629h42M235 630h42M235 631h42M235 632h42M235 633h42M235 634h42M235 635h42M235 636h42M235 637h42M235 638h42M235 639h42M235 640h42M235 641h42M235 642h42M235 643h42M235 644h42M235 645h42M235 646h42M235 647h42M235 648h42M235 649h42M235 650h42M235 651h42M235 652h42M235 653h42M235 654h42M235 655h42M235 656h42M235 657h42M235 658h42M235 659h42M235 660h42M235 661h490M235 662h490M235 663h490M235 664h490M235 665h490M235 666h490M235 667h490M235 668h490M235 669h490M235 670h490M235 671h490M235 672h490M235 673h490M235 674h490M235 675h490M235 676h490M235 677h490M235 678h490M235 679h490M235 680h490M235 681h490M235 682h490M235 683h490M235 684h490M235 685h490M235 686h490M235 687h490M235 688h490M235 689h490M235 690h490M235 691h490M235 692h490M235 693h490M235 694h490M235 695h490M235 696h490M235 697h490M235 698h490M235 699h490M235 700h490M235 701h490M235 702h490M235 703h490" />
<path stroke="#b7a800" d="M277 341h128M277 342h128M277 343h128M277 344h128M277 345h128M277 346h128M277 347h128M277 348h128M277 349h128M277 350h128M277 351h128M277 352h128M277 353h128M277 354h128M277 355h128M277 356h128M277 357h128M277 358h128M277 359h128M277 360h128M277 361h128M277 362h128M277 363h128M277 364h128M277 365h128M277 366h128M277 367h128M277 368h128M277 369h128M277 370h128M277 371h128M277 372h128M277 373h128M277 374h128M277 375h128M277 376h128M277 377h128M277 378h128M277 379h128M277 380h128M277 381h128M277 382h128M277 383h128" />
<path stroke="#ccbe00" d="M405 341h363M405 342h363M405 343h363M405 344h363M405 345h363M405 346h363M405 347h363M405 348h363M405 349h363M405 350h363M405 351h363M405 352h363M405 353h363M405 354h363M405 355h363M405 356h363M405 357h363M405 358h363M405 359h363M405 360h363M405 361h363M405 362h363M405 363h363M405 364h363M405 365h363M405 366h363M405 367h363M405 368h363M405 369h363M405 370h363M405 371h363M405 372h363M405 373h363M405 374h363M405 375h363M405 376h363M405 377h363M405 378h363M405 379h363M405 380h363M405 381h363M405 382h363M405 383h363" />
<path stroke="#91b9f2" d="M277 384h128M277 385h128M277 386h128M277 387h128M277 388h128M277 389h128M277 390h128M277 391h128M277 392h128M277 393h128M277 394h128M277 395h128M277 396h128M277 397h128M277 398h128M277 399h128M277 400h128M277 401h128M277 402h128M277 403h128M277 404h128M277 405h128M277 406h128M277 407h128M277 408h128M277 409h128M277 410h128M277 411h128M277 412h128M277 413h128M277 414h128M277 415h128M277 416h128M277 417h128M277 418h128M277 419h128M277 420h128M277 421h128M277 422h128M277 423h128M277 424h128M277 425h128M277 426h128M277 427h128M277 428h128M277 429h128M277 430h128M277 431h128M277 432h128M277 433h128M277 434h128M277 435h128M277 436h128M277 437h128M277 438h128M277 439h128M277 440h128M277 441h128M277 442h128M277 443h128M277 444h128M277 445h128M277 446h128M277 447h128M277 448h128M277 449h128M277 450h128M277 451h128M277 452h128M277 453h128M277 454h128M277 455h128M277 456h128M277 457h128M277 458h128M277 459h128M277 460h128M277 461h128M277 462h128M277 463h128M277 464h128M277 465h128M277 466h128M277 467h128M277 468h128M277 469h128M277 470h128M277 471h128M277 472h128M277 473h128M277 474h128M277 475h128M277 476h128M277 477h128M277 478h128M277 479h128M277 480h128M277 481h128M277 482h128M277 483h128M277 484h128M277 485h128M277 486h128M277 487h128M277 488h128M277 489h128M277 490h128M277 491h128M277 492h128M277 493h128M277 494h128M277 495h128M277 496h128M277 497h128M277 498h128M277 499h128M277 500h128M277 501h128M277 502h128M277 503h128M277 504h128M277 505h128M277 506h128M277 507h128M277 508h128M277 509h128M277 510h128M277 511h128M277 512h128M277 513h128M277 514h128M277 515h128M277 516h128M277 517h128M277 518h128M277 519h128M277 520h128M277 521h128M277 522h128M277 523h128M277 524h128M277 525h128M277 526h128M277 527h128M277 528h128M277 529h128M277 530h128M277 531h128M277 532h128M277 533h128M277 534h128M277 535h128M277 536h128M277 537h128M277 538h128M277 539h128M277 540h128M277 541h128M277 542h128M277 543h128M277 544h128M277 545h128M277 546h128M277 547h128M277 548h128M277 549h128M277 550h128M277 551h128M277 552h128M277 553h128M277 554h128M277 555h128M277 556h128M277 557h128M277 558h128M277 559h128M277 560h128M277 561h128M277 562h128M277 563h128M277 564h128M277 565h128M277 566h128M277 567h128M277 568h128M277 569h128M277 570h128M277 571h128M277 572h128M277 573h128M277 574h128M277 575h128M277 576h128M277 577h128M277 578h128M277 579h128M277 580h128M277 581h128M277 582h128M277 583h128M277 584h128M277 585h128M277 586h128M277 587h128M277 588h128M277 589h128M277 590h128M277 591h128M277 592h128M277 593h128M277 594h128M277 595h128M277 596h128M277 597h128M277 598h128M277 599h128M277 600h128M277 601h128M277 602h128M277 603h128M277 604h128M277 605h128M277 606h128M277 607h128M277 608h128M277 609h128M277 610h128M277 611h128M277 612h128M277 613h128M277 614h128M277 615h128M277 616h128M277 617h128M277 618h128M277 619h128M277 620h128M277 621h128M277 622h128M277 623h128M277 624h128M277 625h128M277 626h128M277 627h128M277 628h128M277 629h128M277 630h128M277 631h128M277 632h128M277 633h128M277 634h128M277 635h128M277 636h128M277 637h128M277 638h128M277 639h128M299 640h106M299 641h106M299 642h106M299 643h106M299 644h106M299 645h106M299 646h106M299 647h106M299 648h106M299 649h106M299 650h106M299 651h106M299 652h106M299 653h106M299 654h106M299 655h106M299 656h106M299 657h106M299 658h106M299 659h106M299 660h106" />
<path stroke="#a2d2ff" d="M405 384h43M725 384h43M405 385h43M725 385h43M405 386h43M725 386h43M405 387h43M725 387h43M405 388h43M725 388h43M405 389h43M725 389h43M405 390h43M725 390h43M405 391h43M725 391h43M405 392h43M725 392h43M405 393h43M725 393h43M405 394h43M725 394h43M405 395h43M725 395h43M405 396h43M725 396h43M405 397h43M725 397h43M405 398h43M725 398h43M405 399h43M725 399h43M405 400h43M725 400h43M405 401h43M725 401h43M405 402h43M725 402h43M405 403h43M725 403h43M405 404h43M725 404h43M405 405h43M725 405h43M405 406h43M725 406h43M405 407h43M725 407h43M405 408h43M725 408h43M405 409h43M725 409h43M405 410h43M725 410h43M405 411h43M725 411h43M405 412h43M725 412h43M405 413h43M725 413h43M405 414h43M725 414h43M405 415h43M725 415h43M405 416h43M725 416h43M405 417h43M725 417h43M405 418h43M725 418h43M405 419h43M725 419h43M405 420h43M725 420h43M405 421h43M725 421h43M405 422h43M725 422h43M405 423h43M725 423h43M405 424h43M725 424h43M405 425h43M725 425h43M405 426h43M725 426h43M405 427h43M725 427h43M405 428h43M725 428h43M405 429h43M725 429h43M405 430h43M725 430h43M405 431h43M725 431h43M405 432h43M725 432h43M405 433h43M725 433h43M405 434h43M725 434h43M405 435h43M725 435h43M405 436h43M725 436h43M405 437h43M725 437h43M405 438h43M725 438h43M405 439h43M725 439h43M405 440h43M725 440h43M405 441h43M725 441h43M405 442h43M725 442h43M405 443h43M725 443h43M405 444h43M725 444h43M405 445h43M725 445h43M405 446h43M725 446h43M405 447h43M725 447h43M405 448h43M725 448h43M405 449h43M725 449h43M405 450h43M725 450h43M405 451h43M725 451h43M405 452h43M725 452h43M405 453h43M725 453h43M405 454h43M725 454h43M405 455h43M725 455h43M405 456h43M725 456h43M405 457h43M725 457h43M405 458h43M725 458h43M405 459h43M725 459h43M405 460h43M725 460h43M405 461h43M725 461h43M405 462h43M725 462h43M405 463h43M725 463h43M405 464h43M725 464h43M405 465h43M725 465h43M405 466h43M725 466h43M405 467h43M725 467h43M405 468h43M725 468h43M405 469h43M725 469h43M405 470h43M725 470h43M405 471h43M725 471h43M405 472h43M725 472h43M405 473h43M725 473h43M405 474h43M725 474h43M405 475h43M725 475h43M405 476h43M725 476h43M405 477h43M725 477h43M405 478h43M725 478h43M405 479h43M725 479h43M405 480h43M725 480h43M405 481h43M725 481h43M405 482h43M725 482h43M405 483h43M725 483h43M405 484h43M725 484h43M405 485h43M725 485h43M405 486h43M725 486h43M405 487h43M725 487h43M405 488h43M725 488h43M405 489h43M725 489h43M405 490h43M725 490h43M405 491h43M747 491h21M405 492h43M747 492h21M405 493h43M747 493h21M405 494h43M747 494h21M405 495h43M747 495h21M405 496h43M747 496h21M405 497h43M747 497h21M405 498h43M747 498h21M405 499h43M747 499h21M405 500h43M747 500h21M405 501h43M747 501h21M405 502h43M747 502h21M405 503h43M747 503h21M405 504h43M747 504h21M405 505h43M747 505h21M405 506h43M747 506h21M405 507h43M747 507h21M405 508h43M747 508h21M405 509h43M747 509h21M405 510h43M747 510h21M405 511h43M747 511h21M405 512h43M747 512h21M405 513h43M747 513h21M405 514h43M747 514h21M405 515h43M747 515h21M405 516h43M747 516h21M405 517h43M747 517h21M405 518h43M747 518h21M405 519h43M747 519h21M405 520h43M747 520h21M405 521h43M747 521h21M405 522h43M747 522h21M405 523h43M747 523h21M405 524h43M747 524h21M405 525h43M747 525h21M405 526h43M747 526h21M405 527h43M747 527h21M405 528h43M747 528h21M405 529h43M747 529h21M405 530h43M747 530h21M405 531h43M747 531h21M405 532h43M747 532h21M405 533h43M747 533h21M405 534h43M747 534h21M405 535h43M747 535h21M405 536h43M747 536h21M405 537h43M747 537h21M405 538h43M747 538h21M405 539h43M747 539h21M405 540h43M747 540h21M405 541h43M747 541h21M405 542h43M747 542h21M405 543h43M747 543h21M405 544h43M747 544h21M405 545h43M747 545h21M405 546h43M747 546h21M405 547h43M747 547h21M405 548h43M747 548h21M405 549h43M747 549h21M405 550h43M747 550h21M405 551h43M747 551h21M405 552h43M747 552h21M405 553h43M747 553h21M405 554h43M747 554h21M405 555h43M747 555h21M405 556h43M747 556h21M405 557h43M747 557h21M405 558h43M747 558h21M405 559h43M747 559h21M405 560h43M747 560h21M405 561h43M747 561h21M405 562h43M747 562h21M405 563h43M747 563h21M405 564h43M747 564h21M405 565h43M747 565h21M405 566h43M747 566h21M405 567h43M747 567h21M405 568h43M747 568h21M405 569h43M747 569h21M405 570h43M747 570h21M405 571h43M747 571h21M405 572h43M747 572h21M405 573h43M747 573h21M405 574h43M747 574h21M405 575h43M747 575h21M405 576h43M747 576h21M405 577h43M747 577h21M405 578h43M747 578h21M405 579h43M747 579h21M405 580h43M747 580h21M405 581h43M747 581h21M405 582h43M747 582h21M405 583h43M747 583h21M405 584h43M747 584h21M405 585h43M747 585h21M405 586h43M747 586h21M405 587h43M747 587h21M405 588h43M747 588h21M405 589h43M747 589h21M405 590h43M747 590h21M405 591h43M747 591h21M405 592h43M747 592h21M405 593h43M747 593h21M405 594h43M747 594h21M405 595h43M747 595h21M405 596h43M747 596h21M405 597h43M747 597h21M405 598h43M747 598h21M405 599h43M747 599h21M405 600h43M747 600h21M405 601h43M747 601h21M405 602h43M747 602h21M405 603h43M747 603h21M405 604h43M747 604h21M405 605h43M747 605h21M405 606h43M747 606h21M405 607h43M747 607h21M405 608h43M747 608h21M405 609h43M747 609h21M405 610h43M747 610h21M405 611h43M747 611h21M405 612h43M747 612h21M405 613h43M747 613h21M405 614h43M747 614h21M405 615h43M747 615h21M405 616h43M747 616h21M405 617h43M747 617h21M405 618h43M747 618h21M405 619h43M747 619h21M405 620h43M747 620h21M405 621h43M747 621h21M405 622h43M747 622h21M405 623h43M747 623h21M405 624h43M747 624h21M405 625h43M747 625h21M405 626h43M747 626h21M405 627h43M747 627h21M405 628h43M747 628h21M405 629h43M747 629h21M405 630h43M747 630h21M405 631h43M747 631h21M405 632h43M747 632h21M405 633h43M747 633h21M405 634h43M747 634h21M405 635h43M747 635h21M405 636h43M747 636h21M405 637h43M747 637h21M405 638h43M747 638h21M405 639h43M747 639h21M405 640h43M725 640h43M405 641h43M725 641h43M405 642h43M725 642h43M405 643h43M725 643h43M405 644h43M725 644h43M405 645h43M725 645h43M405 646h43M725 646h43M405 647h43M725 647h43M405 648h43M725 648h43M405 649h43M725 649h43M405 650h43M725 650h43M405 651h43M725 651h43M405 652h43M725 652h43M405 653h43M725 653h43M405 654h43M725 654h43M405 655h43M725 655h43M405 656h43M725 656h43M405 657h43M725 657h43M405 658h43M725 658h43M405 659h43M725 659h43M405 660h43M725 660h43" />
<path stroke="#f2d06d" d="M448 384h85M640 384h85M448 385h85M640 385h85M448 386h85M640 386h85M448 387h85M640 387h85M448 388h85M640 388h85M448 389h85M640 389h85M448 390h85M640 390h85M448 391h85M640 391h85M448 392h85M640 392h85M448 393h85M640 393h85M448 394h85M640 394h85M448 395h85M640 395h85M448 396h85M640 396h85M448 397h85M640 397h85M448 398h85M640 398h85M448 399h85M640 399h85M448 400h85M640 400h85M448 401h85M640 401h85M448 402h85M640 402h85M448 403h85M640 403h85M448 404h85M640 404h85M448 405h85M640 405h85M448 406h85M640 406h85M448 407h85M640 407h85M448 408h85M640 408h85M448 409h85M640 409h85M448 410h85M640 410h85M448 411h85M640 411h85M448 412h85M640 412h85M448 413h85M640 413h85M448 414h85M640 414h85M448 415h85M640 415h85M448 416h85M640 416h85M448 417h85M640 417h85M448 418h85M640 418h85M448 419h85M640 419h85M448 420h85M640 420h85M448 421h85M640 421h85M448 422h85M640 422h85M448 423h85M640 423h85M448 424h85M640 424h85M448 425h85M640 425h85M448 426h85M640 426h85M448 427h43M683 427h42M448 428h43M683 428h42M448 429h43M683 429h42M448 430h43M683 430h42M448 431h43M683 431h42M448 432h43M683 432h42M448 433h43M683 433h42M448 434h43M683 434h42M448 435h43M683 435h42M448 436h43M683 436h42M448 437h43M683 437h42M448 438h43M683 438h42M448 439h43M683 439h42M448 440h43M683 440h42M448 441h43M683 441h42M448 442h43M683 442h42M448 443h43M683 443h42M448 444h43M683 444h42M448 445h43M683 445h42M448 446h43M683 446h42M448 447h43M683 447h42M448 448h43M683 448h42M448 449h43M683 449h42M448 450h43M683 450h42M448 451h43M683 451h42M448 452h43M683 452h42M448 453h43M683 453h42M448 454h43M683 454h42M448 455h43M683 455h42M448 456h43M683 456h42M448 457h43M683 457h42M448 458h43M683 458h42M448 459h43M683 459h42M448 460h43M683 460h42M448 461h43M683 461h42M448 462h43M683 462h42M448 463h43M683 463h42M448 464h43M683 464h42M448 465h43M683 465h42M448 466h43M683 466h42M448 467h43M683 467h42M448 468h43M683 468h42" />
<path stroke="#fde977" d="M533 384h107M533 385h107M533 386h107M533 387h107M533 388h107M533 389h107M533 390h107M533 391h107M533 392h107M533 393h107M533 394h107M533 395h107M533 396h107M533 397h107M533 398h107M533 399h107M533 400h107M533 401h107M533 402h107M533 403h107M533 404h107M533 405h107M533 406h107M533 407h107M533 408h107M533 409h107M533 410h107M533 411h107M533 412h107M533 413h107M533 414h107M533 415h107M533 416h107M533 417h107M533 418h107M533 419h107M533 420h107M533 421h107M533 422h107M533 423h107M533 424h107M533 425h107M533 426h107M491 427h192M491 428h192M491 429h192M491 430h192M491 431h192M491 432h192M491 433h192M491 434h192M491 435h192M491 436h192M491 437h192M491 438h192M491 439h192M491 440h192M491 441h192M491 442h192M491 443h192M491 444h192M491 445h192M491 446h192M491 447h192M491 448h192M491 449h192M491 450h192M491 451h192M491 452h192M491 453h192M491 454h192M491 455h192M491 456h192M491 457h192M491 458h192M491 459h192M491 460h192M491 461h192M491 462h192M491 463h192M491 464h192M491 465h192M491 466h192M491 467h192M491 468h192M448 469h277M448 470h277M448 471h277M448 472h277M448 473h277M448 474h277M448 475h277M448 476h277M448 477h277M448 478h277M448 479h277M448 480h277M448 481h277M448 482h277M448 483h277M448 484h277M448 485h277M448 486h277M448 487h277M448 488h277M448 489h277M448 490h277M448 491h277M448 492h277M448 493h277M448 494h277M448 495h277M448 496h277M448 497h277M448 498h277M448 499h277M448 500h277M448 501h277M448 502h277M448 503h277M448 504h277M448 505h277M448 506h277M448 507h277M448 508h277M448 509h277M448 510h277M448 511h277M448 512h277M448 513h277M448 514h277M448 515h277M448 516h277M448 517h277M448 518h277M448 519h277M448 520h277M448 521h277M448 522h277M448 523h277M448 524h277M448 525h277M448 526h277M448 527h277M448 528h277M448 529h277M448 530h277M448 531h277M448 532h277M448 533h277M448 534h277M448 535h277M448 536h277M448 537h277M448 538h277M448 539h277M448 540h277M448 541h277M448 542h277M448 543h277M448 544h277M448 545h277M448 546h277M448 547h277M448 548h277M448 549h277M448 550h277M448 551h277M448 552h277M448 553h277M448 554h277M448 555h277M448 556h277M448 557h277M448 558h277M448 559h277M448 560h277M448 561h277M448 562h277M448 563h277M448 564h277M448 565h277M448 566h277M448 567h277M448 568h277M448 569h277M448 570h277M448 571h277M448 572h277M448 573h277M448 574h277M448 575h277M491 576h42M640 576h43M491 577h42M640 577h43M491 578h42M640 578h43M491 579h42M640 579h43M491 580h42M640 580h43M491 581h42M640 581h43M491 582h42M640 582h43M491 583h42M640 583h43M491 584h42M640 584h43M491 585h42M640 585h43M491 586h42M640 586h43M491 587h42M640 587h43M491 588h42M640 588h43M491 589h42M640 589h43M491 590h42M640 590h43M491 591h42M640 591h43M491 592h42M640 592h43M491 593h42M640 593h43M491 594h42M640 594h43M491 595h42M640 595h43M491 596h42M640 596h43M491 597h42M640 597h43M491 598h42M640 598h43M491 599h42M640 599h43M491 600h42M640 600h43M491 601h42M640 601h43M491 602h42M640 602h43M491 603h42M640 603h43M491 604h42M640 604h43M491 605h42M640 605h43M491 606h42M640 606h43M491 607h42M640 607h43M491 608h42M640 608h43M491 609h42M640 609h43M491 610h42M640 610h43M491 611h42M640 611h43M491 612h42M640 612h43M491 613h42M640 613h43M491 614h42M640 614h43M491 615h42M640 615h43M491 616h42M640 616h43M491 617h42M640 617h43M491 618h42M640 618h43M448 619h277M448 620h277M448 621h277M448 622h277M448 623h277M448 624h277M448 625h277M448 626h277M448 627h277M448 628h277M448 629h277M448 630h277M448 631h277M448 632h277M448 633h277M448 634h277M448 635h277M448 636h277M448 637h277M448 638h277M448 639h277M448 640h277M448 641h277M448 642h277M448 643h277M448 644h277M448 645h277M448 646h277M448 647h277M448 648h277M448 649h277M448 650h277M448 651h277M448 652h277M448 653h277M448 654h277M448 655h277M448 656h277M448 657h277M448 658h277M448 659h277M448 660h277" />
<path stroke="#a2d2fe" d="M725 491h22M725 492h22M725 493h22M725 494h22M725 495h22M725 496h22M725 497h22M725 498h22M725 499h22M725 500h22M725 501h22M725 502h22M725 503h22M725 504h22M725 505h22M725 506h22M725 507h22M725 508h22M725 509h22M725 510h22M725 511h22M725 512h22M725 513h22M725 514h22M725 515h22M725 516h22M725 517h22M725 518h22M725 519h22M725 520h22M725 521h22M725 522h22M725 523h22M725 524h22M725 525h22M725 526h22M725 527h22M725 528h22M725 529h22M725 530h22M725 531h22M725 532h22" />
<path stroke="#a5d3fc" d="M725 533h22M725 534h22M725 535h22M725 536h22M725 537h22M725 538h22M725 539h22M725 540h22M725 541h22M725 542h22M725 543h22M725 544h22M725 545h22M725 546h22M725 547h22M725 548h22M725 549h22M725 550h22M725 551h22M725 552h22M725 553h22M725 554h22M725 555h22M725 556h22M725 557h22M725 558h22M725 559h22M725 560h22M725 561h22M725 562h22M725 563h22M725 564h22M725 565h22M725 566h22M725 567h22M725 568h22M725 569h22M725 570h22M725 571h22M725 572h22M725 573h22M725 574h22M725 575h22M725 576h22M725 577h22M725 578h22M725 579h22M725 580h22M725 581h22M725 582h22M725 583h22M725 584h22M725 585h22M725 586h22M725 587h22M725 588h22M725 589h22M725 590h22M725 591h22M725 592h22M725 593h22M725 594h22M725 595h22M725 596h22" />
<path stroke="#6a6a6a" d="M448 576h43M683 576h42M448 577h43M683 577h42M448 578h43M683 578h42M448 579h43M683 579h42M448 580h43M683 580h42M448 581h43M683 581h42M448 582h43M683 582h42M448 583h43M683 583h42M448 584h43M683 584h42M448 585h43M683 585h42M448 586h43M683 586h42M448 587h43M683 587h42M448 588h43M683 588h42M448 589h43M683 589h42M448 590h43M683 590h42M448 591h43M683 591h42M448 592h43M683 592h42M448 593h43M683 593h42M448 594h43M683 594h42M448 595h43M683 595h42M448 596h43M683 596h42M448 597h43M683 597h42M448 598h43M683 598h42M448 599h43M683 599h42M448 600h43M683 600h42M448 601h43M683 601h42M448 602h43M683 602h42M448 603h43M683 603h42M448 604h43M683 604h42M448 605h43M683 605h42M448 606h43M683 606h42M448 607h43M683 607h42M448 608h43M683 608h42M448 609h43M683 609h42M448 610h43M683 610h42M448 611h43M683 611h42M448 612h43M683 612h42M448 613h43M683 613h42M448 614h43M683 614h42M448 615h43M683 615h42M448 616h43M683 616h42M448 617h43M683 617h42M448 618h43M683 618h42" />
<path stroke="#ffa64d" d="M533 576h107M533 577h107M533 578h107M533 579h107M533 580h107M533 581h107M533 582h107M533 583h107M533 584h107M533 585h107M533 586h107M533 587h107M533 588h107M533 589h107M533 590h107M533 591h107M533 592h107M533 593h107M533 594h107M533 595h107M533 596h107M533 597h107M533 598h107M533 599h107M533 600h107M533 601h107M533 602h107M533 603h107M533 604h107M533 605h107M533 606h107M533 607h107M533 608h107M533 609h107M533 610h107M533 611h107M533 612h107M533 613h107M533 614h107M533 615h107M533 616h107M533 617h107M533 618h107" />
<path stroke="#a7d3fb" d="M725 597h22M725 598h22M725 599h22M725 600h22M725 601h22M725 602h22M725 603h22M725 604h22M725 605h22M725 606h22M725 607h22M725 608h22M725 609h22M725 610h22M725 611h22M725 612h22M725 613h22M725 614h22M725 615h22M725 616h22M725 617h22M725 618h22M725 619h22M725 620h22M725 621h22M725 622h22M725 623h22M725 624h22M725 625h22M725 626h22M725 627h22M725 628h22M725 629h22M725 630h22M725 631h22M725 632h22M725 633h22M725 634h22M725 635h22M725 636h22M725 637h22M725 638h22M725 639h22" />
<path stroke="#92b9f1" d="M277 640h22M277 641h22M277 642h22M277 643h22M277 644h22M277 645h22M277 646h22M277 647h22M277 648h22M277 649h22M277 650h22M277 651h22M277 652h22M277 653h22M277 654h22M277 655h22M277 656h22M277 657h22M277 658h22M277 659h22M277 660h22" />
<path stroke="#bcd9ee" d="M747 683h21M747 684h21M747 685h21M747 686h21M747 687h21M747 688h21M747 689h21M747 690h21M747 691h21M747 692h21M747 693h21M747 694h21M747 695h21M747 696h21M747 697h21M747 698h21M747 699h21M747 700h21M747 701h21M747 702h21M747 703h21" />
</svg>