<svg xmlns="http://www.w3.org/2000/svg" viewBox="0 -0.5 1024 1024" shape-rendering="crispEdges">
<metadata>Made with Pixels to Svg https://codepen.io/shshaw/pen/XbxvNj</metadata>
<path stroke="rgba(191,223,223,0.03137254901960784)" d="M480 0h1M543 0h1M243 75h1M780 75h1M75 243h1M948 243h1M0 480h1M1023 480h1M0 543h1M1023 543h1M75 780h1M948 780h1M243 948h1M780 948h1M480 1023h1M543 1023h1" />
<path stroke="rgba(191,223,234,0.09411764705882353)" d="M481 0h1M542 0h1M457 2h1M566 2h1M226 86h1M797 86h1M86 226h1M937 226h1M2 457h1M1021 457h1M0 481h1M1023 481h1M0 542h1M1023 542h1M2 566h1M1021 566h1M86 797h1M937 797h1M226 937h1M797 937h1M457 1021h1M566 1021h1M481 1023h1M542 1023h1" />
<path stroke="rgba(188,215,242,0.14901960784313725)" d="M482 0h1M468 1h1M555 1h1M428 6h1M357 23h1M666 23h1M342 28h1M681 28h1M275 57h1M748 57h1M240 77h1M783 77h1M181 120h1M842 120h1M120 181h1M903 181h1M77 240h1M946 240h1M57 275h1M966 275h1M28 342h1M995 342h1M23 357h1M1000 357h1M1017 428h1M1 468h1M1022 468h1M1023 482h1M0 541h1M1 555h1M1022 555h1M6 595h1M23 666h1M1000 666h1M28 681h1M995 681h1M57 748h1M966 748h1M77 783h1M946 783h1M120 842h1M903 842h1M181 903h1M842 903h1M240 946h1M783 946h1M275 966h1M748 966h1M342 995h1M681 995h1M357 1000h1M666 1000h1M595 1017h1M468 1022h1M555 1022h1M541 1023h1" />
<path stroke="rgba(188,217,241,0.20784313725490197)" d="M483 0h1M540 0h1M417 8h1M606 8h1M351 25h1M672 25h1M348 26h1M675 26h1M285 52h1M971 285h1M26 348h1M997 348h1M25 351h1M998 351h1M8 417h1M1015 417h1M0 483h1M1023 483h1M0 540h1M1023 540h1M8 606h1M1015 606h1M25 672h1M998 672h1M26 675h1M997 675h1M52 738h1M738 971h1M348 997h1M675 997h1M351 998h1M672 998h1M417 1015h1M606 1015h1M483 1023h1M540 1023h1" />
<path stroke="rgba(190,217,240,0.2627450980392157)" d="M484 0h1M539 0h1M442 4h1M581 4h1M334 31h1M689 31h1M31 334h1M992 334h1M4 442h1M1019 442h1M0 484h1M1023 484h1M0 539h1M1023 539h1M4 581h1M1019 581h1M31 689h1M992 689h1M334 992h1M689 992h1M442 1019h1M581 1019h1M484 1023h1M539 1023h1" />
<path stroke="rgba(188,217,239,0.3137254901960784)" d="M485 0h1M538 0h1M429 6h1M594 6h1M234 81h1M942 234h1M6 429h1M1017 429h1M0 485h1M1023 485h1M0 538h1M1023 538h1M6 594h1M1017 594h1M81 789h1M789 942h1M429 1017h1M594 1017h1M485 1023h1M538 1023h1" />
<path stroke="rgba(189,219,239,0.36470588235294116)" d="M486 0h1M537 0h1M225 87h1M798 87h1M87 225h1M936 225h1M0 486h1M1023 486h1M0 537h1M1023 537h1M87 798h1M936 798h1M225 936h1M798 936h1M486 1023h1M537 1023h1" />
<path stroke="rgba(190,219,238,0.41568627450980394)" d="M487 0h1M536 0h1M451 3h1M572 3h1M158 141h1M865 141h1M141 158h1M882 158h1M3 451h1M1020 451h1M0 487h1M1023 487h1M0 536h1M1023 536h1M3 572h1M1020 572h1M141 865h1M882 865h1M158 882h1M865 882h1M451 1020h1M572 1020h1M487 1023h1M536 1023h1" />
<path stroke="rgba(188,218,240,0.4627450980392157)" d="M488 0h1M535 0h1M0 488h1M1023 488h1M0 535h1M1023 535h1M488 1023h1M535 1023h1" />
<path stroke="rgba(190,217,239,0.5058823529411764)" d="M489 0h1M534 0h1M332 32h1M294 48h1M729 48h1M48 294h1M975 294h1M0 489h1M1023 489h1M0 534h1M1023 534h1M48 729h1M975 729h1M294 975h1M729 975h1M489 1023h1M534 1023h1" />
<path stroke="rgba(189,219,239,0.5490196078431373)" d="M490 0h1M533 0h1M437 5h1M236 80h1M787 80h1M151 148h1M872 148h1M148 151h1M875 151h1M80 236h1M943 236h1M1018 437h1M0 490h1M1023 490h1M0 533h1M1023 533h1M5 586h1M80 787h1M943 787h1M148 872h1M875 872h1M151 875h1M872 875h1M236 943h1M787 943h1M586 1018h1M490 1023h1M533 1023h1" />
<path stroke="rgba(189,218,240,0.5882352941176471)" d="M491 0h1M365 21h1M658 21h1M221 90h1M802 90h1M207 100h1M816 100h1M100 207h1M923 207h1M90 221h1M933 221h1M21 365h1M1002 365h1M1023 491h1M0 532h1M21 658h1M1002 658h1M90 802h1M933 802h1M100 816h1M923 816h1M207 923h1M816 923h1M221 933h1M802 933h1M365 1002h1M658 1002h1M532 1023h1" />
<path stroke="rgba(190,218,239,0.6274509803921569)" d="M492 0h1M531 0h1M636 15h1M288 51h1M189 114h1M834 114h1M855 132h1M132 168h1M114 189h1M909 189h1M972 288h1M15 387h1M0 492h1M1023 492h1M0 531h1M1023 531h1M1008 636h1M51 735h1M114 834h1M909 834h1M891 855h1M168 891h1M189 909h1M834 909h1M735 972h1M387 1008h1M492 1023h1M531 1023h1" />
<path stroke="rgba(189,218,239,0.6666666666666666)" d="M493 0h1M530 0h1M310 41h1M713 41h1M256 68h1M767 68h1M68 256h1M955 256h1M41 310h1M982 310h1M0 493h1M1023 493h1M0 530h1M1023 530h1M41 713h1M982 713h1M68 767h1M955 767h1M256 955h1M767 955h1M310 982h1M713 982h1M493 1023h1M530 1023h1" />
<path stroke="rgba(189,218,239,0.7019607843137254)" d="M494 0h1M529 0h1M463 2h1M560 2h1M1021 463h1M0 494h1M1023 494h1M0 529h1M1023 529h1M494 1023h1M529 1023h1" />
<path stroke="rgba(190,218,239,0.7333333333333333)" d="M495 0h1M528 0h1M647 18h1M330 33h1M693 33h1M33 330h1M990 330h1M18 376h1M0 495h1M1023 495h1M0 528h1M1023 528h1M1005 647h1M33 693h1M990 693h1M330 990h1M693 990h1M495 1023h1M528 1023h1" />
<path stroke="rgba(190,218,239,0.7647058823529411)" d="M496 0h1M527 0h1M359 23h1M664 23h1M217 93h1M806 93h1M166 134h1M889 166h1M93 217h1M930 217h1M23 359h1M1000 359h1M0 496h1M1023 496h1M0 527h1M1023 527h1M23 664h1M1000 664h1M93 806h1M930 806h1M134 857h1M857 889h1M217 930h1M806 930h1M359 1000h1M664 1000h1M496 1023h1M527 1023h1" />
<path stroke="rgba(188,219,239,0.796078431372549)" d="M497 0h1M526 0h1M464 2h1M559 2h1M396 13h1M308 42h1M715 42h1M258 67h1M765 67h1M206 101h1M817 101h1M830 111h1M175 126h1M848 126h1M126 175h1M897 175h1M111 193h1M101 206h1M922 206h1M67 258h1M956 258h1M42 308h1M981 308h1M1010 396h1M2 464h1M1021 464h1M0 497h1M1023 497h1M0 526h1M1023 526h1M2 559h1M1021 559h1M13 627h1M42 715h1M981 715h1M67 765h1M956 765h1M101 817h1M922 817h1M912 830h1M126 848h1M897 848h1M175 897h1M848 897h1M193 912h1M206 922h1M817 922h1M258 956h1M765 956h1M308 981h1M715 981h1M627 1010h1M464 1021h1M559 1021h1M497 1023h1M526 1023h1" />
<path stroke="rgba(189,219,239,0.8235294117647058)" d="M498 0h1M525 0h1M165 135h1M858 135h1M135 165h1M888 165h1M0 498h1M1023 498h1M0 525h1M1023 525h1M135 858h1M888 858h1M165 888h1M858 888h1M498 1023h1M525 1023h1" />
<path stroke="rgba(189,218,238,0.8470588235294118)" d="M499 0h1M524 0h1M631 14h1M14 392h1M0 499h1M1023 499h1M0 524h1M1023 524h1M1009 631h1M392 1009h1M499 1023h1M524 1023h1" />
<path stroke="rgba(190,218,239,0.8705882352941177)" d="M500 0h1M523 0h1M388 15h1M635 15h1M15 388h1M1008 388h1M0 500h1M1023 500h1M0 523h1M1023 523h1M15 635h1M1008 635h1M388 1008h1M635 1008h1M500 1023h1M523 1023h1" />
<path stroke="rgba(189,218,239,0.8941176470588236)" d="M501 0h1M522 0h1M465 2h1M558 2h1M650 19h1M810 96h1M96 213h1M19 373h1M2 465h1M1021 465h1M0 501h1M1023 501h1M0 522h1M1023 522h1M2 558h1M1021 558h1M1004 650h1M927 810h1M213 927h1M373 1004h1M465 1021h1M558 1021h1M501 1023h1M522 1023h1" />
<path stroke="#bddaef" d="M502 0h20M480 1h64M467 2h90M456 3h112M448 4h128M441 5h142M434 6h156M428 7h168M421 8h182M416 9h192M411 10h202M406 11h212M401 12h222M397 13h230M393 14h238M389 15h246M385 16h254M381 17h262M377 18h270M374 19h276M370 20h284M367 21h290M364 22h296M360 23h304M357 24h310M354 25h316M351 26h322M348 27h328M345 28h334M342 29h340M339 30h346M337 31h350M334 32h356M331 33h362M329 34h366M326 35h372M323 36h378M321 37h382M319 38h386M316 39h392M314 40h396M311 41h402M309 42h406M306 43h412M304 44h416M302 45h420M300 46h424M298 47h428M296 48h432M294 49h436M291 50h442M289 51h446M287 52h450M285 53h454M283 54h458M281 55h462M279 56h466M277 57h470M275 58h474M273 59h478M272 60h480M270 61h484M268 62h488M266 63h492M264 64h496M262 65h500M261 66h502M259 67h506M257 68h510M255 69h514M254 70h516M252 71h520M250 72h524M249 73h526M247 74h530M245 75h534M244 76h536M242 77h540M240 78h543M239 79h546M237 80h550M236 81h552M234 82h556M233 83h558M231 84h562M230 85h564M228 86h568M227 87h570M225 88h574M224 89h576M222 90h580M221 91h582M219 92h586M218 93h588M216 94h592M215 95h594M214 96h596M212 97h600M211 98h602M210 99h604M208 100h608M207 101h610M205 102h614M204 103h616M203 104h618M202 105h620M200 106h624M199 107h626M198 108h628M196 109h632M195 110h634M194 111h636M193 112h638M191 113h642M190 114h644M189 115h646M188 116h648M186 117h652M185 118h654M184 119h656M183 120h658M182 121h660M180 122h664M179 123h666M178 124h668M177 125h670M176 126h672M175 127h674M174 128h676M172 129h680M171 130h682M170 131h684M169 132h686M168 133h688M167 134h690M166 135h692M165 136h694M164 137h696M163 138h698M161 139h702M160 140h704M159 141h706M158 142h708M157 143h710M156 144h712M155 145h714M154 146h716M153 147h718M152 148h720M151 149h722M150 150h724M149 151h726M148 152h728M147 153h730M146 154h732M145 155h734M144 156h736M143 157h738M142 158h740M141 159h742M140 160h744M139 161h746M139 162h746M138 163h748M137 164h750M136 165h752M135 166h754M134 167h756M133 168h758M132 169h760M131 170h762M130 171h764M129 172h766M129 173h766M128 174h768M127 175h770M126 176h772M125 177h774M124 178h776M123 179h778M122 180h780M122 181h780M121 182h782M120 183h784M119 184h786M118 185h788M117 186h790M117 187h790M116 188h792M115 189h794M114 190h796M113 191h798M113 192h798M112 193h800M111 194h802M110 195h804M109 196h806M109 197h806M108 198h808M107 199h810M106 200h812M106 201h812M105 202h814M104 203h816M103 204h818M102 205h820M102 206h820M101 207h822M100 208h824M100 209h824M99 210h826M98 211h828M97 212h830M97 213h830M96 214h832M95 215h834M94 216h836M94 217h836M93 218h838M92 219h840M92 220h840M91 221h842M90 222h844M90 223h844M89 224h846M88 225h848M88 226h848M87 227h850M86 228h852M86 229h852M85 230h854M84 231h856M84 232h856M83 233h858M82 234h860M82 235h860M81 236h862M80 237h864M80 238h864M79 239h866M79 240h867M78 241h868M77 242h870M77 243h870M76 244h872M75 245h874M75 246h874M74 247h876M74 248h876M73 249h878M72 250h880M72 251h880M71 252h882M71 253h882M70 254h884M69 255h886M69 256h886M68 257h888M68 258h888M67 259h890M67 260h890M66 261h892M65 262h894M65 263h894M64 264h896M64 265h896M63 266h898M63 267h898M62 268h900M62 269h900M61 270h902M61 271h902M60 272h904M59 273h906M59 274h906M58 275h908M58 276h908M57 277h910M57 278h910M56 279h912M56 280h912M55 281h914M55 282h914M54 283h916M54 284h916M53 285h918M53 286h918M52 287h920M52 288h920M51 289h922M51 290h922M50 291h924M50 292h924M50 293h924M49 294h926M49 295h926M48 296h928M48 297h928M47 298h230M768 298h209M47 299h230M768 299h209M46 300h231M768 300h210M46 301h231M768 301h210M45 302h232M768 302h211M45 303h232M768 303h211M44 304h233M768 304h212M44 305h233M768 305h212M43 306h234M768 306h213M43 307h234M768 307h213M43 308h234M768 308h213M42 309h235M768 309h214M42 310h235M768 310h214M41 311h236M768 311h215M41 312h236M768 312h215M41 313h236M768 313h215M40 314h237M768 314h216M40 315h237M768 315h216M39 316h238M768 316h217M39 317h238M768 317h217M39 318h238M768 318h217M38 319h239M768 319h218M38 320h239M768 320h218M37 321h240M768 321h219M37 322h240M768 322h219M36 323h241M768 323h220M36 324h241M768 324h220M36 325h241M768 325h220M35 326h242M768 326h221M35 327h242M768 327h221M35 328h242M768 328h221M34 329h243M768 329h222M34 330h243M768 330h222M33 331h244M768 331h223M33 332h244M768 332h223M33 333h244M768 333h223M32 334h245M768 334h224M32 335h245M768 335h224M32 336h245M768 336h224M31 337h246M768 337h225M31 338h246M768 338h225M30 339h247M768 339h226M30 340h247M768 340h226M30 341h204M768 341h226M29 342h205M768 342h227M29 343h205M768 343h227M29 344h205M768 344h227M28 345h206M768 345h228M28 346h206M768 346h228M28 347h206M768 347h228M27 348h207M768 348h229M27 349h207M768 349h229M27 350h207M768 350h229M26 351h208M768 351h230M26 352h208M768 352h230M26 353h208M768 353h230M25 354h209M768 354h231M25 355h209M768 355h231M25 356h209M768 356h231M24 357h210M768 357h232M24 358h210M768 358h232M24 359h210M768 359h232M23 360h211M768 360h233M23 361h211M768 361h233M23 362h211M768 362h233M23 363h211M768 363h233M22 364h212M768 364h234M22 365h212M768 365h234M22 366h212M768 366h234M21 367h213M768 367h235M21 368h213M768 368h235M21 369h213M768 369h235M20 370h214M768 370h236M20 371h214M768 371h236M20 372h214M768 372h236M20 373h214M768 373h236M19 374h215M768 374h237M19 375h215M768 375h237M19 376h215M768 376h237M18 377h216M768 377h238M18 378h216M768 378h238M18 379h216M768 379h238M18 380h216M768 380h238M17 381h217M768 381h239M17 382h217M768 382h239M17 383h217M768 383h239M17 384h217M768 384h239M16 385h218M768 385h240M16 386h218M768 386h240M16 387h218M768 387h240M16 388h218M768 388h240M15 389h219M768 389h241M15 390h219M768 390h241M15 391h219M768 391h241M15 392h219M768 392h241M14 393h220M768 393h242M14 394h220M768 394h242M14 395h220M768 395h242M14 396h220M768 396h242M13 397h221M768 397h243M13 398h221M768 398h243M13 399h221M768 399h243M13 400h221M768 400h243M12 401h222M768 401h244M12 402h222M768 402h244M12 403h222M768 403h244M12 404h222M768 404h244M12 405h222M768 405h244M11 406h223M768 406h245M11 407h223M768 407h245M11 408h223M768 408h245M11 409h223M768 409h245M11 410h223M768 410h245M10 411h224M768 411h246M10 412h224M768 412h246M10 413h224M768 413h246M10 414h224M768 414h246M10 415h224M768 415h246M9 416h225M768 416h247M9 417h225M768 417h247M9 418h225M768 418h247M9 419h225M768 419h247M9 420h225M768 420h247M8 421h226M768 421h248M8 422h226M768 422h248M8 423h226M768 423h248M8 424h226M768 424h248M8 425h226M768 425h248M8 426h226M768 426h248M8 427h226M768 427h248M7 428h227M768 428h249M7 429h227M768 429h249M7 430h227M768 430h249M7 431h227M768 431h249M7 432h227M768 432h249M7 433h227M768 433h249M6 434h228M768 434h250M6 435h228M768 435h250M6 436h228M768 436h250M6 437h228M768 437h250M6 438h228M768 438h250M6 439h228M768 439h250M6 440h228M768 440h250M5 441h229M768 441h251M5 442h229M768 442h251M5 443h229M768 443h251M5 444h229M768 444h251M5 445h229M768 445h251M5 446h229M768 446h251M5 447h229M768 447h251M4 448h230M768 448h252M4 449h230M768 449h252M4 450h230M768 450h252M4 451h230M768 451h252M4 452h230M768 452h252M4 453h230M768 453h252M4 454h230M768 454h252M4 455h230M768 455h252M3 456h231M768 456h253M3 457h231M768 457h253M3 458h231M768 458h253M3 459h231M768 459h253M3 460h231M768 460h253M3 461h231M768 461h253M3 462h231M768 462h253M3 463h231M768 463h253M3 464h231M768 464h253M3 465h231M768 465h253M3 466h231M768 466h253M2 467h232M768 467h254M2 468h232M768 468h254M2 469h232M768 469h254M2 470h232M768 470h254M2 471h232M768 471h254M2 472h232M768 472h254M2 473h232M768 473h254M2 474h232M768 474h254M2 475h232M768 475h254M2 476h232M768 476h254M2 477h232M768 477h254M2 478h232M768 478h254M2 479h232M768 479h254M1 480h233M768 480h255M1 481h233M768 481h255M1 482h233M768 482h255M1 483h233M768 483h255M1 484h233M768 484h255M1 485h233M768 485h255M1 486h233M768 486h255M1 487h233M768 487h255M1 488h233M768 488h255M1 489h233M768 489h255M1 490h233M768 490h255M1 491h233M768 491h255M1 492h233M768 492h255M1 493h233M768 493h255M1 494h233M768 494h255M1 495h233M768 495h255M1 496h233M768 496h255M1 497h233M768 497h255M1 498h233M768 498h255M1 499h233M768 499h255M1 500h233M768 500h255M1 501h233M768 501h255M0 502h234M768 502h256M0 503h234M768 503h256M0 504h234M768 504h256M0 505h234M768 505h256M0 506h234M768 506h256M0 507h234M768 507h256M0 508h234M768 508h256M0 509h234M768 509h256M0 510h234M768 510h256M0 511h234M768 511h256M0 512h234M768 512h256M0 513h234M768 513h256M0 514h234M768 514h256M0 515h234M768 515h256M0 516h234M768 516h256M0 517h234M768 517h256M0 518h234M768 518h256M0 519h234M768 519h256M0 520h234M768 520h256M0 521h234M768 521h256M1 522h233M768 522h255M1 523h233M768 523h255M1 524h233M768 524h255M1 525h233M768 525h255M1 526h233M768 526h255M1 527h233M768 527h255M1 528h233M768 528h255M1 529h233M768 529h255M1 530h233M768 530h255M1 531h233M768 531h255M1 532h233M768 532h255M1 533h233M768 533h255M1 534h233M768 534h255M1 535h233M768 535h255M1 536h233M768 536h255M1 537h233M768 537h255M1 538h233M768 538h255M1 539h233M768 539h255M1 540h233M768 540h255M1 541h233M768 541h255M1 542h233M768 542h255M1 543h233M768 543h255M2 544h232M768 544h254M2 545h232M768 545h254M2 546h232M768 546h254M2 547h232M768 547h254M2 548h232M768 548h254M2 549h232M768 549h254M2 550h232M768 550h254M2 551h232M768 551h254M2 552h232M768 552h254M2 553h232M768 553h254M2 554h232M768 554h254M2 555h232M768 555h254M2 556h232M768 556h254M3 557h231M768 557h253M3 558h231M768 558h253M3 559h231M768 559h253M3 560h231M768 560h253M3 561h231M768 561h253M3 562h231M768 562h253M3 563h231M768 563h253M3 564h231M768 564h253M3 565h231M768 565h253M3 566h231M768 566h253M3 567h231M768 567h253M4 568h230M768 568h252M4 569h230M768 569h252M4 570h230M768 570h252M4 571h230M768 571h252M4 572h230M768 572h252M4 573h230M768 573h252M4 574h230M768 574h252M4 575h230M768 575h252M5 576h229M768 576h251M5 577h229M768 577h251M5 578h229M768 578h251M5 579h229M768 579h251M5 580h229M768 580h251M5 581h229M768 581h251M5 582h229M768 582h251M6 583h228M768 583h250M6 584h228M768 584h250M6 585h228M768 585h250M6 586h228M768 586h250M6 587h228M768 587h250M6 588h228M768 588h250M6 589h228M768 589h250M7 590h227M768 590h249M7 591h227M768 591h249M7 592h227M768 592h249M7 593h227M768 593h249M7 594h227M768 594h249M7 595h227M768 595h249M8 596h226M768 596h248M8 597h226M768 597h248M8 598h226M768 598h248M8 599h226M768 599h248M8 600h226M768 600h248M8 601h226M768 601h248M8 602h226M768 602h248M9 603h225M768 603h247M9 604h225M768 604h247M9 605h225M768 605h247M9 606h225M768 606h247M9 607h225M768 607h247M10 608h224M768 608h246M10 609h224M768 609h246M10 610h224M768 610h246M10 611h224M768 611h246M10 612h224M768 612h246M11 613h223M768 613h245M11 614h223M768 614h245M11 615h223M768 615h245M11 616h223M768 616h245M11 617h223M768 617h245M12 618h222M768 618h244M12 619h222M768 619h244M12 620h222M768 620h244M12 621h222M768 621h244M12 622h222M768 622h244M13 623h221M768 623h243M13 624h221M768 624h243M13 625h221M768 625h243M13 626h221M768 626h243M14 627h220M768 627h242M14 628h220M768 628h242M14 629h220M768 629h242M14 630h220M768 630h242M15 631h219M768 631h241M15 632h219M768 632h241M15 633h219M768 633h241M15 634h219M768 634h241M16 635h218M768 635h240M16 636h218M768 636h240M16 637h218M768 637h240M16 638h218M768 638h240M17 639h217M768 639h239M17 640h217M768 640h239M17 641h217M768 641h239M17 642h217M768 642h239M18 643h216M768 643h238M18 644h216M768 644h238M18 645h216M768 645h238M18 646h216M768 646h238M19 647h215M768 647h237M19 648h215M768 648h237M19 649h215M768 649h237M20 650h214M768 650h236M20 651h214M768 651h236M20 652h214M768 652h236M20 653h214M768 653h236M21 654h213M768 654h235M21 655h213M768 655h235M21 656h213M768 656h235M22 657h212M768 657h234M22 658h212M768 658h234M22 659h212M768 659h234M23 660h211M768 660h233M23 661h211M725 661h276M23 662h211M725 662h276M23 663h211M725 663h276M24 664h210M725 664h275M24 665h210M725 665h275M24 666h210M725 666h275M25 667h209M725 667h274M25 668h209M725 668h274M25 669h209M725 669h274M26 670h208M725 670h273M26 671h208M725 671h273M26 672h208M725 672h273M27 673h207M725 673h272M27 674h207M725 674h272M27 675h207M725 675h272M28 676h206M725 676h271M28 677h206M725 677h271M28 678h206M725 678h271M29 679h205M725 679h270M29 680h205M725 680h270M29 681h205M725 681h270M30 682h204M725 682h21M768 682h226M30 683h204M725 683h21M768 683h226M30 684h204M725 684h21M768 684h226M31 685h203M725 685h21M768 685h225M31 686h203M725 686h21M768 686h225M32 687h202M725 687h21M768 687h224M32 688h202M725 688h21M768 688h224M32 689h202M725 689h21M768 689h224M33 690h201M725 690h21M768 690h223M33 691h201M725 691h21M768 691h223M33 692h201M725 692h21M768 692h223M34 693h200M725 693h21M768 693h222M34 694h200M725 694h21M768 694h222M35 695h199M725 695h21M768 695h221M35 696h199M725 696h21M768 696h221M35 697h199M725 697h21M768 697h221M36 698h198M725 698h21M768 698h220M36 699h198M725 699h21M768 699h220M36 700h198M725 700h21M768 700h220M37 701h197M725 701h21M768 701h219M37 702h197M725 702h21M768 702h219M38 703h196M725 703h21M768 703h218M38 704h948M39 705h946M39 706h946M39 707h946M40 708h944M40 709h944M41 710h942M41 711h942M41 712h942M42 713h940M42 714h940M43 715h938M43 716h938M43 717h938M44 718h936M44 719h936M45 720h934M45 721h934M46 722h932M46 723h932M47 724h930M47 725h930M48 726h928M48 727h928M49 728h926M49 729h926M50 730h924M50 731h924M50 732h924M51 733h922M51 734h922M52 735h920M52 736h920M53 737h918M53 738h918M54 739h916M54 740h916M55 741h914M55 742h914M56 743h912M56 744h912M57 745h910M57 746h910M58 747h908M58 748h908M59 749h906M59 750h906M60 751h904M61 752h902M61 753h902M62 754h900M62 755h900M63 756h898M63 757h898M64 758h896M64 759h896M65 760h894M65 761h894M66 762h892M67 763h890M67 764h890M68 765h888M68 766h888M69 767h886M69 768h886M70 769h884M71 770h882M71 771h882M72 772h880M72 773h880M73 774h878M74 775h876M74 776h876M75 777h874M75 778h874M76 779h872M77 780h870M77 781h870M78 782h868M78 783h867M79 784h866M80 785h864M80 786h864M81 787h862M82 788h860M82 789h860M83 790h858M84 791h856M84 792h856M85 793h854M86 794h852M86 795h852M87 796h850M88 797h848M88 798h848M89 799h846M90 800h844M90 801h844M91 802h842M92 803h840M92 804h840M93 805h838M94 806h836M94 807h836M95 808h834M96 809h832M97 810h830M97 811h830M98 812h828M99 813h826M100 814h824M100 815h824M101 816h822M102 817h820M102 818h820M103 819h818M104 820h816M105 821h814M106 822h812M106 823h812M107 824h810M108 825h808M109 826h806M109 827h806M110 828h804M111 829h802M112 830h800M113 831h798M113 832h798M114 833h796M115 834h794M116 835h792M117 836h790M117 837h790M118 838h788M119 839h786M120 840h784M121 841h782M122 842h780M122 843h780M123 844h778M124 845h776M125 846h774M126 847h772M127 848h770M128 849h768M129 850h766M129 851h766M130 852h764M131 853h762M132 854h760M133 855h758M134 856h756M135 857h754M136 858h752M137 859h750M138 860h748M139 861h746M139 862h746M140 863h744M141 864h742M142 865h740M143 866h738M144 867h736M145 868h734M146 869h732M147 870h730M148 871h728M149 872h726M150 873h724M151 874h722M152 875h720M153 876h718M154 877h716M155 878h714M156 879h712M157 880h710M158 881h708M159 882h706M160 883h704M161 884h702M163 885h698M164 886h696M165 887h694M166 888h692M167 889h690M168 890h688M169 891h686M170 892h684M171 893h682M172 894h680M174 895h676M175 896h674M176 897h672M177 898h670M178 899h668M179 900h666M180 901h664M182 902h660M183 903h658M184 904h656M185 905h654M186 906h652M188 907h648M189 908h646M190 909h644M191 910h642M193 911h638M194 912h636M195 913h634M196 914h632M198 915h628M199 916h626M200 917h624M202 918h620M203 919h618M204 920h616M205 921h614M207 922h610M208 923h608M210 924h604M211 925h602M212 926h600M214 927h596M215 928h594M216 929h592M218 930h588M219 931h586M221 932h582M222 933h580M224 934h576M225 935h574M227 936h570M228 937h568M230 938h564M231 939h562M233 940h558M234 941h556M236 942h552M237 943h550M239 944h546M241 945h543M242 946h540M244 947h536M245 948h534M247 949h530M249 950h526M250 951h524M252 952h520M254 953h516M255 954h514M257 955h510M259 956h506M261 957h502M262 958h500M264 959h496M266 960h492M268 961h488M270 962h484M272 963h480M273 964h478M275 965h474M277 966h470M279 967h466M281 968h462M283 969h458M285 970h454M287 971h450M289 972h446M291 973h442M294 974h436M296 975h432M298 976h428M300 977h424M302 978h420M304 979h416M306 980h412M309 981h406M311 982h402M314 983h396M316 984h392M319 985h386M321 986h382M323 987h378M326 988h372M329 989h366M331 990h362M334 991h356M337 992h350M339 993h346M342 994h340M345 995h334M348 996h328M351 997h322M354 998h316M357 999h310M360 1000h304M364 1001h296M367 1002h290M370 1003h284M374 1004h276M377 1005h270M381 1006h262M385 1007h254M389 1008h246M393 1009h238M397 1010h230M401 1011h222M406 1012h212M411 1013h202M416 1014h192M421 1015h182M428 1016h168M434 1017h156M441 1018h142M448 1019h128M456 1020h112M467 1021h90M480 1022h64M502 1023h20" />
<path stroke="rgba(189,218,240,0.592156862745098)" d="M532 0h1M0 491h1M1023 532h1M491 1023h1" />
<path stroke="rgba(190,216,242,0.15294117647058825)" d="M541 0h1M595 6h1M331 32h1M692 32h1M32 331h1M991 331h1M6 428h1M0 482h1M1023 541h1M1017 595h1M32 692h1M991 692h1M331 991h1M692 991h1M428 1017h1M482 1023h1" />
<path stroke="rgba(195,225,240,0.06666666666666667)" d="M467 1h1M556 1h1M1 467h1M1022 467h1M1 556h1M1022 556h1M467 1022h1M556 1022h1" />
<path stroke="rgba(187,217,238,0.23529411764705882)" d="M469 1h1M554 1h1M326 34h1M697 34h1M34 326h1M989 326h1M1 469h1M1022 469h1M1 554h1M1022 554h1M34 697h1M989 697h1M326 989h1M697 989h1M469 1022h1M554 1022h1" />
<path stroke="rgba(189,217,239,0.3176470588235294)" d="M470 1h1M553 1h1M172 128h1M851 128h1M128 172h1M895 172h1M1 470h1M1022 470h1M1 553h1M1022 553h1M128 851h1M895 851h1M172 895h1M851 895h1M470 1022h1M553 1022h1" />
<path stroke="rgba(189,217,240,0.396078431372549)" d="M471 1h1M552 1h1M307 42h1M716 42h1M42 307h1M981 307h1M1 471h1M1022 471h1M1 552h1M1022 552h1M42 716h1M981 716h1M307 981h1M716 981h1M471 1022h1M552 1022h1" />
<path stroke="rgba(190,217,238,0.4745098039215686)" d="M472 1h1M551 1h1M593 6h1M156 143h1M867 143h1M143 156h1M880 156h1M6 430h1M1 472h1M1022 472h1M1 551h1M1022 551h1M1017 593h1M143 867h1M880 867h1M156 880h1M867 880h1M430 1017h1M472 1022h1M551 1022h1" />
<path stroke="rgba(190,219,239,0.5529411764705883)" d="M473 1h1M550 1h1M586 5h1M244 75h1M779 75h1M75 244h1M948 244h1M5 437h1M1 473h1M1022 473h1M1 550h1M1022 550h1M1018 586h1M75 779h1M948 779h1M244 948h1M779 948h1M437 1018h1M473 1022h1M550 1022h1" />
<path stroke="rgba(189,218,239,0.6235294117647059)" d="M474 1h1M549 1h1M372 19h1M651 19h1M19 372h1M1004 372h1M1 474h1M1022 474h1M1 549h1M1022 549h1M19 651h1M1004 651h1M372 1004h1M651 1004h1M474 1022h1M549 1022h1" />
<path stroke="rgba(189,218,239,0.6980392156862745)" d="M475 1h1M548 1h1M585 5h1M176 125h1M847 125h1M167 133h1M856 133h1M133 167h1M890 167h1M125 176h1M898 176h1M5 438h1M2 463h1M1 475h1M1022 475h1M1 548h1M1022 548h1M2 560h1M1021 560h1M1018 585h1M125 847h1M898 847h1M133 856h1M890 856h1M167 890h1M856 890h1M176 898h1M847 898h1M438 1018h1M463 1021h1M560 1021h1M475 1022h1M548 1022h1" />
<path stroke="rgba(189,219,239,0.7686274509803922)" d="M476 1h1M547 1h1M315 39h1M708 39h1M39 315h1M984 315h1M1 476h1M1022 476h1M1 547h1M1022 547h1M39 708h1M984 708h1M315 984h1M708 984h1M476 1022h1M547 1022h1" />
<path stroke="rgba(189,218,239,0.8352941176470589)" d="M477 1h1M546 1h1M347 27h1M676 27h1M320 37h1M703 37h1M182 120h1M841 120h1M120 182h1M903 182h1M37 320h1M986 320h1M27 347h1M996 347h1M1 477h1M1022 477h1M1 546h1M1022 546h1M27 676h1M996 676h1M37 703h1M986 703h1M120 841h1M903 841h1M182 903h1M841 903h1M320 986h1M703 986h1M347 996h1M676 996h1M477 1022h1M546 1022h1" />
<path stroke="rgba(188,218,239,0.9019607843137255)" d="M478 1h1M545 1h1M1 478h1M1022 478h1M1 545h1M1022 545h1M478 1022h1M545 1022h1" />
<path stroke="rgba(189,218,238,0.9686274509803922)" d="M479 1h1M544 1h1M363 22h1M660 22h1M209 99h1M924 209h1M22 363h1M1001 363h1M1 479h1M1022 479h1M1 544h1M1022 544h1M22 660h1M1001 660h1M99 814h1M814 924h1M363 1001h1M660 1001h1M479 1022h1M544 1022h1" />
<path stroke="rgba(190,220,240,0.2)" d="M458 2h1M565 2h1M367 20h1M656 20h1M205 101h1M818 101h1M163 136h1M860 136h1M136 163h1M887 163h1M101 205h1M922 205h1M20 367h1M1003 367h1M2 458h1M1021 458h1M2 565h1M1021 565h1M20 656h1M1003 656h1M101 818h1M922 818h1M136 860h1M887 860h1M163 887h1M860 887h1M205 922h1M818 922h1M367 1003h1M656 1003h1M458 1021h1M565 1021h1" />
<path stroke="rgba(189,219,238,0.30196078431372547)" d="M459 2h1M564 2h1M364 21h1M659 21h1M21 364h1M1002 364h1M2 459h1M1021 459h1M2 564h1M1021 564h1M21 659h1M1002 659h1M364 1002h1M659 1002h1M459 1021h1M564 1021h1" />
<path stroke="rgba(188,218,240,0.403921568627451)" d="M460 2h1M563 2h1M436 5h1M587 5h1M268 61h1M755 61h1M247 73h1M776 73h1M73 247h1M950 247h1M61 268h1M962 268h1M5 436h1M1018 436h1M2 460h1M1021 460h1M2 563h1M1021 563h1M5 587h1M1018 587h1M61 755h1M962 755h1M73 776h1M950 776h1M247 950h1M776 950h1M268 962h1M755 962h1M436 1018h1M587 1018h1M460 1021h1M563 1021h1" />
<path stroke="rgba(189,217,239,0.5019607843137255)" d="M461 2h1M562 2h1M691 32h1M32 332h1M991 332h1M2 461h1M1021 461h1M2 562h1M1021 562h1M32 691h1M991 691h1M332 991h1M691 991h1M461 1021h1M562 1021h1" />
<path stroke="rgba(189,219,238,0.6039215686274509)" d="M462 2h1M561 2h1M1021 462h1" />
<path stroke="rgba(189,218,239,0.9921568627450981)" d="M466 2h1M557 2h1M192 112h1M831 112h1M112 192h1M911 192h1M2 466h1M1021 466h1M2 557h1M1021 557h1M112 831h1M911 831h1M192 911h1M831 911h1M466 1021h1M557 1021h1" />
<path stroke="rgba(196,216,235,0.050980392156862744)" d="M448 3h1M575 3h1M3 448h1M1020 448h1M3 575h1M1020 575h1M448 1020h1M575 1020h1" />
<path stroke="rgba(191,220,238,0.17254901960784313)" d="M449 3h1M192 111h1M831 111h1M111 192h1M912 192h1M1020 449h1M3 574h1M1020 574h1M111 831h1M912 831h1M192 912h1M831 912h1M574 1020h1" />
<path stroke="rgba(190,218,238,0.29411764705882354)" d="M450 3h1M573 3h1M645 17h1M300 45h1M723 45h1M45 300h1M978 300h1M17 378h1M3 450h1M1020 450h1M3 573h1M1020 573h1M1006 645h1M45 723h1M978 723h1M300 978h1M723 978h1M378 1006h1M450 1020h1M573 1020h1" />
<path stroke="rgba(189,217,240,0.5294117647058824)" d="M452 3h1M444 4h1M312 40h1M261 65h1M762 65h1M254 69h1M769 69h1M870 146h1M146 153h1M69 254h1M954 254h1M65 261h1M958 261h1M983 312h1M1019 444h1M1020 452h1M3 571h1M4 579h1M40 711h1M65 762h1M958 762h1M69 769h1M954 769h1M877 870h1M153 877h1M254 954h1M261 958h1M762 958h1M711 983h1M579 1019h1M571 1020h1" />
<path stroke="rgba(189,218,240,0.6470588235294118)" d="M453 3h1M570 3h1M3 453h1M1020 453h1M3 570h1M1020 570h1M453 1020h1M570 1020h1" />
<path stroke="rgba(189,218,239,0.7607843137254902)" d="M454 3h1M569 3h1M369 20h1M341 29h1M682 29h1M857 134h1M134 166h1M29 341h1M994 341h1M1003 369h1M3 454h1M1020 454h1M3 569h1M1020 569h1M20 654h1M29 682h1M994 682h1M889 857h1M166 889h1M341 994h1M682 994h1M369 1003h1M654 1003h1M454 1020h1M569 1020h1" />
<path stroke="rgba(189,218,239,0.9098039215686274)" d="M455 3h1M568 3h1M763 66h1M197 108h1M915 197h1M66 260h1M3 455h1M1020 455h1M3 568h1M1020 568h1M957 763h1M108 826h1M826 915h1M260 957h1M455 1020h1M568 1020h1" />
<path stroke="rgba(189,218,238,0.5333333333333333)" d="M571 3h1M579 4h1M711 40h1M211 97h1M812 97h1M153 146h1M877 153h1M97 211h1M926 211h1M40 312h1M4 444h1M3 452h1M1020 571h1M1019 579h1M983 711h1M97 812h1M926 812h1M146 870h1M870 877h1M211 926h1M812 926h1M769 954h1M312 983h1M444 1019h1M452 1020h1" />
<path stroke="rgba(187,215,238,0.17647058823529413)" d="M574 3h1M3 449h1M449 1020h1" />
<path stroke="rgba(191,215,239,0.12549019607843137)" d="M441 4h1M601 7h1M291 49h1M826 107h1M107 197h1M974 291h1M7 422h1M1019 441h1M4 582h1M1016 601h1M49 732h1M916 826h1M197 916h1M732 974h1M422 1016h1M582 1019h1" />
<path stroke="rgba(190,217,240,0.4)" d="M443 4h1M580 4h1M204 102h1M819 102h1M171 129h1M852 129h1M129 171h1M894 171h1M102 204h1M921 204h1M4 443h1M1019 443h1M4 580h1M1019 580h1M102 819h1M921 819h1M129 852h1M894 852h1M171 894h1M852 894h1M204 921h1M819 921h1M443 1019h1M580 1019h1" />
<path stroke="rgba(189,217,238,0.6627450980392157)" d="M445 4h1M578 4h1M284 53h1M739 53h1M282 54h1M741 54h1M214 95h1M809 95h1M95 214h1M928 214h1M54 282h1M969 282h1M53 284h1M970 284h1M4 445h1M1019 445h1M4 578h1M1019 578h1M53 739h1M970 739h1M54 741h1M969 741h1M95 809h1M928 809h1M214 928h1M809 928h1M282 969h1M741 969h1M284 970h1M739 970h1M445 1019h1M578 1019h1" />
<path stroke="rgba(189,218,239,0.792156862745098)" d="M446 4h1M577 4h1M627 13h1M299 46h1M724 46h1M202 104h1M821 104h1M193 111h1M912 193h1M104 202h1M919 202h1M46 299h1M13 396h1M4 446h1M1019 446h1M4 577h1M1019 577h1M1010 627h1M46 724h1M977 724h1M104 821h1M919 821h1M111 830h1M830 912h1M202 919h1M821 919h1M299 977h1M724 977h1M396 1010h1M446 1019h1M577 1019h1" />
<path stroke="rgba(189,218,239,0.9176470588235294)" d="M447 4h1M576 4h1M775 73h1M73 248h1M4 447h1M1019 447h1M4 576h1M1019 576h1M950 775h1M248 950h1M447 1019h1M576 1019h1" />
<path stroke="rgba(185,216,240,0.12941176470588237)" d="M582 4h1M732 49h1M49 291h1M4 441h1M1019 582h1M974 732h1M291 974h1M441 1019h1" />
<path stroke="rgba(189,217,236,0.10588235294117647)" d="M434 5h1M589 5h1M381 16h1M304 43h1M719 43h1M43 304h1M980 304h1M5 434h1M1018 434h1M5 589h1M1018 589h1M43 719h1M980 719h1M304 980h1M719 980h1M434 1018h1M589 1018h1" />
<path stroke="rgba(188,220,239,0.2549019607843137)" d="M435 5h1M1018 435h1M5 588h1M588 1018h1" />
<path stroke="rgba(189,218,239,0.6941176470588235)" d="M438 5h1M338 30h1M685 30h1M30 338h1M993 338h1M1018 438h1M5 585h1M30 685h1M993 685h1M338 993h1M685 993h1M585 1018h1" />
<path stroke="rgba(189,218,240,0.8392156862745098)" d="M439 5h1M584 5h1M405 11h1M618 11h1M11 405h1M1012 405h1M5 439h1M1018 439h1M5 584h1M1018 584h1M11 618h1M1012 618h1M405 1012h1M618 1012h1M439 1018h1M584 1018h1" />
<path stroke="rgba(189,218,239,0.9803921568627451)" d="M440 5h1M583 5h1M201 105h1M822 105h1M173 128h1M162 138h1M861 138h1M138 162h1M885 162h1M895 173h1M105 201h1M918 201h1M5 440h1M1018 440h1M5 583h1M1018 583h1M105 822h1M918 822h1M128 850h1M138 861h1M885 861h1M162 885h1M861 885h1M850 895h1M201 918h1M822 918h1M440 1018h1M583 1018h1" />
<path stroke="rgba(189,216,240,0.25882352941176473)" d="M588 5h1M321 36h1M702 36h1M36 321h1M987 321h1M5 435h1M1018 588h1M36 702h1M987 702h1M321 987h1M702 987h1M435 1018h1" />
<path stroke="rgba(189,219,238,0.47058823529411764)" d="M430 6h1M599 7h1M375 18h1M648 18h1M270 60h1M753 60h1M60 270h1M963 270h1M18 375h1M1005 375h1M7 424h1M1017 430h1M6 593h1M1016 599h1M18 648h1M1005 648h1M60 753h1M963 753h1M270 963h1M753 963h1M375 1005h1M648 1005h1M424 1016h1M593 1017h1" />
<path stroke="rgba(188,219,239,0.6313725490196078)" d="M431 6h1M592 6h1M414 9h1M609 9h1M387 15h1M322 36h1M701 36h1M735 51h1M263 64h1M760 64h1M224 88h1M799 88h1M194 110h1M829 110h1M168 132h1M891 168h1M110 194h1M913 194h1M88 224h1M935 224h1M64 263h1M959 263h1M51 288h1M36 322h1M987 322h1M1008 387h1M9 414h1M1014 414h1M6 431h1M1017 431h1M6 592h1M1017 592h1M9 609h1M1014 609h1M15 636h1M36 701h1M987 701h1M972 735h1M64 760h1M959 760h1M88 799h1M935 799h1M110 829h1M913 829h1M132 855h1M855 891h1M194 913h1M829 913h1M224 935h1M799 935h1M263 959h1M760 959h1M288 972h1M322 987h1M701 987h1M636 1008h1M414 1014h1M609 1014h1M431 1017h1M592 1017h1" />
<path stroke="rgba(189,218,239,0.788235294117647)" d="M432 6h1M591 6h1M977 299h1M6 432h1M1017 432h1M6 591h1M1017 591h1M432 1017h1M591 1017h1" />
<path stroke="rgba(189,218,239,0.9411764705882353)" d="M433 6h1M590 6h1M271 60h1M752 60h1M60 271h1M963 271h1M6 433h1M1017 433h1M6 590h1M1017 590h1M60 752h1M963 752h1M271 963h1M752 963h1M433 1017h1M590 1017h1" />
<path stroke="rgba(189,222,239,0.12156862745098039)" d="M422 7h1M197 107h1M916 197h1M1016 422h1M7 601h1M107 826h1M826 916h1M601 1016h1" />
<path stroke="rgba(188,218,238,0.2980392156862745)" d="M423 7h1M600 7h1M378 17h1M257 67h1M766 67h1M196 108h1M827 108h1M161 138h1M862 138h1M138 161h1M885 161h1M108 196h1M915 196h1M67 257h1M956 257h1M1006 378h1M7 423h1M1016 423h1M7 600h1M1016 600h1M17 645h1M67 766h1M956 766h1M108 827h1M915 827h1M138 862h1M885 862h1M161 885h1M862 885h1M196 915h1M827 915h1M257 956h1M766 956h1M645 1006h1M423 1016h1M600 1016h1" />
<path stroke="rgba(189,219,240,0.4666666666666667)" d="M424 7h1M239 78h1M784 78h1M195 109h1M828 109h1M109 195h1M914 195h1M78 239h1M945 239h1M1016 424h1M7 599h1M78 784h1M945 784h1M109 828h1M914 828h1M195 914h1M828 914h1M239 945h1M784 945h1M599 1016h1" />
<path stroke="rgba(189,217,239,0.6392156862745098)" d="M425 7h1M598 7h1M409 10h1M614 10h1M278 56h1M745 56h1M56 278h1M967 278h1M10 409h1M1013 409h1M7 425h1M1016 425h1M7 598h1M1016 598h1M10 614h1M1013 614h1M56 745h1M967 745h1M278 967h1M745 967h1M409 1013h1M614 1013h1M425 1016h1M598 1016h1" />
<path stroke="rgba(189,218,239,0.803921568627451)" d="M426 7h1M325 35h1M698 35h1M35 325h1M988 325h1M1016 426h1M7 597h1M35 698h1M988 698h1M325 988h1M698 988h1M597 1016h1" />
<path stroke="rgba(189,218,239,0.9725490196078431)" d="M427 7h1M596 7h1M814 99h1M181 121h1M842 121h1M121 181h1M902 181h1M99 209h1M7 427h1M1016 427h1M7 596h1M1016 596h1M924 814h1M121 842h1M902 842h1M181 902h1M842 902h1M209 924h1M427 1016h1M596 1016h1" />
<path stroke="rgba(189,218,239,0.807843137254902)" d="M597 7h1M344 28h1M679 28h1M28 344h1M995 344h1M7 426h1M1016 597h1M28 679h1M995 679h1M344 995h1M679 995h1M426 1016h1" />
<path stroke="rgba(170,212,255,0.023529411764705882)" d="M416 8h1M607 8h1M406 10h1M617 10h1M328 33h1M295 47h1M728 47h1M166 133h1M857 133h1M133 166h1M890 166h1M47 295h1M976 295h1M10 406h1M1013 406h1M8 416h1M1015 416h1M8 607h1M1015 607h1M10 617h1M1013 617h1M47 728h1M976 728h1M133 857h1M890 857h1M166 890h1M857 890h1M295 976h1M728 976h1M406 1013h1M617 1013h1M416 1015h1M607 1015h1" />
<path stroke="rgba(189,217,240,0.39215686274509803)" d="M418 8h1M605 8h1M8 418h1M1015 418h1M8 605h1M1015 605h1M418 1015h1M605 1015h1" />
<path stroke="rgba(189,218,239,0.5725490196078431)" d="M419 8h1M604 8h1M274 58h1M749 58h1M58 274h1M965 274h1M8 419h1M1015 419h1M8 604h1M1015 604h1M58 749h1M965 749h1M274 965h1M749 965h1M419 1015h1M604 1015h1" />
<path stroke="rgba(189,218,239,0.7529411764705882)" d="M420 8h1M603 8h1M210 98h1M813 98h1M98 210h1M925 210h1M8 420h1M1015 420h1M8 603h1M1015 603h1M98 813h1M925 813h1M210 925h1M813 925h1M420 1015h1M603 1015h1" />
<path stroke="rgba(191,212,234,0.047058823529411764)" d="M411 9h1M612 9h1M397 12h1M1011 397h1M9 411h1M1014 411h1M9 612h1M1014 612h1M12 626h1M626 1011h1M411 1014h1M612 1014h1" />
<path stroke="rgba(189,218,239,0.24313725490196078)" d="M412 9h1M611 9h1M264 63h1M759 63h1M237 79h1M786 79h1M79 237h1M944 237h1M63 264h1M960 264h1M9 412h1M1014 412h1M9 611h1M1014 611h1M63 759h1M960 759h1M79 786h1M944 786h1M237 944h1M786 944h1M264 960h1M759 960h1M412 1014h1M611 1014h1" />
<path stroke="rgba(188,218,239,0.43529411764705883)" d="M413 9h1M610 9h1M699 35h1M35 324h1M9 413h1M1014 413h1M9 610h1M1014 610h1M988 699h1M324 988h1M413 1014h1M610 1014h1" />
<path stroke="rgba(189,218,239,0.8274509803921568)" d="M415 9h1M608 9h1M9 415h1M1014 415h1M9 608h1M1014 608h1M415 1014h1M608 1014h1" />
<path stroke="rgba(189,220,237,0.22745098039215686)" d="M407 10h1M616 10h1M316 38h1M707 38h1M250 71h1M773 71h1M850 127h1M127 173h1M71 250h1M952 250h1M38 316h1M985 316h1M10 407h1M1013 407h1M10 616h1M1013 616h1M38 707h1M985 707h1M71 773h1M952 773h1M896 850h1M173 896h1M250 952h1M773 952h1M316 985h1M707 985h1M407 1013h1M616 1013h1" />
<path stroke="rgba(190,218,239,0.43137254901960786)" d="M408 10h1M615 10h1M10 408h1M1013 408h1M10 615h1M1013 615h1M408 1013h1M615 1013h1" />
<path stroke="rgba(189,218,239,0.8313725490196079)" d="M410 10h1M613 10h1M353 25h1M670 25h1M25 353h1M998 353h1M10 410h1M1013 410h1M10 613h1M1013 613h1M25 670h1M998 670h1M353 998h1M670 998h1M410 1013h1M613 1013h1" />
<path stroke="rgba(187,218,236,0.1607843137254902)" d="M402 11h1M621 11h1M11 402h1M1012 402h1M11 621h1M1012 621h1M402 1012h1M621 1012h1" />
<path stroke="rgba(188,217,239,0.37254901960784315)" d="M403 11h1M620 11h1M298 46h1M228 85h1M795 85h1M200 105h1M823 105h1M105 200h1M918 200h1M85 228h1M938 228h1M977 298h1M11 403h1M1012 403h1M11 620h1M1012 620h1M46 725h1M85 795h1M938 795h1M105 823h1M918 823h1M200 918h1M823 918h1M228 938h1M795 938h1M725 977h1M403 1012h1M620 1012h1" />
<path stroke="rgba(188,217,240,0.5843137254901961)" d="M404 11h1M619 11h1M11 404h1M1012 404h1M11 619h1M1012 619h1M404 1012h1M619 1012h1" />
<path stroke="rgba(188,218,240,0.26666666666666666)" d="M398 12h1M625 12h1M180 121h1M843 121h1M121 180h1M902 180h1M12 398h1M12 625h1M1011 625h1M121 843h1M902 843h1M180 902h1M843 902h1M398 1011h1" />
<path stroke="rgba(190,218,239,0.49019607843137253)" d="M399 12h1M178 123h1M845 123h1M123 178h1M900 178h1M1011 399h1M12 624h1M123 845h1M900 845h1M178 900h1M845 900h1M624 1011h1" />
<path stroke="rgba(188,218,239,0.7058823529411765)" d="M400 12h1M623 12h1M301 45h1M722 45h1M45 301h1M978 301h1M12 400h1M1011 400h1M12 623h1M1011 623h1M45 722h1M978 722h1M301 978h1M722 978h1M400 1011h1M623 1011h1" />
<path stroke="rgba(189,218,239,0.48627450980392156)" d="M624 12h1M12 399h1M1011 624h1M399 1011h1" />
<path stroke="rgba(185,209,232,0.043137254901960784)" d="M626 12h1M260 65h1M175 125h1M898 175h1M958 260h1M12 397h1M1011 626h1M65 763h1M125 848h1M848 898h1M763 958h1M397 1011h1" />
<path stroke="rgba(191,219,237,0.10980392156862745)" d="M393 13h1M630 13h1M273 58h1M750 58h1M58 273h1M965 273h1M13 393h1M1010 393h1M13 630h1M1010 630h1M58 750h1M965 750h1M273 965h1M750 965h1M393 1010h1M630 1010h1" />
<path stroke="rgba(188,217,240,0.3411764705882353)" d="M394 13h1M160 139h1M863 139h1M139 160h1M884 160h1M1010 394h1M13 629h1M139 863h1M884 863h1M160 884h1M863 884h1M394 1010h1M629 1010h1" />
<path stroke="rgba(188,218,239,0.5686274509803921)" d="M395 13h1M628 13h1M13 395h1M1010 395h1M13 628h1M1010 628h1M395 1010h1M628 1010h1" />
<path stroke="rgba(190,219,240,0.33725490196078434)" d="M629 13h1M13 394h1M1010 629h1" />
<path stroke="rgba(191,220,241,0.1411764705882353)" d="M389 14h1M634 14h1M385 15h1M311 40h1M712 40h1M187 115h1M836 115h1M115 187h1M908 187h1M40 311h1M983 311h1M1008 385h1M14 389h1M1009 389h1M14 634h1M1009 634h1M40 712h1M983 712h1M115 836h1M908 836h1M187 908h1M836 908h1M311 983h1M712 983h1M638 1008h1M389 1009h1M634 1009h1" />
<path stroke="rgba(189,218,239,0.3803921568627451)" d="M390 14h1M329 33h1M815 99h1M179 122h1M844 122h1M159 140h1M864 140h1M140 159h1M883 159h1M122 179h1M901 179h1M99 208h1M990 329h1M1009 390h1M14 633h1M33 694h1M924 815h1M122 844h1M901 844h1M140 864h1M883 864h1M159 883h1M864 883h1M179 901h1M844 901h1M208 924h1M694 990h1M390 1009h1M633 1009h1" />
<path stroke="rgba(188,218,239,0.615686274509804)" d="M391 14h1M632 14h1M14 391h1M1009 391h1M14 632h1M1009 632h1M391 1009h1M632 1009h1" />
<path stroke="rgba(189,219,239,0.8509803921568627)" d="M392 14h1M690 32h1M788 81h1M81 235h1M32 333h1M1009 392h1M14 631h1M991 690h1M942 788h1M235 942h1M333 991h1M631 1009h1" />
<path stroke="rgba(189,218,239,0.3764705882352941)" d="M633 14h1M694 33h1M725 46h1M208 99h1M924 208h1M46 298h1M33 329h1M14 390h1M1009 633h1M990 694h1M977 725h1M99 815h1M815 924h1M298 977h1M329 990h1" />
<path stroke="rgba(190,219,239,0.3843137254901961)" d="M386 15h1M637 15h1M361 22h1M662 22h1M314 39h1M709 39h1M252 70h1M771 70h1M70 252h1M953 252h1M39 314h1M984 314h1M22 361h1M1001 361h1M15 386h1M1008 386h1M15 637h1M1008 637h1M22 662h1M1001 662h1M39 709h1M984 709h1M70 771h1M953 771h1M252 953h1M771 953h1M314 984h1M709 984h1M361 1001h1M662 1001h1M386 1008h1M637 1008h1" />
<path stroke="rgba(189,219,240,0.13725490196078433)" d="M638 15h1M174 126h1M849 126h1M126 174h1M897 174h1M15 385h1M15 638h1M1008 638h1M126 849h1M897 849h1M174 897h1M849 897h1M385 1008h1" />
<path stroke="rgba(188,219,238,0.3568627450980392)" d="M382 16h1M641 16h1M337 30h1M242 76h1M781 76h1M76 242h1M947 242h1M993 337h1M16 382h1M1007 382h1M16 641h1M1007 641h1M30 686h1M76 781h1M947 781h1M242 947h1M781 947h1M686 993h1M382 1007h1M641 1007h1" />
<path stroke="rgba(190,217,239,0.611764705882353)" d="M383 16h1M317 38h1M706 38h1M303 44h1M720 44h1M276 57h1M747 57h1M57 276h1M966 276h1M44 303h1M979 303h1M38 317h1M985 317h1M38 706h1M985 706h1M44 720h1M979 720h1M57 747h1M966 747h1M276 966h1M747 966h1M303 979h1M720 979h1M317 985h1M706 985h1" />
<path stroke="rgba(189,218,239,0.8588235294117647)" d="M384 16h1M639 16h1M16 384h1M1007 384h1M16 639h1M1007 639h1M384 1007h1M639 1007h1" />
<path stroke="rgba(189,219,239,0.6078431372549019)" d="M640 16h1M335 31h1M688 31h1M233 82h1M790 82h1M82 233h1M941 233h1M31 335h1M992 335h1M16 383h1M1007 383h1M16 640h1M1007 640h1M31 688h1M992 688h1M82 790h1M941 790h1M233 941h1M790 941h1M335 992h1M688 992h1M383 1007h1M640 1007h1" />
<path stroke="rgba(186,216,235,0.10196078431372549)" d="M642 16h1M16 381h1M1007 381h1M16 642h1M1007 642h1M381 1007h1M642 1007h1" />
<path stroke="rgba(198,227,227,0.03529411764705882)" d="M377 17h1M646 17h1M17 377h1M1006 377h1M17 646h1M1006 646h1M377 1006h1M646 1006h1" />
<path stroke="rgba(189,217,239,0.5568627450980392)" d="M379 17h1M644 17h1M292 49h1M731 49h1M199 106h1M824 106h1M169 131h1M854 131h1M150 149h1M873 149h1M149 150h1M874 150h1M131 169h1M892 169h1M106 199h1M917 199h1M49 292h1M974 292h1M17 379h1M1006 379h1M17 644h1M1006 644h1M49 731h1M974 731h1M106 824h1M917 824h1M131 854h1M892 854h1M149 873h1M874 873h1M150 874h1M873 874h1M169 892h1M854 892h1M199 917h1M824 917h1M292 974h1M731 974h1M379 1006h1M644 1006h1" />
<path stroke="rgba(189,218,239,0.8156862745098039)" d="M380 17h1M1006 380h1M17 643h1M380 1006h1M643 1006h1" />
<path stroke="rgba(188,218,239,0.8117647058823529)" d="M643 17h1M17 380h1M1006 643h1" />
<path stroke="rgba(191,216,240,0.20392156862745098)" d="M374 18h1M649 18h1M302 44h1M721 44h1M279 55h1M744 55h1M55 279h1M968 279h1M44 302h1M979 302h1M18 374h1M1005 374h1M18 649h1M1005 649h1M44 721h1M979 721h1M55 744h1M968 744h1M279 968h1M744 968h1M302 979h1M721 979h1M374 1005h1M649 1005h1" />
<path stroke="rgba(189,218,239,0.7372549019607844)" d="M376 18h1M251 71h1M772 71h1M198 107h1M825 107h1M107 198h1M916 198h1M71 251h1M952 251h1M1005 376h1M18 647h1M71 772h1M952 772h1M107 825h1M916 825h1M198 916h1M825 916h1M251 952h1M772 952h1M376 1005h1M647 1005h1" />
<path stroke="rgba(188,215,242,0.07450980392156863)" d="M370 19h1M653 19h1M19 370h1M1004 370h1M19 653h1M1004 653h1M370 1004h1M653 1004h1" />
<path stroke="rgba(190,218,238,0.35294117647058826)" d="M371 19h1M686 30h1M231 83h1M792 83h1M83 231h1M940 231h1M30 337h1M1004 371h1M19 652h1M993 686h1M83 792h1M940 792h1M231 940h1M792 940h1M337 993h1M652 1004h1" />
<path stroke="rgba(189,218,239,0.8980392156862745)" d="M373 19h1M1004 373h1M19 650h1M650 1004h1" />
<path stroke="rgba(189,218,238,0.34901960784313724)" d="M652 19h1M19 371h1M1004 652h1M371 1004h1" />
<path stroke="rgba(188,217,238,0.47843137254901963)" d="M368 20h1M655 20h1M680 28h1M190 113h1M833 113h1M113 190h1M910 190h1M28 343h1M995 343h1M20 368h1M1003 368h1M20 655h1M1003 655h1M28 680h1M995 680h1M113 833h1M910 833h1M190 910h1M833 910h1M343 995h1M680 995h1M368 1003h1M655 1003h1" />
<path stroke="rgba(189,218,239,0.7568627450980392)" d="M654 20h1M20 369h1M1003 654h1" />
<path stroke="rgba(170,255,255,0.011764705882352941)" d="M363 21h1M660 21h1M336 30h1M687 30h1M235 80h1M788 80h1M193 110h1M830 110h1M110 193h1M913 193h1M80 235h1M943 235h1M30 336h1M993 336h1M21 363h1M1002 363h1M21 660h1M1002 660h1M30 687h1M993 687h1M80 788h1M943 788h1M110 830h1M913 830h1M193 913h1M830 913h1M235 943h1M788 943h1M336 993h1M687 993h1M363 1002h1M660 1002h1" />
<path stroke="rgba(189,218,239,0.8823529411764706)" d="M366 21h1M657 21h1M243 76h1M780 76h1M76 243h1M947 243h1M21 366h1M1002 366h1M21 657h1M1002 657h1M76 780h1M947 780h1M243 947h1M780 947h1M366 1002h1M657 1002h1" />
<path stroke="rgba(188,222,244,0.09019607843137255)" d="M360 22h1M663 22h1M339 29h1M684 29h1M229 84h1M794 84h1M84 229h1M939 229h1M29 339h1M994 339h1M22 360h1M1001 360h1M22 663h1M1001 663h1M29 684h1M994 684h1M84 794h1M939 794h1M229 939h1M794 939h1M339 994h1M684 994h1M360 1001h1M663 1001h1" />
<path stroke="rgba(189,218,239,0.6784313725490196)" d="M362 22h1M661 22h1M241 77h1M782 77h1M77 241h1M946 241h1M22 362h1M1001 362h1M22 661h1M1001 661h1M77 782h1M946 782h1M241 946h1M782 946h1M362 1001h1M661 1001h1" />
<path stroke="rgba(188,217,239,0.45098039215686275)" d="M358 23h1M665 23h1M23 358h1M1000 358h1M23 665h1M1000 665h1M358 1000h1M665 1000h1" />
<path stroke="rgba(191,218,239,0.18823529411764706)" d="M354 24h1M669 24h1M345 27h1M678 27h1M216 93h1M807 93h1M93 216h1M930 216h1M27 345h1M996 345h1M24 354h1M999 354h1M24 669h1M999 669h1M27 678h1M996 678h1M93 807h1M930 807h1M216 930h1M807 930h1M345 996h1M678 996h1M354 999h1M669 999h1" />
<path stroke="rgba(188,219,239,0.49411764705882355)" d="M355 24h1M668 24h1M144 155h1M24 355h1M999 355h1M24 668h1M999 668h1M879 868h1M155 879h1M355 999h1M668 999h1" />
<path stroke="rgba(189,217,239,0.8)" d="M356 24h1M667 24h1M24 356h1M999 356h1M24 667h1M999 667h1M356 999h1M667 999h1" />
<path stroke="rgba(190,219,240,0.5215686274509804)" d="M352 25h1M671 25h1M218 92h1M805 92h1M92 218h1M931 218h1M25 352h1M998 352h1M25 671h1M998 671h1M92 805h1M931 805h1M218 931h1M805 931h1M352 998h1M671 998h1" />
<path stroke="rgba(188,219,240,0.5254901960784314)" d="M349 26h1M674 26h1M272 59h1M751 59h1M59 272h1M964 272h1M26 349h1M997 349h1M26 674h1M997 674h1M59 751h1M964 751h1M272 964h1M751 964h1M349 997h1M674 997h1" />
<path stroke="rgba(189,218,240,0.8431372549019608)" d="M350 26h1M673 26h1M220 91h1M803 91h1M91 220h1M932 220h1M26 350h1M997 350h1M26 673h1M997 673h1M91 803h1M932 803h1M220 932h1M803 932h1M350 997h1M673 997h1" />
<path stroke="rgba(189,218,239,0.5137254901960784)" d="M346 27h1M677 27h1M869 145h1M145 154h1M27 346h1M996 346h1M27 677h1M996 677h1M878 869h1M154 878h1M346 996h1M677 996h1" />
<path stroke="rgba(189,218,238,0.4823529411764706)" d="M343 28h1M170 130h1M853 130h1M130 170h1M893 170h1M130 853h1M893 853h1M170 893h1M853 893h1" />
<path stroke="rgba(189,218,239,0.42745098039215684)" d="M340 29h1M683 29h1M215 94h1M808 94h1M94 215h1M929 215h1M29 340h1M994 340h1M29 683h1M994 683h1M94 808h1M929 808h1M215 929h1M808 929h1M340 994h1M683 994h1" />
<path stroke="rgba(189,218,239,0.9529411764705882)" d="M336 31h1M687 31h1M695 34h1M34 328h1M31 336h1M992 336h1M31 687h1M992 687h1M989 695h1M328 989h1M336 992h1M687 992h1" />
<path stroke="rgba(189,218,239,0.8549019607843137)" d="M333 32h1M235 81h1M942 235h1M991 333h1M32 690h1M81 788h1M788 942h1M690 991h1" />
<path stroke="rgba(204,204,255,0.0196078431372549)" d="M695 33h1M220 90h1M803 90h1M90 220h1M933 220h1M33 328h1M990 328h1M33 695h1M990 695h1M90 803h1M933 803h1M220 933h1M803 933h1M328 990h1M695 990h1" />
<path stroke="rgba(190,218,238,0.596078431372549)" d="M327 34h1M696 34h1M290 50h1M203 103h1M177 124h1M846 124h1M124 177h1M899 177h1M103 203h1M920 203h1M973 290h1M34 327h1M989 327h1M34 696h1M989 696h1M50 733h1M103 820h1M920 820h1M124 846h1M899 846h1M177 899h1M846 899h1M203 920h1M820 920h1M733 973h1M327 989h1M696 989h1" />
<path stroke="rgba(189,218,239,0.9568627450980393)" d="M328 34h1M989 328h1M34 695h1M695 989h1" />
<path stroke="rgba(184,213,241,0.07058823529411765)" d="M323 35h1M700 35h1M223 88h1M800 88h1M88 223h1M935 223h1M35 323h1M988 323h1M35 700h1M988 700h1M88 800h1M935 800h1M223 935h1M800 935h1M323 988h1M700 988h1" />
<path stroke="rgba(189,219,239,0.4392156862745098)" d="M324 35h1M319 37h1M704 37h1M37 319h1M986 319h1M988 324h1M35 699h1M37 704h1M986 704h1M319 986h1M704 986h1M699 988h1" />
<path stroke="rgba(191,223,239,0.06274509803921569)" d="M318 37h1M705 37h1M248 72h1M775 72h1M232 82h1M791 82h1M82 232h1M941 232h1M72 248h1M951 248h1M37 318h1M986 318h1M37 705h1M986 705h1M72 775h1M951 775h1M82 791h1M941 791h1M232 941h1M791 941h1M248 951h1M775 951h1M318 986h1M705 986h1" />
<path stroke="rgba(189,218,239,0.996078431372549)" d="M318 38h1M705 38h1M783 78h1M78 240h1M38 318h1M985 318h1M38 705h1M985 705h1M945 783h1M240 945h1M318 985h1M705 985h1" />
<path stroke="rgba(189,218,239,0.9294117647058824)" d="M313 40h1M710 40h1M295 48h1M728 48h1M229 85h1M794 85h1M85 229h1M938 229h1M48 295h1M975 295h1M40 313h1M983 313h1M40 710h1M983 710h1M48 728h1M975 728h1M85 794h1M938 794h1M229 938h1M794 938h1M295 975h1M728 975h1M313 983h1M710 983h1" />
<path stroke="rgba(189,219,240,0.27450980392156865)" d="M309 41h1M714 41h1M219 91h1M804 91h1M91 219h1M932 219h1M41 309h1M982 309h1M41 714h1M982 714h1M91 804h1M932 804h1M219 932h1M804 932h1M309 982h1M714 982h1" />
<path stroke="rgba(188,218,239,0.5098039215686274)" d="M305 43h1M718 43h1M43 305h1M980 305h1M43 718h1M980 718h1M305 980h1M718 980h1" />
<path stroke="rgba(190,219,239,0.44313725490196076)" d="M296 47h1M976 296h1M47 727h1M727 976h1" />
<path stroke="rgba(189,218,239,0.8627450980392157)" d="M297 47h1M976 297h1M47 726h1M726 976h1" />
<path stroke="rgba(189,218,239,0.8666666666666667)" d="M726 47h1M47 297h1M976 726h1M297 976h1" />
<path stroke="rgba(188,217,239,0.4470588235294118)" d="M727 47h1M157 142h1M866 142h1M142 157h1M881 157h1M47 296h1M976 727h1M142 866h1M881 866h1M157 881h1M866 881h1M296 976h1" />
<path stroke="rgba(191,217,242,0.0784313725490196)" d="M293 48h1M730 48h1M213 95h1M810 95h1M95 213h1M928 213h1M48 293h1M975 293h1M48 730h1M975 730h1M95 810h1M928 810h1M213 928h1M810 928h1M293 975h1M730 975h1" />
<path stroke="rgba(189,218,239,0.984313725490196)" d="M293 49h1M730 49h1M49 293h1M974 293h1M49 730h1M974 730h1M293 974h1M730 974h1" />
<path stroke="rgba(188,219,237,0.16470588235294117)" d="M289 50h1M734 50h1M209 98h1M814 98h1M98 209h1M925 209h1M50 289h1M973 289h1M50 734h1M973 734h1M98 814h1M925 814h1M209 925h1M814 925h1M289 973h1M734 973h1" />
<path stroke="rgba(188,218,238,0.6)" d="M733 50h1M820 103h1M50 290h1M2 462h1M2 561h1M1021 561h1M973 733h1M290 973h1M462 1021h1M561 1021h1" />
<path stroke="rgba(187,219,239,0.19215686274509805)" d="M287 51h1M736 51h1M51 287h1M972 287h1M51 736h1M972 736h1M287 972h1M736 972h1" />
<path stroke="rgba(189,218,240,0.6509803921568628)" d="M286 52h1M737 52h1M227 86h1M796 86h1M86 227h1M937 227h1M52 286h1M971 286h1M52 737h1M971 737h1M86 796h1M937 796h1M227 937h1M796 937h1M286 971h1M737 971h1" />
<path stroke="rgba(189,217,241,0.21176470588235294)" d="M738 52h1M52 285h1M971 738h1M285 971h1" />
<path stroke="rgba(190,218,241,0.21568627450980393)" d="M283 53h1M281 54h1M742 54h1M54 281h1M969 281h1M970 283h1M53 740h1M54 742h1M969 742h1M281 969h1M742 969h1M740 970h1" />
<path stroke="rgba(191,219,237,0.2196078431372549)" d="M740 53h1M53 283h1M970 740h1M283 970h1" />
<path stroke="rgba(189,218,240,0.6549019607843137)" d="M280 55h1M743 55h1M55 280h1M968 280h1M55 743h1M968 743h1M280 968h1M743 968h1" />
<path stroke="rgba(188,216,238,0.1803921568627451)" d="M277 56h1M746 56h1M56 277h1M967 277h1M56 746h1M967 746h1M277 967h1M746 967h1" />
<path stroke="rgba(187,221,238,0.058823529411764705)" d="M271 59h1M752 59h1M59 271h1M964 271h1M59 752h1M964 752h1M271 964h1M752 964h1" />
<path stroke="rgba(189,217,239,0.8784313725490196)" d="M269 61h1M754 61h1M164 136h1M859 136h1M136 164h1M887 164h1M61 269h1M962 269h1M61 754h1M962 754h1M136 859h1M887 859h1M164 887h1M859 887h1M269 962h1M754 962h1" />
<path stroke="rgba(188,219,240,0.32941176470588235)" d="M266 62h1M222 89h1M801 89h1M832 112h1M112 191h1M89 222h1M934 222h1M961 266h1M62 757h1M89 801h1M934 801h1M911 832h1M191 911h1M222 934h1M801 934h1M757 961h1" />
<path stroke="rgba(189,218,239,0.8196078431372549)" d="M267 62h1M756 62h1M62 267h1M961 267h1M62 756h1M961 756h1M267 961h1M756 961h1" />
<path stroke="rgba(190,218,240,0.3254901960784314)" d="M757 62h1M191 112h1M911 191h1M62 266h1M961 757h1M112 832h1M832 911h1M266 961h1" />
<path stroke="rgba(189,218,238,0.7254901960784313)" d="M265 63h1M758 63h1M63 265h1M960 265h1M63 758h1M960 758h1M265 960h1M758 960h1" />
<path stroke="rgba(186,221,241,0.1450980392156863)" d="M262 64h1M761 64h1M164 135h1M859 135h1M135 164h1M888 164h1M64 262h1M959 262h1M64 761h1M959 761h1M135 859h1M888 859h1M164 888h1M859 888h1M262 959h1M761 959h1" />
<path stroke="rgba(179,230,230,0.0392156862745098)" d="M763 65h1M848 125h1M125 175h1M65 260h1M958 763h1M898 848h1M175 898h1M260 958h1" />
<path stroke="rgba(188,217,238,0.4196078431372549)" d="M259 66h1M764 66h1M66 259h1M957 259h1M66 764h1M957 764h1M259 957h1M764 957h1" />
<path stroke="rgba(189,218,239,0.9137254901960784)" d="M260 66h1M826 108h1M187 116h1M836 116h1M116 187h1M907 187h1M108 197h1M957 260h1M66 763h1M915 826h1M116 836h1M907 836h1M187 907h1M836 907h1M197 915h1M763 957h1" />
<path stroke="rgba(190,219,237,0.16862745098039217)" d="M255 68h1M768 68h1M68 255h1M955 255h1M68 768h1M955 768h1M255 955h1M768 955h1" />
<path stroke="rgba(182,219,255,0.027450980392156862)" d="M253 69h1M770 69h1M182 119h1M841 119h1M119 182h1M904 182h1M69 253h1M954 253h1M69 770h1M954 770h1M119 841h1M904 841h1M182 904h1M841 904h1M253 954h1M770 954h1" />
<path stroke="rgba(189,218,239,0.8901960784313725)" d="M253 70h1M770 70h1M213 96h1M174 127h1M849 127h1M127 174h1M896 174h1M927 213h1M70 253h1M953 253h1M70 770h1M953 770h1M96 810h1M127 849h1M896 849h1M174 896h1M849 896h1M810 927h1M253 953h1M770 953h1" />
<path stroke="rgba(189,219,239,0.5764705882352941)" d="M249 72h1M774 72h1M72 249h1M951 249h1M72 774h1M951 774h1M249 951h1M774 951h1" />
<path stroke="rgba(189,218,239,0.9215686274509803)" d="M248 73h1M223 89h1M800 89h1M89 223h1M934 223h1M950 248h1M73 775h1M89 800h1M934 800h1M223 934h1M800 934h1M775 950h1" />
<path stroke="rgba(188,219,237,0.2235294117647059)" d="M245 74h1M778 74h1M74 245h1M949 245h1M74 778h1M949 778h1M245 949h1M778 949h1" />
<path stroke="rgba(189,219,239,0.7411764705882353)" d="M246 74h1M777 74h1M74 246h1M949 246h1M74 777h1M949 777h1M246 949h1M777 949h1" />
<path stroke="rgba(188,218,240,0.7803921568627451)" d="M238 79h1M785 79h1M79 238h1M944 238h1M79 785h1M944 785h1M238 944h1M785 944h1" />
<path stroke="rgba(190,219,239,0.30980392156862746)" d="M789 81h1M811 96h1M96 212h1M81 234h1M942 789h1M927 811h1M212 927h1M234 942h1" />
<path stroke="rgba(189,218,239,0.9333333333333333)" d="M232 83h1M791 83h1M163 137h1M860 137h1M137 163h1M886 163h1M83 232h1M940 232h1M83 791h1M940 791h1M137 860h1M886 860h1M163 886h1M860 886h1M232 940h1M791 940h1" />
<path stroke="rgba(190,218,239,0.6431372549019608)" d="M230 84h1M793 84h1M84 230h1M939 230h1M84 793h1M939 793h1M230 939h1M793 939h1" />
<path stroke="rgba(189,218,239,0.9254901960784314)" d="M226 87h1M797 87h1M87 226h1M936 226h1M87 797h1M936 797h1M226 936h1M797 936h1" />
<path stroke="rgba(190,219,239,0.3058823529411765)" d="M212 96h1M927 212h1M96 811h1M811 927h1" />
<path stroke="rgba(190,217,239,0.1843137254901961)" d="M201 104h1M822 104h1M104 201h1M919 201h1M104 822h1M919 822h1M201 919h1M822 919h1" />
<path stroke="rgba(189,217,239,0.7725490196078432)" d="M188 115h1M835 115h1M115 188h1M908 188h1" />
<path stroke="rgba(190,219,241,0.2784313725490196)" d="M186 116h1M837 116h1M116 186h1M907 186h1M116 837h1M907 837h1M186 907h1M837 907h1" />
<path stroke="rgba(189,219,238,0.4117647058823529)" d="M185 117h1M838 117h1M117 185h1M906 185h1M117 838h1M906 838h1M185 906h1M838 906h1" />
<path stroke="rgba(189,218,238,0.5450980392156862)" d="M184 118h1M839 118h1M118 184h1M905 184h1M118 839h1M905 839h1M184 905h1M839 905h1" />
<path stroke="rgba(189,218,239,0.6705882352941176)" d="M183 119h1M840 119h1M119 183h1M904 183h1M119 840h1M904 840h1M183 904h1M840 904h1" />
<path stroke="rgba(190,216,238,0.23137254901960785)" d="M173 127h1M896 173h1M127 850h1M850 896h1" />
<path stroke="rgba(189,218,239,0.9764705882352941)" d="M850 128h1M128 173h1M895 850h1M173 895h1" />
<path stroke="rgba(185,220,243,0.08627450980392157)" d="M165 134h1M858 134h1M134 165h1M889 165h1M134 858h1M889 858h1M165 889h1M858 889h1" />
<path stroke="rgba(187,219,239,0.25098039215686274)" d="M162 137h1M861 137h1M137 162h1M886 162h1M137 861h1M886 861h1M162 886h1M861 886h1" />
<path stroke="rgba(189,219,239,0.4980392156862745)" d="M155 144h1M868 144h1M879 155h1M144 868h1M868 879h1" />
<path stroke="rgba(189,218,240,0.5176470588235295)" d="M154 145h1M878 154h1M145 869h1M869 878h1" />
<path stroke="rgba(188,218,238,0.5411764705882353)" d="M152 147h1M871 147h1M147 152h1M876 152h1M147 871h1M876 871h1M152 876h1M871 876h1" />
<path stroke="#91b9f2" d="M277 298h128M277 299h128M277 300h128M277 301h128M277 302h128M277 303h128M277 304h128M277 305h128M277 306h128M277 307h128M277 308h128M277 309h128M277 310h128M277 311h128M277 312h128M277 313h128M277 314h128M277 315h128M277 316h128M277 317h128M277 318h128M277 319h128M277 320h128M277 321h128M277 322h128M277 323h128M277 324h128M277 325h128M277 326h128M277 327h128M277 328h128M277 329h128M277 330h128M277 331h128M277 332h128M277 333h128M277 334h128M277 335h128M277 336h128M277 337h128M277 338h128M277 339h128M277 340h128M277 341h128M277 342h128M277 343h128M277 344h128M277 345h128M277 346h128M277 347h128M277 348h128M277 349h128M277 350h128M277 351h128M277 352h128M277 353h128M277 354h128M277 355h128M277 356h128M277 357h128M277 358h128M277 359h128M277 360h128M277 361h128M277 362h128M277 363h128M277 364h128M277 365h128M277 366h128M277 367h128M277 368h128M277 369h128M277 370h128M277 371h128M277 372h128M277 373h128M277 374h128M277 375h128M277 376h128M277 377h128M277 378h128M277 379h128M277 380h128M277 381h128M277 382h128M277 383h128M277 384h128M277 385h128M277 386h128M277 387h128M277 388h128M277 389h128M277 390h128M277 391h128M277 392h128M277 393h128M277 394h128M277 395h128M277 396h128M277 397h128M277 398h128M277 399h128M277 400h128M277 401h128M277 402h128M277 403h128M277 404h128M277 405h128M277 406h128M277 407h128M277 408h128M277 409h128M277 410h128M277 411h128M277 412h128M277 413h128M277 414h128M277 415h128M277 416h128M277 417h128M277 418h128M277 419h128M277 420h128M277 421h128M277 422h128M277 423h128M277 424h128M277 425h128M277 426h128M277 427h128M277 428h128M277 429h128M277 430h128M277 431h128M277 432h128M277 433h128M277 434h128M277 435h128M277 436h128M277 437h128M277 438h128M277 439h128M277 440h128M277 441h128M277 442h128M277 443h128M277 444h128M277 445h128M277 446h128M277 447h128M277 448h128M277 449h128M277 450h128M277 451h128M277 452h128M277 453h128M277 454h128M277 455h128M277 456h128M277 457h128M277 458h128M277 459h128M277 460h128M277 461h128M277 462h128M277 463h128M277 464h128M277 465h128M277 466h128M277 467h128M277 468h128M277 469h128M277 470h128M277 471h128M277 472h128M277 473h128M277 474h128M277 475h128M277 476h128M277 477h128M277 478h128M277 479h128M277 480h128M277 481h128M277 482h128M277 483h128M277 484h128M277 485h128M277 486h128M277 487h128M277 488h128M277 489h128M277 490h128M277 491h128M277 492h128M277 493h128M277 494h128M277 495h128M277 496h128M277 497h128M277 498h128M277 499h128M277 500h128M277 501h128M277 502h128M277 503h128M277 504h128M277 505h128M277 506h128M277 507h128M277 508h128M277 509h128M277 510h128M277 511h128M277 512h128M277 513h128M277 514h128M277 515h128M277 516h128M277 517h128M277 518h128M277 519h128M277 520h128M277 521h128M277 522h128M277 523h128M277 524h128M277 525h128M277 526h128M277 527h128M277 528h128M277 529h128M277 530h128M277 531h128M277 532h128M277 533h128M277 534h128M277 535h128M277 536h128M277 537h128M277 538h128M277 539h128M277 540h128M277 541h128M277 542h128M277 543h128M277 544h128M277 545h128M277 546h128M277 547h128M277 548h128M277 549h128M277 550h128M277 551h128M277 552h128M277 553h128M277 554h128M277 555h128M277 556h128M277 557h128M277 558h128M277 559h128M277 560h128M277 561h128M277 562h128M277 563h128M277 564h128M277 565h128M277 566h128M277 567h128M277 568h128M277 569h128M277 570h128M277 571h128M277 572h128M277 573h128M277 574h128M277 575h128M277 576h128M277 577h128M277 578h128M277 579h128M277 580h128M277 581h128M277 582h128M277 583h128M277 584h128M277 585h128M277 586h128M277 587h128M277 588h128M277 589h128M277 590h128M277 591h128M277 592h128M277 593h128M277 594h128M277 595h128M277 596h128M277 597h128M277 598h128M277 599h128M277 600h128M277 601h128M277 602h128M277 603h128M277 604h128M277 605h128M277 606h128M277 607h128M277 608h128M277 609h128M277 610h128M277 611h128M277 612h128M277 613h128M277 614h128M277 615h128M277 616h128M277 617h128M277 618h128M277 619h128M277 620h128M277 621h128M277 622h128M277 623h128M277 624h128M277 625h128M277 626h128M277 627h128M277 628h128M277 629h128M277 630h128M277 631h128M277 632h128M277 633h128M277 634h128M277 635h128M277 636h128M277 637h128M277 638h128M277 639h128M298 640h107M298 641h107M298 642h107M298 643h107M298 644h107M298 645h107M298 646h107M298 647h107M298 648h107M298 649h107M298 650h107M298 651h107M298 652h107M298 653h107M298 654h107M298 655h107M298 656h107M298 657h107M298 658h107M298 659h107M298 660h107" />
<path stroke="#a2d2ff" d="M405 298h363M405 299h363M405 300h363M405 301h363M405 302h363M405 303h363M405 304h363M405 305h363M405 306h363M405 307h363M405 308h363M405 309h363M405 310h363M405 311h363M405 312h363M405 313h363M405 314h363M405 315h363M405 316h363M405 317h363M405 318h363M405 319h363M405 320h341M405 321h341M405 322h341M405 323h341M405 324h341M405 325h341M405 326h341M405 327h341M405 328h341M405 329h341M405 330h341M405 331h341M405 332h341M405 333h341M405 334h341M405 335h341M405 336h341M405 337h341M405 338h341M405 339h341M405 340h341M405 341h85M682 341h86M405 342h85M682 342h86M405 343h85M682 343h86M405 344h85M682 344h86M405 345h85M682 345h86M405 346h85M682 346h86M405 347h85M682 347h86M405 348h85M682 348h86M405 349h85M682 349h86M405 350h85M682 350h86M405 351h85M682 351h86M405 352h85M682 352h86M405 353h85M682 353h86M405 354h85M682 354h86M405 355h85M682 355h86M405 356h85M682 356h86M405 357h85M682 357h86M405 358h85M682 358h86M405 359h85M682 359h86M405 360h85M682 360h86M405 361h85M682 361h86M405 362h85M682 362h86M405 363h85M682 363h86M405 364h85M682 364h86M405 365h85M682 365h86M405 366h85M682 366h86M405 367h85M682 367h86M405 368h85M682 368h86M405 369h85M682 369h86M405 370h85M682 370h86M405 371h85M682 371h86M405 372h85M682 372h86M405 373h85M682 373h86M405 374h85M682 374h86M405 375h85M682 375h86M405 376h85M682 376h86M405 377h85M682 377h86M405 378h85M682 378h86M405 379h85M682 379h86M405 380h85M682 380h86M405 381h85M682 381h86M405 382h85M682 382h86M405 383h85M682 383h86M405 384h43M725 384h43M405 385h43M725 385h43M405 386h43M725 386h43M405 387h43M725 387h43M405 388h43M725 388h43M405 389h43M725 389h43M405 390h43M725 390h43M405 391h43M725 391h43M405 392h43M725 392h43M405 393h43M725 393h43M405 394h43M725 394h43M405 395h43M725 395h43M405 396h43M725 396h43M405 397h43M725 397h43M405 398h43M725 398h43M405 399h43M725 399h43M405 400h43M725 400h43M405 401h43M725 401h43M405 402h43M725 402h43M405 403h43M725 403h43M405 404h43M725 404h43M405 405h43M725 405h43M405 406h43M725 406h43M405 407h43M725 407h43M405 408h43M725 408h43M405 409h43M725 409h43M405 410h43M725 410h43M405 411h43M725 411h43M405 412h43M725 412h43M405 413h43M725 413h43M405 414h43M725 414h43M405 415h43M725 415h43M405 416h43M725 416h43M405 417h43M725 417h43M405 418h43M725 418h43M405 419h43M725 419h43M405 420h43M725 420h43M405 421h43M725 421h43M405 422h43M725 422h43M405 423h43M725 423h43M405 424h43M725 424h43M405 425h43M725 425h43M405 426h43M725 426h43M405 427h43M725 427h43M405 428h43M725 428h43M405 429h43M725 429h43M405 430h43M725 430h43M405 431h43M725 431h43M405 432h43M725 432h43M405 433h43M725 433h43M405 434h43M725 434h43M405 435h43M725 435h43M405 436h43M725 436h43M405 437h43M725 437h43M405 438h43M725 438h43M405 439h43M725 439h43M405 440h43M725 440h43M405 441h43M725 441h43M405 442h43M725 442h43M405 443h43M725 443h43M405 444h43M725 444h43M405 445h43M725 445h43M405 446h43M725 446h43M405 447h43M725 447h43M405 448h43M725 448h43M405 449h43M725 449h43M405 450h43M725 450h43M405 451h43M725 451h43M405 452h43M725 452h43M405 453h43M725 453h43M405 454h43M725 454h43M405 455h43M725 455h43M405 456h43M725 456h43M405 457h43M725 457h43M405 458h43M725 458h43M405 459h43M725 459h43M405 460h43M725 460h43M405 461h43M725 461h43M405 462h43M725 462h43M405 463h43M725 463h43M405 464h43M725 464h43M405 465h43M725 465h43M405 466h43M725 466h43M405 467h43M725 467h43M405 468h43M725 468h43M405 469h43M725 469h43M405 470h43M725 470h43M405 471h43M725 471h43M405 472h43M725 472h43M405 473h43M725 473h43M405 474h43M725 474h43M405 475h43M725 475h43M405 476h43M725 476h43M405 477h43M725 477h43M405 478h43M725 478h43M405 479h43M725 479h43M405 480h43M725 480h43M405 481h43M725 481h43M405 482h43M725 482h43M405 483h43M725 483h43M405 484h43M725 484h43M405 485h43M725 485h43M405 486h43M725 486h43M405 487h43M725 487h43M405 488h43M725 488h43M405 489h43M725 489h43M405 490h43M746 490h22M405 491h43M746 491h22M405 492h43M746 492h22M405 493h43M746 493h22M405 494h43M746 494h22M405 495h43M746 495h22M405 496h43M746 496h22M405 497h43M746 497h22M405 498h43M746 498h22M405 499h43M746 499h22M405 500h43M746 500h22M405 501h43M746 501h22M405 502h43M746 502h22M405 503h43M746 503h22M405 504h43M746 504h22M405 505h43M746 505h22M405 506h43M746 506h22M405 507h43M746 507h22M405 508h43M746 508h22M405 509h43M746 509h22M405 510h43M746 510h22M405 511h43M746 511h22M405 512h43M746 512h22M405 513h43M746 513h22M405 514h43M746 514h22M405 515h43M746 515h22M405 516h43M746 516h22M405 517h43M746 517h22M405 518h43M746 518h22M405 519h43M746 519h22M405 520h43M746 520h22M405 521h43M746 521h22M405 522h43M746 522h22M405 523h43M746 523h22M405 524h43M746 524h22M405 525h43M746 525h22M405 526h43M746 526h22M405 527h43M746 527h22M405 528h43M746 528h22M405 529h43M746 529h22M405 530h43M746 530h22M405 531h43M746 531h22M405 532h43M746 532h22M405 533h43M746 533h22M405 534h43M746 534h22M405 535h43M746 535h22M405 536h43M746 536h22M405 537h43M746 537h22M405 538h43M746 538h22M405 539h43M746 539h22M405 540h43M746 540h22M405 541h43M746 541h22M405 542h43M746 542h22M405 543h43M746 543h22M405 544h43M746 544h22M405 545h43M746 545h22M405 546h43M746 546h22M405 547h43M746 547h22M405 548h43M746 548h22M405 549h43M746 549h22M405 550h43M746 550h22M405 551h43M746 551h22M405 552h43M746 552h22M405 553h43M746 553h22M405 554h43M746 554h22M405 555h43M746 555h22M405 556h43M746 556h22M405 557h43M746 557h22M405 558h43M746 558h22M405 559h43M746 559h22M405 560h43M746 560h22M405 561h43M746 561h22M405 562h43M746 562h22M405 563h43M746 563h22M405 564h43M746 564h22M405 565h43M746 565h22M405 566h43M746 566h22M405 567h43M746 567h22M405 568h43M746 568h22M405 569h43M746 569h22M405 570h43M746 570h22M405 571h43M746 571h22M405 572h43M746 572h22M405 573h43M746 573h22M405 574h43M746 574h22M405 575h43M746 575h22M405 576h43M746 576h22M405 577h43M746 577h22M405 578h43M746 578h22M405 579h43M746 579h22M405 580h43M746 580h22M405 581h43M746 581h22M405 582h43M746 582h22M405 583h43M746 583h22M405 584h43M746 584h22M405 585h43M746 585h22M405 586h43M746 586h22M405 587h43M746 587h22M405 588h43M746 588h22M405 589h43M746 589h22M405 590h43M746 590h22M405 591h43M746 591h22M405 592h43M746 592h22M405 593h43M746 593h22M405 594h43M746 594h22M405 595h43M746 595h22M405 596h43M746 596h22M405 597h43M746 597h22M405 598h43M746 598h22M405 599h43M746 599h22M405 600h43M746 600h22M405 601h43M746 601h22M405 602h43M746 602h22M405 603h43M746 603h22M405 604h43M746 604h22M405 605h43M746 605h22M405 606h43M746 606h22M405 607h43M746 607h22M405 608h43M746 608h22M405 609h43M746 609h22M405 610h43M746 610h22M405 611h43M746 611h22M405 612h43M746 612h22M405 613h43M746 613h22M405 614h43M746 614h22M405 615h43M746 615h22M405 616h43M746 616h22M405 617h43M746 617h22M405 618h43M746 618h22M405 619h43M746 619h22M405 620h43M746 620h22M405 621h43M746 621h22M405 622h43M746 622h22M405 623h43M746 623h22M405 624h43M746 624h22M405 625h43M746 625h22M405 626h43M746 626h22M405 627h43M746 627h22M405 628h43M746 628h22M405 629h43M746 629h22M405 630h43M746 630h22M405 631h43M746 631h22M405 632h43M746 632h22M405 633h43M746 633h22M405 634h43M746 634h22M405 635h43M746 635h22M405 636h43M746 636h22M405 637h43M746 637h22M405 638h43M746 638h22M405 639h43M746 639h22M405 640h43M725 640h43M405 641h43M725 641h43M405 642h43M725 642h43M405 643h43M725 643h43M405 644h43M725 644h43M405 645h43M725 645h43M405 646h43M725 646h43M405 647h43M725 647h43M405 648h43M725 648h43M405 649h43M725 649h43M405 650h43M725 650h43M405 651h43M725 651h43M405 652h43M725 652h43M405 653h43M725 653h43M405 654h43M725 654h43M405 655h43M725 655h43M405 656h43M725 656h43M405 657h43M725 657h43M405 658h43M725 658h43M405 659h43M725 659h43M405 660h43M725 660h43" />
<path stroke="#a3d2fd" d="M746 320h22M746 321h22M746 322h22M746 323h22M746 324h22M746 325h22M746 326h22M746 327h22M746 328h22M746 329h22M746 330h22M746 331h22M746 332h22M746 333h22M746 334h22M746 335h22M746 336h22M746 337h22M746 338h22M746 339h22M746 340h22" />
<path stroke="#86afcc" d="M234 341h43M234 342h43M234 343h43M234 344h43M234 345h43M234 346h43M234 347h43M234 348h43M234 349h43M234 350h43M234 351h43M234 352h43M234 353h43M234 354h43M234 355h43M234 356h43M234 357h43M234 358h43M234 359h43M234 360h43M234 361h43M234 362h43M234 363h43M234 364h43M234 365h43M234 366h43M234 367h43M234 368h43M234 369h43M234 370h43M234 371h43M234 372h43M234 373h43M234 374h43M234 375h43M234 376h43M234 377h43M234 378h43M234 379h43M234 380h43M234 381h43M234 382h43M234 383h43M234 384h43M234 385h43M234 386h43M234 387h43M234 388h43M234 389h43M234 390h43M234 391h43M234 392h43M234 393h43M234 394h43M234 395h43M234 396h43M234 397h43M234 398h43M234 399h43M234 400h43M234 401h43M234 402h43M234 403h43M234 404h43M234 405h43M234 406h43M234 407h43M234 408h43M234 409h43M234 410h43M234 411h43M234 412h43M234 413h43M234 414h43M234 415h43M234 416h43M234 417h43M234 418h43M234 419h43M234 420h43M234 421h43M234 422h43M234 423h43M234 424h43M234 425h43M234 426h43M234 427h43M234 428h43M234 429h43M234 430h43M234 431h43M234 432h43M234 433h43M234 434h43M234 435h43M234 436h43M234 437h43M234 438h43M234 439h43M234 440h43M234 441h43M234 442h43M234 443h43M234 444h43M234 445h43M234 446h43M234 447h43M234 448h43M234 449h43M234 450h43M234 451h43M234 452h43M234 453h43M234 454h43M234 455h43M234 456h43M234 457h43M234 458h43M234 459h43M234 460h43M234 461h43M234 462h43M234 463h43M234 464h43M234 465h43M234 466h43M234 467h43M234 468h43M234 469h43M234 470h43M234 471h43M234 472h43M234 473h43M234 474h43M234 475h43M234 476h43M234 477h43M234 478h43M234 479h43M234 480h43M234 481h43M234 482h43M234 483h43M234 484h43M234 485h43M234 486h43M234 487h43M234 488h43M234 489h43M234 490h43M234 491h43M234 492h43M234 493h43M234 494h43M234 495h43M234 496h43M234 497h43M234 498h43M234 499h43M234 500h43M234 501h43M234 502h43M234 503h43M234 504h43M234 505h43M234 506h43M234 507h43M234 508h43M234 509h43M234 510h43M234 511h43M234 512h43M234 513h43M234 514h43M234 515h43M234 516h43M234 517h43M234 518h43M234 519h43M234 520h43M234 521h43M234 522h43M234 523h43M234 524h43M234 525h43M234 526h43M234 527h43M234 528h43M234 529h43M234 530h43M234 531h43M234 532h43M234 533h43M234 534h43M234 535h43M234 536h43M234 537h43M234 538h43M234 539h43M234 540h43M234 541h43M234 542h43M234 543h43M234 544h43M234 545h43M234 546h43M234 547h43M234 548h43M234 549h43M234 550h43M234 551h43M234 552h43M234 553h43M234 554h43M234 555h43M234 556h43M234 557h43M234 558h43M234 559h43M234 560h43M234 561h43M234 562h43M234 563h43M234 564h43M234 565h43M234 566h43M234 567h43M234 568h43M234 569h43M234 570h43M234 571h43M234 572h43M234 573h43M234 574h43M234 575h43M234 576h43M234 577h43M234 578h43M234 579h43M234 580h43M234 581h43M234 582h43M234 583h43M234 584h43M234 585h43M234 586h43M234 587h43M234 588h43M234 589h43M234 590h43M234 591h43M234 592h43M234 593h43M234 594h43M234 595h43M234 596h43M234 597h43M234 598h43M234 599h43M234 600h43M234 601h43M234 602h43M234 603h43M234 604h43M234 605h43M234 606h43M234 607h43M234 608h43M234 609h43M234 610h43M234 611h43M234 612h43M234 613h43M234 614h43M234 615h43M234 616h43M234 617h43M234 618h43M234 619h43M234 620h43M234 621h43M234 622h43M234 623h43M234 624h43M234 625h43M234 626h43M234 627h43M234 628h43M234 629h43M234 630h43M234 631h43M234 632h43M234 633h43M234 634h43M234 635h43M234 636h43M234 637h43M234 638h43M234 639h43M234 640h43M234 641h43M234 642h43M234 643h43M234 644h43M234 645h43M234 646h43M234 647h43M234 648h43M234 649h43M234 650h43M234 651h43M234 652h43M234 653h43M234 654h43M234 655h43M234 656h43M234 657h43M234 658h43M234 659h43M234 660h43M234 661h491M234 662h491M234 663h491M234 664h491M234 665h491M234 666h491M234 667h491M234 668h491M234 669h491M234 670h491M234 671h491M234 672h491M234 673h491M234 674h491M234 675h491M234 676h491M234 677h491M234 678h491M234 679h491M234 680h491M234 681h491M234 682h491M234 683h491M234 684h491M234 685h491M234 686h491M234 687h491M234 688h491M234 689h491M234 690h491M234 691h491M234 692h491M234 693h491M234 694h491M234 695h491M234 696h491M234 697h491M234 698h491M234 699h491M234 700h491M234 701h491M234 702h491M234 703h491" />
<path stroke="#f2d06d" d="M490 341h192M490 342h192M490 343h192M490 344h192M490 345h192M490 346h192M490 347h192M490 348h192M490 349h192M490 350h192M490 351h192M490 352h192M490 353h192M490 354h192M490 355h192M490 356h192M490 357h192M490 358h192M490 359h192M490 360h192M490 361h192M490 362h192M490 363h192M490 364h192M490 365h192M490 366h192M490 367h192M490 368h192M490 369h192M490 370h192M490 371h192M490 372h192M490 373h192M490 374h192M490 375h192M490 376h192M490 377h192M490 378h192M490 379h192M490 380h192M490 381h192M490 382h192M490 383h192M448 384h85M640 384h85M448 385h85M640 385h85M448 386h85M640 386h85M448 387h85M640 387h85M448 388h85M640 388h85M448 389h85M640 389h85M448 390h85M640 390h85M448 391h85M640 391h85M448 392h85M640 392h85M448 393h85M640 393h85M448 394h85M640 394h85M448 395h85M640 395h85M448 396h85M640 396h85M448 397h85M640 397h85M448 398h85M640 398h85M448 399h85M640 399h85M448 400h85M640 400h85M448 401h85M640 401h85M448 402h85M640 402h85M448 403h85M640 403h85M448 404h85M640 404h85M448 405h85M640 405h85M448 406h85M640 406h85M448 407h85M640 407h85M448 408h85M640 408h85M448 409h85M640 409h85M448 410h85M640 410h85M448 411h85M640 411h85M448 412h85M640 412h85M448 413h85M640 413h85M448 414h85M640 414h85M448 415h85M640 415h85M448 416h85M640 416h85M448 417h85M640 417h85M448 418h85M640 418h85M448 419h85M640 419h85M448 420h85M640 420h85M448 421h85M640 421h85M448 422h85M640 422h85M448 423h85M640 423h85M448 424h85M640 424h85M448 425h85M640 425h85M448 426h42M682 426h43M448 427h42M682 427h43M448 428h42M682 428h43M448 429h42M682 429h43M448 430h42M682 430h43M448 431h42M682 431h43M448 432h42M682 432h43M448 433h42M682 433h43M448 434h42M682 434h43M448 435h42M682 435h43M448 436h42M682 436h43M448 437h42M682 437h43M448 438h42M682 438h43M448 439h42M682 439h43M448 440h42M682 440h43M448 441h42M682 441h43M448 442h42M682 442h43M448 443h42M682 443h43M448 444h42M682 444h43M448 445h42M682 445h43M448 446h42M682 446h43M448 447h42M682 447h43M448 448h42M682 448h43M448 449h42M682 449h43M448 450h42M682 450h43M448 451h42M682 451h43M448 452h42M682 452h43M448 453h42M682 453h43M448 454h42M682 454h43M448 455h42M682 455h43M448 456h42M682 456h43M448 457h42M682 457h43M448 458h42M682 458h43M448 459h42M682 459h43M448 460h42M682 460h43M448 461h42M682 461h43M448 462h42M682 462h43M448 463h42M682 463h43M448 464h42M682 464h43M448 465h42M682 465h43M448 466h42M682 466h43M448 467h42M682 467h43M448 468h42M682 468h43" />
<path stroke="#fde977" d="M533 384h107M533 385h107M533 386h107M533 387h107M533 388h107M533 389h107M533 390h107M533 391h107M533 392h107M533 393h107M533 394h107M533 395h107M533 396h107M533 397h107M533 398h107M533 399h107M533 400h107M533 401h107M533 402h107M533 403h107M533 404h107M533 405h107M533 406h107M533 407h107M533 408h107M533 409h107M533 410h107M533 411h107M533 412h107M533 413h107M533 414h107M533 415h107M533 416h107M533 417h107M533 418h107M533 419h107M533 420h107M533 421h107M533 422h107M533 423h107M533 424h107M533 425h107M490 426h192M490 427h192M490 428h192M490 429h192M490 430h192M490 431h192M490 432h192M490 433h192M490 434h192M490 435h192M490 436h192M490 437h192M490 438h192M490 439h192M490 440h192M490 441h192M490 442h192M490 443h192M490 444h192M490 445h192M490 446h192M490 447h192M490 448h192M490 449h192M490 450h192M490 451h192M490 452h192M490 453h192M490 454h192M490 455h192M490 456h192M490 457h192M490 458h192M490 459h192M490 460h192M490 461h192M490 462h192M490 463h192M490 464h192M490 465h192M490 466h192M490 467h192M490 468h192M448 469h277M448 470h277M448 471h277M448 472h277M448 473h277M448 474h277M448 475h277M448 476h277M448 477h277M448 478h277M448 479h277M448 480h277M448 481h277M448 482h277M448 483h277M448 484h277M448 485h277M448 486h277M448 487h277M448 488h277M448 489h277M448 490h277M448 491h277M448 492h277M448 493h277M448 494h277M448 495h277M448 496h277M448 497h277M448 498h277M448 499h277M448 500h277M448 501h277M448 502h277M448 503h277M448 504h277M448 505h277M448 506h277M448 507h277M448 508h277M448 509h277M448 510h277M448 511h277M448 512h277M448 513h277M448 514h277M448 515h277M448 516h277M448 517h277M448 518h277M448 519h277M448 520h277M448 521h277M448 522h277M448 523h277M448 524h277M448 525h277M448 526h277M448 527h277M448 528h277M448 529h277M448 530h277M448 531h277M448 532h277M448 533h277M448 534h277M448 535h277M448 536h277M448 537h277M448 538h277M448 539h277M448 540h277M448 541h277M448 542h277M448 543h277M448 544h277M448 545h277M448 546h277M448 547h277M448 548h277M448 549h277M448 550h277M448 551h277M448 552h277M448 553h277M448 554h277M448 555h277M448 556h277M448 557h277M448 558h277M448 559h277M448 560h277M448 561h277M448 562h277M448 563h277M448 564h277M448 565h277M448 566h277M448 567h277M448 568h277M448 569h277M448 570h277M448 571h277M448 572h277M448 573h277M448 574h277M448 575h277M490 576h43M640 576h42M490 577h43M640 577h42M490 578h43M640 578h42M490 579h43M640 579h42M490 580h43M640 580h42M490 581h43M640 581h42M490 582h43M640 582h42M490 583h43M640 583h42M490 584h43M640 584h42M490 585h43M640 585h42M490 586h43M640 586h42M490 587h43M640 587h42M490 588h43M640 588h42M490 589h43M640 589h42M490 590h43M640 590h42M490 591h43M640 591h42M490 592h43M640 592h42M490 593h43M640 593h42M490 594h43M640 594h42M490 595h43M640 595h42M490 596h43M640 596h42M490 597h43M640 597h42M490 598h43M640 598h42M490 599h43M640 599h42M490 600h43M640 600h42M490 601h43M640 601h42M490 602h43M640 602h42M490 603h43M640 603h42M490 604h43M640 604h42M490 605h43M640 605h42M490 606h43M640 606h42M490 607h43M640 607h42M490 608h43M640 608h42M490 609h43M640 609h42M490 610h43M640 610h42M490 611h43M640 611h42M490 612h43M640 612h42M490 613h43M640 613h42M490 614h43M640 614h42M490 615h43M640 615h42M490 616h43M640 616h42M490 617h43M640 617h42M448 618h277M448 619h277M448 620h277M448 621h277M448 622h277M448 623h277M448 624h277M448 625h277M448 626h277M448 627h277M448 628h277M448 629h277M448 630h277M448 631h277M448 632h277M448 633h277M448 634h277M448 635h277M448 636h277M448 637h277M448 638h277M448 639h277M448 640h277M448 641h277M448 642h277M448 643h277M448 644h277M448 645h277M448 646h277M448 647h277M448 648h277M448 649h277M448 650h277M448 651h277M448 652h277M448 653h277M448 654h277M448 655h277M448 656h277M448 657h277M448 658h277M448 659h277M448 660h277" />
<path stroke="rgba(188,218,240,0.27058823529411763)" d="M1011 398h1M625 1011h1" />
<path stroke="#a2d2fe" d="M725 490h21M725 491h21M725 492h21M725 493h21M725 494h21M725 495h21M725 496h21M725 497h21M725 498h21M725 499h21M725 500h21M725 501h21M725 502h21M725 503h21M725 504h21M725 505h21M725 506h21M725 507h21M725 508h21M725 509h21M725 510h21M725 511h21M725 512h21M725 513h21M725 514h21M725 515h21M725 516h21M725 517h21M725 518h21M725 519h21M725 520h21M725 521h21M725 522h21M725 523h21M725 524h21M725 525h21M725 526h21M725 527h21M725 528h21M725 529h21M725 530h21M725 531h21M725 532h21" />
<path stroke="#a5d3fc" d="M725 533h21M725 534h21M725 535h21M725 536h21M725 537h21M725 538h21M725 539h21M725 540h21M725 541h21M725 542h21M725 543h21M725 544h21M725 545h21M725 546h21M725 547h21M725 548h21M725 549h21M725 550h21M725 551h21M725 552h21M725 553h21M725 554h21M725 555h21M725 556h21M725 557h21M725 558h21M725 559h21M725 560h21M725 561h21M725 562h21M725 563h21M725 564h21M725 565h21M725 566h21M725 567h21M725 568h21M725 569h21M725 570h21M725 571h21M725 572h21M725 573h21M725 574h21M725 575h21M725 576h21M725 577h21M725 578h21M725 579h21M725 580h21M725 581h21M725 582h21M725 583h21M725 584h21M725 585h21M725 586h21M725 587h21M725 588h21M725 589h21M725 590h21M725 591h21M725 592h21M725 593h21M725 594h21M725 595h21M725 596h21" />
<path stroke="#6a6a6a" d="M448 576h42M682 576h43M448 577h42M682 577h43M448 578h42M682 578h43M448 579h42M682 579h43M448 580h42M682 580h43M448 581h42M682 581h43M448 582h42M682 582h43M448 583h42M682 583h43M448 584h42M682 584h43M448 585h42M682 585h43M448 586h42M682 586h43M448 587h42M682 587h43M448 588h42M682 588h43M448 589h42M682 589h43M448 590h42M682 590h43M448 591h42M682 591h43M448 592h42M682 592h43M448 593h42M682 593h43M448 594h42M682 594h43M448 595h42M682 595h43M448 596h42M682 596h43M448 597h42M682 597h43M448 598h42M682 598h43M448 599h42M682 599h43M448 600h42M682 600h43M448 601h42M682 601h43M448 602h42M682 602h43M448 603h42M682 603h43M448 604h42M682 604h43M448 605h42M682 605h43M448 606h42M682 606h43M448 607h42M682 607h43M448 608h42M682 608h43M448 609h42M682 609h43M448 610h42M682 610h43M448 611h42M682 611h43M448 612h42M682 612h43M448 613h42M682 613h43M448 614h42M682 614h43M448 615h42M682 615h43M448 616h42M682 616h43M448 617h42M682 617h43" />
<path stroke="#ffa64d" d="M533 576h107M533 577h107M533 578h107M533 579h107M533 580h107M533 581h107M533 582h107M533 583h107M533 584h107M533 585h107M533 586h107M533 587h107M533 588h107M533 589h107M533 590h107M533 591h107M533 592h107M533 593h107M533 594h107M533 595h107M533 596h107M533 597h107M533 598h107M533 599h107M533 600h107M533 601h107M533 602h107M533 603h107M533 604h107M533 605h107M533 606h107M533 607h107M533 608h107M533 609h107M533 610h107M533 611h107M533 612h107M533 613h107M533 614h107M533 615h107M533 616h107M533 617h107" />
<path stroke="#a7d3fb" d="M725 597h21M725 598h21M725 599h21M725 600h21M725 601h21M725 602h21M725 603h21M725 604h21M725 605h21M725 606h21M725 607h21M725 608h21M725 609h21M725 610h21M725 611h21M725 612h21M725 613h21M725 614h21M725 615h21M725 616h21M725 617h21M725 618h21M725 619h21M725 620h21M725 621h21M725 622h21M725 623h21M725 624h21M725 625h21M725 626h21M725 627h21M725 628h21M725 629h21M725 630h21M725 631h21M725 632h21M725 633h21M725 634h21M725 635h21M725 636h21M725 637h21M725 638h21M725 639h21" />
<path stroke="#92b9f1" d="M277 640h21M277 641h21M277 642h21M277 643h21M277 644h21M277 645h21M277 646h21M277 647h21M277 648h21M277 649h21M277 650h21M277 651h21M277 652h21M277 653h21M277 654h21M277 655h21M277 656h21M277 657h21M277 658h21M277 659h21M277 660h21" />
<path stroke="#bcd9ee" d="M746 682h22M746 683h22M746 684h22M746 685h22M746 686h22M746 687h22M746 688h22M746 689h22M746 690h22M746 691h22M746 692h22M746 693h22M746 694h22M746 695h22M746 696h22M746 697h22M746 698h22M746 699h22M746 700h22M746 701h22M746 702h22M746 703h22" />
<path stroke="rgba(189,218,240,0.7764705882352941)" d="M115 835h1M908 835h1M188 908h1M835 908h1" />
</svg>