<svg xmlns="http://www.w3.org/2000/svg" viewBox="0 -0.5 160 160" shape-rendering="crispEdges">
<metadata>Made with Pixels to Svg https://codepen.io/shshaw/pen/XbxvNj</metadata>
<path stroke="#dbcc00" d="M0 0h20M0 1h20M0 2h20M0 3h20M0 4h20M0 5h20M0 6h20M0 7h20M0 8h20M0 9h20M0 10h20M0 11h20M0 12h20M0 13h20M0 14h20M0 15h20M0 16h20M0 17h20M0 18h20M0 19h20M0 20h40M60 20h20M100 20h20M140 20h20M0 21h40M60 21h20M100 21h20M140 21h20M0 22h40M60 22h20M100 22h20M140 22h20M0 23h40M60 23h20M100 23h20M140 23h20M0 24h40M60 24h20M100 24h20M140 24h20M0 25h40M60 25h20M100 25h20M140 25h20M0 26h40M60 26h20M100 26h20M140 26h20M0 27h40M60 27h20M100 27h20M140 27h20M0 28h40M60 28h20M100 28h20M140 28h20M0 29h40M60 29h20M100 29h20M140 29h20M0 30h40M60 30h20M100 30h20M140 30h20M0 31h40M60 31h20M100 31h20M140 31h20M0 32h40M60 32h20M100 32h20M140 32h20M0 33h40M60 33h20M100 33h20M140 33h20M0 34h40M60 34h20M100 34h20M140 34h20M0 35h40M60 35h20M100 35h20M140 35h20M0 36h40M60 36h20M100 36h20M140 36h20M0 37h40M60 37h20M100 37h20M140 37h20M0 38h40M60 38h20M100 38h20M140 38h20M0 39h40M60 39h20M100 39h20M140 39h20" />
<path stroke="#e08884" d="M20 0h20M20 1h20M20 2h20M20 3h20M20 4h20M20 5h20M20 6h20M20 7h20M20 8h20M20 9h20M20 10h20M20 11h20M20 12h20M20 13h20M20 14h20M20 15h20M20 16h20M20 17h20M20 18h20M20 19h20" />
<path stroke="#fff200" d="M40 0h20M100 0h20M140 0h20M40 1h20M100 1h20M140 1h20M40 2h20M100 2h20M140 2h20M40 3h20M100 3h20M140 3h20M40 4h20M100 4h20M140 4h20M40 5h20M100 5h20M140 5h20M40 6h20M100 6h20M140 6h20M40 7h20M100 7h20M140 7h20M40 8h20M100 8h20M140 8h20M40 9h20M100 9h20M140 9h20M40 10h20M100 10h20M140 10h20M40 11h20M100 11h20M140 11h20M40 12h20M100 12h20M140 12h20M40 13h20M100 13h20M140 13h20M40 14h20M100 14h20M140 14h20M40 15h20M100 15h20M140 15h20M40 16h20M100 16h20M140 16h20M40 17h20M100 17h20M140 17h20M40 18h20M100 18h20M140 18h20M40 19h20M100 19h20M140 19h20" />
<path stroke="#ec989a" d="M60 0h20M60 1h20M60 2h20M60 3h20M60 4h20M60 5h20M60 6h20M60 7h20M60 8h20M60 9h20M60 10h20M60 11h20M60 12h20M60 13h20M60 14h20M60 15h20M60 16h20M60 17h20M60 18h20M60 19h20" />
<path stroke="#eda1a1" d="M80 0h20M80 1h20M80 2h20M80 3h20M80 4h20M80 5h20M80 6h20M80 7h20M80 8h20M80 9h20M80 10h20M80 11h20M80 12h20M80 13h20M80 14h20M80 15h20M80 16h20M80 17h20M80 18h20M80 19h20" />
<path stroke="#ee9d9f" d="M120 0h20M120 1h20M120 2h20M120 3h20M120 4h20M120 5h20M120 6h20M120 7h20M120 8h20M120 9h20M120 10h20M120 11h20M120 12h20M120 13h20M120 14h20M120 15h20M120 16h20M120 17h20M120 18h20M120 19h20" />
<path stroke="#4d6df3" d="M40 20h20M40 21h20M40 22h20M40 23h20M40 24h20M40 25h20M40 26h20M40 27h20M40 28h20M40 29h20M40 30h20M40 31h20M40 32h20M40 33h20M40 34h20M40 35h20M40 36h20M40 37h20M40 38h20M40 39h20" />
<path stroke="#0a02eb" d="M80 20h20M80 21h20M80 22h20M80 23h20M80 24h20M80 25h20M80 26h20M80 27h20M80 28h20M80 29h20M80 30h20M80 31h20M80 32h20M80 33h20M80 34h20M80 35h20M80 36h20M80 37h20M80 38h20M80 39h20" />
<path stroke="#a8e61d" d="M120 20h20M120 21h20M120 22h20M120 23h20M120 24h20M120 25h20M120 26h20M120 27h20M120 28h20M120 29h20M120 30h20M120 31h20M120 32h20M120 33h20M120 34h20M120 35h20M120 36h20M120 37h20M120 38h20M120 39h20" />
<path stroke="#ccbe00" d="M0 40h160M0 41h160M0 42h160M0 43h160M0 44h160M0 45h160M0 46h160M0 47h160M0 48h160M0 49h160M0 50h160M0 51h160M0 52h160M0 53h160M0 54h160M0 55h160M0 56h160M0 57h160M0 58h160M0 59h160" />
<path stroke="#020001" d="M0 60h20M140 60h20M0 61h20M140 61h20M0 62h20M140 62h20M0 63h20M140 63h20M0 64h20M140 64h20M0 65h20M140 65h20M0 66h20M140 66h20M0 67h20M140 67h20M0 68h20M140 68h20M0 69h20M140 69h20M0 70h20M140 70h20M0 71h20M140 71h20M0 72h20M140 72h20M0 73h20M140 73h20M0 74h20M140 74h20M0 75h20M140 75h20M0 76h20M140 76h20M0 77h20M140 77h20M0 78h20M140 78h20M0 79h20M140 79h20" />
<path stroke="#ffffff" d="M20 60h20M20 61h20M20 62h20M20 63h20M20 64h20M20 65h20M20 66h20M20 67h20M20 68h20M20 69h20M20 70h20M20 71h20M20 72h20M20 73h20M20 74h20M20 75h20M20 76h20M20 77h20M20 78h20M20 79h20" />
<path stroke="#ee9e9e" d="M40 60h40M40 61h40M40 62h40M40 63h40M40 64h40M40 65h40M40 66h40M40 67h40M40 68h40M40 69h40M40 70h40M40 71h40M40 72h40M40 73h40M40 74h40M40 75h40M40 76h40M40 77h40M40 78h40M40 79h40" />
<path stroke="#efa9a7" d="M80 60h20M80 61h20M80 62h20M80 63h20M80 64h20M80 65h20M80 66h20M80 67h20M80 68h20M80 69h20M80 70h20M80 71h20M80 72h20M80 73h20M80 74h20M80 75h20M80 76h20M80 77h20M80 78h20M80 79h20" />
<path stroke="#f0a7a5" d="M100 60h20M100 61h20M100 62h20M100 63h20M100 64h20M100 65h20M100 66h20M100 67h20M100 68h20M100 69h20M100 70h20M100 71h20M100 72h20M100 73h20M100 74h20M100 75h20M100 76h20M100 77h20M100 78h20M100 79h20" />
<path stroke="#fafafa" d="M120 60h20M120 61h20M120 62h20M120 63h20M120 64h20M120 65h20M120 66h20M120 67h20M120 68h20M120 69h20M120 70h20M120 71h20M120 72h20M120 73h20M120 74h20M120 75h20M120 76h20M120 77h20M120 78h20M120 79h20" />
<path stroke="#ec9699" d="M0 80h20M0 81h20M0 82h20M0 83h20M0 84h20M0 85h20M0 86h20M0 87h20M0 88h20M0 89h20M0 90h20M0 91h20M0 92h20M0 93h20M0 94h20M0 95h20M0 96h20M0 97h20M0 98h20M0 99h20" />
<path stroke="#efa0a2" d="M20 80h20M20 81h20M20 82h20M20 83h20M20 84h20M20 85h20M20 86h20M20 87h20M20 88h20M20 89h20M20 90h20M20 91h20M20 92h20M20 93h20M20 94h20M20 95h20M20 96h20M20 97h20M20 98h20M20 99h20" />
<path stroke="#edbabc" d="M40 80h20M40 81h20M40 82h20M40 83h20M40 84h20M40 85h20M40 86h20M40 87h20M40 88h20M40 89h20M40 90h20M40 91h20M40 92h20M40 93h20M40 94h20M40 95h20M40 96h20M40 97h20M40 98h20M40 99h20" />
<path stroke="#f2c3c5" d="M60 80h20M60 81h20M60 82h20M60 83h20M60 84h20M60 85h20M60 86h20M60 87h20M60 88h20M60 89h20M60 90h20M60 91h20M60 92h20M60 93h20M60 94h20M60 95h20M60 96h20M60 97h20M60 98h20M60 99h20" />
<path stroke="#efc2c4" d="M80 80h20M80 81h20M80 82h20M80 83h20M80 84h20M80 85h20M80 86h20M80 87h20M80 88h20M80 89h20M80 90h20M80 91h20M80 92h20M80 93h20M80 94h20M80 95h20M80 96h20M80 97h20M80 98h20M80 99h20" />
<path stroke="#f0c3c5" d="M100 80h20M100 81h20M100 82h20M100 83h20M100 84h20M100 85h20M100 86h20M100 87h20M100 88h20M100 89h20M100 90h20M100 91h20M100 92h20M100 93h20M100 94h20M100 95h20M100 96h20M100 97h20M100 98h20M100 99h20" />
<path stroke="#f1b1ad" d="M120 80h20M120 81h20M120 82h20M120 83h20M120 84h20M120 85h20M120 86h20M120 87h20M120 88h20M120 89h20M120 90h20M120 91h20M120 92h20M120 93h20M120 94h20M120 95h20M120 96h20M120 97h20M120 98h20M120 99h20" />
<path stroke="#eba6a4" d="M140 80h20M140 81h20M140 82h20M140 83h20M140 84h20M140 85h20M140 86h20M140 87h20M140 88h20M140 89h20M140 90h20M140 91h20M140 92h20M140 93h20M140 94h20M140 95h20M140 96h20M140 97h20M140 98h20M140 99h20" />
<path stroke="#efa29f" d="M0 100h20M0 101h20M0 102h20M0 103h20M0 104h20M0 105h20M0 106h20M0 107h20M0 108h20M0 109h20M0 110h20M0 111h20M0 112h20M0 113h20M0 114h20M0 115h20M0 116h20M0 117h20M0 118h20M0 119h20" />
<path stroke="#efa39f" d="M20 100h20M20 101h20M20 102h20M20 103h20M20 104h20M20 105h20M20 106h20M20 107h20M20 108h20M20 109h20M20 110h20M20 111h20M20 112h20M20 113h20M20 114h20M20 115h20M20 116h20M20 117h20M20 118h20M20 119h20" />
<path stroke="#914b4a" d="M40 100h20M40 101h20M40 102h20M40 103h20M40 104h20M40 105h20M40 106h20M40 107h20M40 108h20M40 109h20M40 110h20M40 111h20M40 112h20M40 113h20M40 114h20M40 115h20M40 116h20M40 117h20M40 118h20M40 119h20" />
<path stroke="#efa2a3" d="M60 100h20M60 101h20M60 102h20M60 103h20M60 104h20M60 105h20M60 106h20M60 107h20M60 108h20M60 109h20M60 110h20M60 111h20M60 112h20M60 113h20M60 114h20M60 115h20M60 116h20M60 117h20M60 118h20M60 119h20" />
<path stroke="#f0a9aa" d="M80 100h20M80 101h20M80 102h20M80 103h20M80 104h20M80 105h20M80 106h20M80 107h20M80 108h20M80 109h20M80 110h20M80 111h20M80 112h20M80 113h20M80 114h20M80 115h20M80 116h20M80 117h20M80 118h20M80 119h20" />
<path stroke="#9c5150" d="M100 100h20M100 101h20M100 102h20M100 103h20M100 104h20M100 105h20M100 106h20M100 107h20M100 108h20M100 109h20M100 110h20M100 111h20M100 112h20M100 113h20M100 114h20M100 115h20M100 116h20M100 117h20M100 118h20M100 119h20" />
<path stroke="#f0afae" d="M120 100h20M120 101h20M120 102h20M120 103h20M120 104h20M120 105h20M120 106h20M120 107h20M120 108h20M120 109h20M120 110h20M120 111h20M120 112h20M120 113h20M120 114h20M120 115h20M120 116h20M120 117h20M120 118h20M120 119h20" />
<path stroke="#f2afad" d="M140 100h20M140 101h20M140 102h20M140 103h20M140 104h20M140 105h20M140 106h20M140 107h20M140 108h20M140 109h20M140 110h20M140 111h20M140 112h20M140 113h20M140 114h20M140 115h20M140 116h20M140 117h20M140 118h20M140 119h20" />
<path stroke="#ec9397" d="M0 120h20M0 121h20M0 122h20M0 123h20M0 124h20M0 125h20M0 126h20M0 127h20M0 128h20M0 129h20M0 130h20M0 131h20M0 132h20M0 133h20M0 134h20M0 135h20M0 136h20M0 137h20M0 138h20M0 139h20" />
<path stroke="#ec969a" d="M20 120h20M20 121h20M20 122h20M20 123h20M20 124h20M20 125h20M20 126h20M20 127h20M20 128h20M20 129h20M20 130h20M20 131h20M20 132h20M20 133h20M20 134h20M20 135h20M20 136h20M20 137h20M20 138h20M20 139h20" />
<path stroke="#c37e84" d="M40 120h20M40 121h20M40 122h20M40 123h20M40 124h20M40 125h20M40 126h20M40 127h20M40 128h20M40 129h20M40 130h20M40 131h20M40 132h20M40 133h20M40 134h20M40 135h20M40 136h20M40 137h20M40 138h20M40 139h20" />
<path stroke="#c7848a" d="M60 120h20M60 121h20M60 122h20M60 123h20M60 124h20M60 125h20M60 126h20M60 127h20M60 128h20M60 129h20M60 130h20M60 131h20M60 132h20M60 133h20M60 134h20M60 135h20M60 136h20M60 137h20M60 138h20M60 139h20" />
<path stroke="#cea29a" d="M80 120h20M80 121h20M80 122h20M80 123h20M80 124h20M80 125h20M80 126h20M80 127h20M80 128h20M80 129h20M80 130h20M80 131h20M80 132h20M80 133h20M80 134h20M80 135h20M80 136h20M80 137h20M80 138h20M80 139h20" />
<path stroke="#d08d8d" d="M100 120h20M100 121h20M100 122h20M100 123h20M100 124h20M100 125h20M100 126h20M100 127h20M100 128h20M100 129h20M100 130h20M100 131h20M100 132h20M100 133h20M100 134h20M100 135h20M100 136h20M100 137h20M100 138h20M100 139h20" />
<path stroke="#f0b4b2" d="M120 120h20M120 121h20M120 122h20M120 123h20M120 124h20M120 125h20M120 126h20M120 127h20M120 128h20M120 129h20M120 130h20M120 131h20M120 132h20M120 133h20M120 134h20M120 135h20M120 136h20M120 137h20M120 138h20M120 139h20" />
<path stroke="#efb1af" d="M140 120h20M140 121h20M140 122h20M140 123h20M140 124h20M140 125h20M140 126h20M140 127h20M140 128h20M140 129h20M140 130h20M140 131h20M140 132h20M140 133h20M140 134h20M140 135h20M140 136h20M140 137h20M140 138h20M140 139h20" />
<path stroke="#ee9f9b" d="M0 140h20M0 141h20M0 142h20M0 143h20M0 144h20M0 145h20M0 146h20M0 147h20M0 148h20M0 149h20M0 150h20M0 151h20M0 152h20M0 153h20M0 154h20M0 155h20M0 156h20M0 157h20M0 158h20M0 159h20" />
<path stroke="#eb9d9d" d="M20 140h20M20 141h20M20 142h20M20 143h20M20 144h20M20 145h20M20 146h20M20 147h20M20 148h20M20 149h20M20 150h20M20 151h20M20 152h20M20 153h20M20 154h20M20 155h20M20 156h20M20 157h20M20 158h20M20 159h20" />
<path stroke="#eea3a2" d="M40 140h20M40 141h20M40 142h20M40 143h20M40 144h20M40 145h20M40 146h20M40 147h20M40 148h20M40 149h20M40 150h20M40 151h20M40 152h20M40 153h20M40 154h20M40 155h20M40 156h20M40 157h20M40 158h20M40 159h20" />
<path stroke="#efa9a6" d="M60 140h20M60 141h20M60 142h20M60 143h20M60 144h20M60 145h20M60 146h20M60 147h20M60 148h20M60 149h20M60 150h20M60 151h20M60 152h20M60 153h20M60 154h20M60 155h20M60 156h20M60 157h20M60 158h20M60 159h20" />
<path stroke="#eeb0ac" d="M80 140h20M80 141h20M80 142h20M80 143h20M80 144h20M80 145h20M80 146h20M80 147h20M80 148h20M80 149h20M80 150h20M80 151h20M80 152h20M80 153h20M80 154h20M80 155h20M80 156h20M80 157h20M80 158h20M80 159h20" />
<path stroke="#eea9a9" d="M100 140h20M100 141h20M100 142h20M100 143h20M100 144h20M100 145h20M100 146h20M100 147h20M100 148h20M100 149h20M100 150h20M100 151h20M100 152h20M100 153h20M100 154h20M100 155h20M100 156h20M100 157h20M100 158h20M100 159h20" />
<path stroke="#f0aeab" d="M120 140h20M120 141h20M120 142h20M120 143h20M120 144h20M120 145h20M120 146h20M120 147h20M120 148h20M120 149h20M120 150h20M120 151h20M120 152h20M120 153h20M120 154h20M120 155h20M120 156h20M120 157h20M120 158h20M120 159h20" />
<path stroke="#f1afad" d="M140 140h20M140 141h20M140 142h20M140 143h20M140 144h20M140 145h20M140 146h20M140 147h20M140 148h20M140 149h20M140 150h20M140 151h20M140 152h20M140 153h20M140 154h20M140 155h20M140 156h20M140 157h20M140 158h20M140 159h20" />
</svg>